<?xml version="1.0" encoding="UTF-8"?>
<svg id="Layer_1" xmlns="http://www.w3.org/2000/svg" version="1.1" viewBox="0 0 60 40.4">
  <!-- Generator: Adobe Illustrator 29.8.3, SVG Export Plug-In . SVG Version: 2.1.1 Build 3)  -->
  <defs>
    <style>
      .st0 {
        fill: #2a2a2a;
      }
    </style>
  </defs>
  <path class="st0" d="M59.3,18.4c-2.4-2.4-6.2-2.4-8.5,0-.3.3-.6.3-.7.3s-.5,0-.7-.3c-2.4-2.4-6.2-2.4-8.5,0-.3.3-.6.3-.7.3s-.5,0-.7-.3c-2.4-2.4-6.2-2.4-8.5,0-.3.3-.6.3-.7.3s-.5,0-.7-.3c-2.4-2.4-6.2-2.4-8.5,0-.3.3-.6.3-.7.3s-.5,0-.7-.3c-1.2-1.2-2.8-1.8-4.5-1.8s-2.8.6-3.8,1.5h-.6c1.8-1.1,2.7-3.1,2.7-5.1s.5-1,1-1c3.3,0,6-2.7,6-6s.5-1,1-1c1.4,0,2.5-1.1,2.5-2.5s-1.1-2.5-2.5-2.5c-3.3,0-6,2.7-6,6s-.5,1-1,1c-3.3,0-6,2.7-6,6s-.7,1-1,1c-4.4,0-7,3.3-7,6.5s3.7,5.6,7,5.6,0,0,0,0h0c.3,0,.5,0,.7.2.1.1.2.4.2.7-.2,1.8.4,3.4,1.6,4.6,1.2,1.2,2.9,1.8,4.6,1.6.3,0,.5,0,.7.2.1,0,.2.4.2.7-.2,1.8.4,3.4,1.6,4.6,1.1,1.1,2.5,1.6,4.1,1.6s.4,0,.5,0c1.4,0,2.4-1.3,2.3-2.7s-1.3-2.4-2.7-2.3c-.3,0-.5,0-.7-.2-.1,0-.2-.4-.2-.7.2-1.8-.4-3.4-1.6-4.6s-2.9-1.8-4.6-1.6c-.3,0-.5,0-.7-.2-.1-.1-.2-.4-.2-.7.1-1.6-.4-3.2-1.4-4.3,1.8-.3,2.4-.9,2.7-1.3.1-.1.3-.2.5-.2.3,0,.6.1.8.3,1.1,1.1,2.7,1.8,4.3,1.8s3.1-.6,4.3-1.8,1.1-.4,1.5,0c1.1,1.1,2.7,1.8,4.3,1.8s3.1-.6,4.3-1.8c.4-.4,1.1-.4,1.5,0,1.1,1.1,2.7,1.8,4.3,1.8s3.1-.6,4.3-1.8c.4-.4,1.1-.4,1.5,0,1.1,1.1,2.7,1.8,4.3,1.8s3.1-.6,4.3-1.8c.4-.4,1.1-.4,1.5,0,1,1,2.6,1,3.5,0,1-1,1-2.6,0-3.5h-.7Z"/>
</svg>