<?xml version="1.0" encoding="UTF-8"?>
<svg id="Layer_1" xmlns="http://www.w3.org/2000/svg" version="1.1" viewBox="0 0 49.2 40.4">
  <!-- Generator: Adobe Illustrator 29.8.7, SVG Export Plug-In . SVG Version: 2.1.1 Build 1)  -->
  <defs>
    <style>
      .st0 {
        fill: #181021;
      }
    </style>
  </defs>
  <path class="st0" d="M8.9,21.9c.3-.3.6-.3.7-.3s.5,0,.7.3c2.4,2.4,6.2,2.4,8.5,0,.3-.3.6-.3.7-.3s.5,0,.7.3c2.4,2.4,6.2,2.4,8.5,0,.3-.3.6-.3.7-.3s.5,0,.7.3c1.2,1.2,2.8,1.8,4.5,1.8s2.8-.6,3.8-1.5h.6c-1.8,1.1-2.7,3.1-2.7,5.1s-.5,1-1,1c-3.3,0-6,2.7-6,6s-.5,1-1,1c-1.4,0-2.5,1.1-2.5,2.5s1.1,2.5,2.5,2.5c3.3,0,6-2.7,6-6s.5-1,1-1c3.3,0,5.8-2.7,6-6s2-2.6,2.3-2.7c4.4-1.8,5.7-2.7,5.7-4.8s-2.2-4.2-5.1-4.9-1.9-.7-1.9-.7h0c-.3,0-.5,0-.7-.2-.1-.1-.2-.4-.2-.7.2-1.8-.4-3.4-1.6-4.6-1.2-1.2-2.9-1.8-4.6-1.6-.3,0-.5,0-.7-.2-.1,0-.2-.4-.2-.7.2-1.8-.4-3.4-1.6-4.6-1.1-1.1-2.5-1.6-4.1-1.6s-.4,0-.5,0c-1.4,0-2.4,1.3-2.3,2.7s1.3,2.4,2.7,2.3c.3,0,.5,0,.7.2.1,0,.2.4.2.7-.2,1.8.4,3.4,1.6,4.6s2.9,1.8,4.6,1.6c.3,0,.5,0,.7.2.1.1.2.4.2.7-.1,1.6.4,3.2,1.4,4.3-1.8.3-2.4.9-2.7,1.3-.1.1-.3.2-.5.2-.3,0-.6-.1-.8-.3-1.1-1.1-2.7-1.8-4.3-1.8s-3.1.6-4.3,1.8-1.1.4-1.5,0c-1.1-1.1-2.7-1.8-4.3-1.8s-3.1.6-4.3,1.8c-.4.4-1.1.4-1.5,0-1.1-1.1-2.7-1.8-4.3-1.8s-3.1.6-4.3,1.8c-.4.4-4.4-2.1-4.5,1.3s5.1,4.4,8.3,2.1Z"/>
</svg>