<?xml version="1.0" encoding="UTF-8"?>
<svg id="Layer_1" data-name="Layer 1" xmlns="http://www.w3.org/2000/svg" viewBox="0 0 64 64">
  <defs>
    <style>
      .cls-1, .cls-2 {
        fill: #fff;
      }

      .cls-2 {
        opacity: 0;
      }
    </style>
  </defs>
  <path class="cls-1" d="M18.91,23.27c-.65-.65-1.14-1.45-1.46-2.38-.28-.84-.34-1.62-.38-2.25-.06-.92-.11-1.25-.46-1.64-1.43-1.56-3.15-2.02-4.34-2.13-1.1-.1-1.92-1.07-1.82-2.17.1-1.1,1.07-1.91,2.17-1.82,1.89.17,4.62.88,6.94,3.41,1.32,1.44,1.43,2.96,1.5,4.06.03.48.06.9.18,1.25.15.44.54,1.61,3.13,1.66,2.69.05,7.09,2.69,8.02,7.33.71,3.53,2.3,4,3.83,4.46l1,.31c1.78.53,4.21,1.27,5.69,3.34.84,1.18,1.11,2.32,1.32,3.25.17.73.29,1.25.64,1.74l.12.17c.6.83.62.84.87.89.24.05.49.08.75.11,1.07.14,2.54.32,3.72,1.3,2.51,2.06,3.07,4.22,3.16,7.02.04,1.1-.83,2.03-1.93,2.07-1.11.04-2.03-.83-2.07-1.93-.07-2.02-.34-2.93-1.71-4.07-.29-.24-1.06-.34-1.68-.42-.35-.04-.69-.09-1-.15-1.84-.35-2.62-1.44-3.37-2.48l-.12-.16c-.82-1.14-1.08-2.28-1.29-3.18-.16-.72-.29-1.29-.67-1.81-.69-.96-2.3-1.44-3.59-1.84l-.99-.3c-1.76-.52-5.42-1.62-6.61-7.5-.53-2.63-3.2-4.1-4.18-4.12-2.29-.04-4.13-.73-5.38-1.99Z"/>
  <path class="cls-2" d="M10.25,35.1c-4.17,0-6.74-2.48-7.36-4.79-.29-1.07.34-2.16,1.41-2.45,1.07-.29,2.16.34,2.45,1.41.13.48,1.04,1.83,3.5,1.83.81,0,1.16-.33,1.96-1.13.9-.9,2.26-2.26,4.66-2.16,2.07.1,3.22,1.29,3.98,2.09.48.5.77.79,1.14.9,1,.29,2.01-.26,3.34-1.06.78-.47,2.33-1.24,3.2-1.57,1.67-.64,4.01-.27,5.02.01,1.07.3,1.86.87,2.49,1.32.51.37.92.65,1.36.76.71.17,1.13.24,1.26.23.09-.02.4-.19.68-.34.21-.11.45-.24.73-.38.13-.07.33-.18.56-.3,1.33-.73,2.41-1.3,3.3-1.43,1.7-.25,2.86.3,3.69.81.25.15.5.32.75.48,1.61,1.05,2.51,1.57,3.92.95.22-.1.59-.44.93-.73.64-.58,1.45-1.3,2.52-1.65,1.27-.4,2.71.43,3.69,1.21,1.21.96,1.79,1.96,1.71,2.99-.08,1.1-1.04,1.93-2.14,1.85-.87-.06-1.56-.67-1.78-1.46-.16-.16-.43-.36-.67-.52-.21.16-.44.37-.65.56-.55.5-1.18,1.06-1.99,1.42-3.45,1.53-6.02-.15-7.72-1.26-.22-.15-.44-.29-.66-.42-.43-.26-.64-.32-1.02-.26-.34.09-1.51.73-1.95.98-.28.16-.53.29-.69.37-.26.13-.48.25-.67.35-1.77.93-2.43,1-4.72.46-1.22-.28-2.08-.9-2.78-1.4-.48-.34-.86-.62-1.27-.73-.86-.24-2.1-.28-2.48-.13-.64.25-1.99.91-2.56,1.26-1.5.91-3.77,2.29-6.54,1.48-1.42-.41-2.28-1.31-2.91-1.97-.65-.68-.84-.84-1.27-.86-.55-.03-.82.16-1.63.98-.91.92-2.29,2.31-4.8,2.31ZM57.15,31.79s0,0,0,0c0,0,0,0,0,0Z"/>
  <path class="cls-1" d="M23.37,46.57c-2.08,2.08-4.62,2.04-6.13,2.01-.26,0-.6-.01-.75,0-1.13.5-1.53,1.4-1.18,2.68.29,1.07-.34,2.17-1.4,2.46-1.07.29-2.17-.34-2.46-1.4-.89-3.28.53-6.21,3.62-7.47.71-.29,1.46-.28,2.26-.26,1.42.03,2.41-.02,3.23-.83,1.07-1.07.83-3.01.69-4.17-.05-.4-.09-.72-.08-1.03.06-2.94,2.34-5.02,6.09-5.58.38-.06.74-.09,1.09-.13,1.29-.13,1.72-.21,2.26-.8.42-.46.6-1.25.81-2.17.3-1.28.67-2.87,1.9-4.18,1.33-1.41,2.84-1.63,3.96-1.8.5-.08.93-.14,1.32-.29,1.61-.59,1.91-.8,2.5-2.39.12-.32.19-.92.26-1.49.2-1.63.5-4.1,2.76-5.02.9-.37,1.77-.49,2.53-.59.32-.04.64-.09.96-.15.23-.05.77-.32,1.1-.52.03-.04.06-.08.09-.11,0-.13-.03-.31-.07-.42-.32-1.06.28-2.17,1.34-2.49,1.06-.32,2.17.29,2.49,1.34.36,1.22.39,2.9-.57,4.02-.95,1.4-3.52,2.09-3.55,2.09-.41.09-.83.15-1.25.21-.57.08-1.07.15-1.49.31-.18.31-.3,1.25-.37,1.83-.1.8-.2,1.63-.48,2.39-1.08,2.92-2.43,3.86-4.87,4.76-.77.28-1.47.39-2.09.49-.97.15-1.31.21-1.65.58-.49.53-.69,1.37-.92,2.35-.3,1.27-.63,2.71-1.74,3.94-1.58,1.77-3.37,1.95-4.81,2.1-.29.03-.6.06-.92.11-.79.12-2.65.52-2.68,1.7,0,.1.03.26.05.47.2,1.64.61,5.04-1.83,7.48Z"/>
</svg>