<?xml version="1.0" encoding="UTF-8"?>
<svg id="Layer_1" data-name="Layer 1" xmlns="http://www.w3.org/2000/svg" viewBox="0 0 64 64">
  <defs>
    <style>
      .cls-1 {
        fill: #fff;
      }
    </style>
  </defs>
  <path class="cls-1" d="M16.96,16.7c-.92,0-1.83-.22-2.72-.65-.79-.39-1.39-.91-1.86-1.32-.7-.61-.97-.81-1.48-.83-2.11-.1-3.66.8-4.57,1.56-.85.71-2.11.6-2.82-.25-.71-.85-.6-2.11.25-2.82,1.45-1.22,3.89-2.65,7.31-2.49,1.96.08,3.1,1.08,3.94,1.81.36.32.68.59,1.01.75.42.21,1.52.75,3.38-1.04,1.94-1.86,6.92-3.11,10.86-.49,3,1.99,4.45,1.21,5.86.44l.93-.49c1.63-.88,3.87-2.08,6.38-1.66,1.43.24,2.42.86,3.23,1.36.63.4,1.09.68,1.68.78l.2.03c1.01.17,1.03.15,1.25,0,.2-.13.4-.29.61-.45.86-.66,2.03-1.57,3.55-1.71,3.23-.31,5.15.81,7.2,2.73.81.75.85,2.02.1,2.83-.76.81-2.02.85-2.83.1-1.47-1.38-2.32-1.83-4.08-1.67-.37.04-.99.51-1.48.9-.28.22-.55.42-.81.6-1.55,1.05-2.87.83-4.13.63l-.2-.03c-1.39-.23-2.38-.84-3.17-1.34-.62-.39-1.12-.7-1.76-.81-1.17-.19-2.65.6-3.84,1.24l-.92.49c-1.62.87-4.98,2.69-9.98-.63-2.24-1.49-5.16-.64-5.87.04-1.65,1.59-3.44,2.4-5.21,2.4Z"/>
  <path class="cls-1" d="M10.25,35.1c-4.17,0-6.74-2.48-7.36-4.79-.29-1.07.34-2.16,1.41-2.45,1.07-.29,2.16.34,2.45,1.41.13.48,1.04,1.83,3.5,1.83.81,0,1.16-.33,1.96-1.13.9-.9,2.26-2.26,4.66-2.16,2.07.1,3.22,1.29,3.98,2.09.48.5.77.79,1.14.9,1,.29,2.01-.26,3.34-1.06.78-.47,2.33-1.24,3.2-1.57,1.67-.64,4.01-.27,5.02.01,1.07.3,1.86.87,2.49,1.32.51.37.92.65,1.36.76.71.17,1.13.24,1.26.23.09-.02.4-.19.68-.34.21-.11.45-.24.73-.38.13-.07.33-.18.56-.3,1.33-.73,2.41-1.3,3.3-1.43,1.7-.25,2.86.3,3.69.81.25.15.5.32.75.48,1.61,1.05,2.51,1.57,3.92.95.22-.1.59-.44.93-.73.64-.58,1.45-1.3,2.52-1.65,1.27-.4,2.71.43,3.69,1.21,1.21.96,1.79,1.96,1.71,2.99-.08,1.1-1.04,1.93-2.14,1.85-.87-.06-1.56-.67-1.78-1.46-.16-.16-.43-.36-.67-.52-.21.16-.44.37-.65.56-.55.5-1.18,1.06-1.99,1.42-3.45,1.53-6.02-.15-7.72-1.26-.22-.15-.44-.29-.66-.42-.43-.26-.64-.32-1.02-.26-.34.09-1.51.73-1.95.98-.28.16-.53.29-.69.37-.26.13-.48.25-.67.35-1.77.93-2.43,1-4.72.46-1.22-.28-2.08-.9-2.78-1.4-.48-.34-.86-.62-1.27-.73-.86-.24-2.1-.28-2.48-.13-.64.25-1.99.91-2.56,1.26-1.5.91-3.77,2.29-6.54,1.48-1.42-.41-2.28-1.31-2.91-1.97-.65-.68-.84-.84-1.27-.86-.55-.03-.82.16-1.63.98-.91.92-2.29,2.31-4.8,2.31ZM57.15,31.79s0,0,0,0c0,0,0,0,0,0Z"/>
  <path class="cls-1" d="M15.6,54.87c-2.95,0-4.7-1.83-5.75-2.92-.18-.18-.41-.43-.54-.53-1.15-.45-2.07-.09-2.73,1.06-.55.96-1.77,1.29-2.73.74-.96-.55-1.29-1.77-.74-2.73,1.69-2.95,4.76-4.02,7.84-2.73.71.3,1.23.84,1.78,1.41.98,1.02,1.71,1.69,2.87,1.69,1.51,0,2.71-1.54,3.44-2.46.25-.32.45-.57.67-.79,2.12-2.04,5.2-1.9,8.25.36.31.23.59.46.86.68,1,.81,1.36,1.07,2.16,1.03.62-.03,1.31-.46,2.11-.96,1.11-.69,2.5-1.55,4.29-1.61,1.93-.05,3.16.86,4.07,1.52.41.3.75.55,1.13.73,1.56.72,1.92.78,3.46.08.31-.14.78-.51,1.24-.87,1.3-1.01,3.25-2.55,5.5-1.6.9.38,1.59.91,2.21,1.37.26.2.52.39.79.57.2.13.77.32,1.14.41.05,0,.1-.01.14-.02.09-.1.19-.24.25-.35.52-.97,1.74-1.34,2.71-.81.97.52,1.33,1.74.81,2.71-.6,1.12-1.78,2.33-3.25,2.44-1.66.32-3.96-1.01-3.99-1.03-.35-.23-.69-.48-1.03-.74-.46-.35-.86-.65-1.27-.84-.35.09-1.1.68-1.56,1.03-.64.5-1.3,1.01-2.03,1.35-2.83,1.3-4.45,1.01-6.81-.08-.74-.34-1.32-.76-1.82-1.13-.79-.58-1.08-.78-1.58-.75-.72.02-1.46.48-2.31,1.01-1.11.69-2.36,1.47-4.01,1.56-2.36.13-3.76-1.01-4.89-1.91-.23-.19-.47-.38-.73-.57-.65-.48-2.24-1.51-3.1-.69-.07.07-.17.21-.29.37-1.02,1.3-3.13,4-6.58,4Z"/>
</svg>