<?xml version="1.0" encoding="UTF-8"?>
<svg id="Layer_1" data-name="Layer 1" xmlns="http://www.w3.org/2000/svg" viewBox="0 0 64 64">
  <defs>
    <style>
      .cls-1 {
        fill: #fff;
      }
    </style>
  </defs>
  <path class="cls-1" d="M16.96,16.45c-.88,0-1.75-.21-2.6-.63-.77-.38-1.32-.86-1.81-1.29-.69-.6-1.02-.86-1.64-.89-2.18-.1-3.79.83-4.74,1.62-.74.62-1.84.53-2.46-.21-.62-.74-.53-1.84.21-2.47,1.42-1.19,3.8-2.58,7.14-2.44,1.87.08,2.98,1.04,3.78,1.75.38.33.7.61,1.06.79.46.23,1.68.83,3.67-1.08,1.88-1.81,6.71-3.01,10.54-.46,3.12,2.08,4.71,1.22,6.12.46l.93-.49c1.6-.86,3.79-2.04,6.22-1.64,1.38.23,2.35.84,3.13,1.33.63.4,1.13.71,1.77.81l.2.03c1.12.18,1.15.16,1.43-.03.2-.14.41-.3.62-.46.88-.68,1.97-1.52,3.42-1.66,3.13-.3,5,.79,7,2.66.71.66.74,1.77.08,2.47-.66.71-1.77.74-2.47.08-1.47-1.37-2.38-1.92-4.28-1.73-.44.04-1.07.52-1.61.95-.27.21-.54.42-.8.59-1.47.99-2.68.8-3.96.59l-.2-.03c-1.34-.22-2.3-.82-3.07-1.3-.65-.41-1.16-.73-1.85-.84-1.25-.21-2.77.61-3.99,1.27l-.92.49c-1.69.92-4.84,2.62-9.72-.62-2.38-1.58-5.41-.67-6.18.07-1.6,1.54-3.33,2.33-5.04,2.33Z"/>
  <path class="cls-1" d="M10.25,34.85c-4.04,0-6.52-2.39-7.12-4.61-.25-.93.3-1.89,1.23-2.15s1.89.3,2.14,1.23c.14.52,1.13,2.02,3.74,2.02.91,0,1.33-.39,2.14-1.2.92-.92,2.15-2.2,4.47-2.08,1.97.09,3.03,1.2,3.81,2.01.51.53.82.84,1.25.96,1.09.32,2.16-.25,3.54-1.09.77-.47,2.31-1.22,3.16-1.55,1.6-.62,3.88-.26,4.86.02,1.03.29,1.76.82,2.42,1.28.54.38.96.68,1.46.8q1.3.3,2.12-.13c.21-.11.45-.24.73-.38.14-.07.34-.18.57-.31,1.3-.72,2.36-1.28,3.21-1.4,1.62-.24,2.73.29,3.53.77.25.15.5.31.75.48,1.64,1.07,2.64,1.64,4.15.97.26-.11.63-.45.99-.78.66-.59,1.41-1.27,2.43-1.59,1.17-.37,2.53.43,3.46,1.17,1.16.91,1.69,1.82,1.61,2.77-.07.96-.9,1.7-1.88,1.61-.78-.06-1.4-.62-1.57-1.34-.19-.21-.59-.51-.91-.69-.25.17-.54.43-.8.67-.54.49-1.15,1.04-1.92,1.38-3.33,1.47-5.83-.16-7.48-1.24-.23-.15-.45-.29-.67-.43-.48-.29-.74-.36-1.18-.29-.36.08-1.58.75-2.03,1-.28.16-.52.29-.69.37-.26.13-.48.25-.67.35-1.63.86-2.2.99-4.54.44-1.17-.27-2.01-.87-2.69-1.36-.48-.34-.9-.64-1.34-.77-.86-.24-2.16-.31-2.63-.12-.67.26-2.01.92-2.61,1.28-1.46.89-3.68,2.23-6.34,1.46-1.35-.39-2.15-1.23-2.8-1.9-.66-.69-.91-.91-1.44-.93-.69-.03-1.01.23-1.82,1.05-.94.94-2.22,2.24-4.62,2.24ZM57.4,31.81h0s0,0,0,0Z"/>
  <path class="cls-1" d="M15.6,54.62c-2.84,0-4.55-1.78-5.57-2.84-.21-.22-.5-.52-.61-.59-1.58-.66-2.54.27-3.05,1.17-.48.84-1.55,1.13-2.39.65-.84-.48-1.13-1.55-.65-2.39,1.62-2.83,4.58-3.86,7.53-2.62.66.28,1.17.8,1.7,1.35,1,1.03,1.8,1.77,3.05,1.77,1.63,0,2.88-1.6,3.63-2.56.24-.31.44-.56.65-.76,2.02-1.94,4.99-1.8,7.93.38.3.23.58.45.85.67,1.04.84,1.45,1.14,2.33,1.08.68-.04,1.4-.48,2.22-.99,1.09-.68,2.44-1.52,4.17-1.58,1.84-.06,2.99.79,3.92,1.48.4.29.78.57,1.18.75,1.6.74,2.05.82,3.67.08.34-.16.82-.53,1.29-.9,1.33-1.03,3.14-2.46,5.25-1.57.87.37,1.55.88,2.16,1.34.26.2.52.4.8.58.25.16.89.37,1.27.45.09-.02.17-.03.26-.03.11-.11.27-.3.36-.47.46-.85,1.52-1.17,2.37-.71.85.46,1.17,1.52.71,2.37-.57,1.06-1.68,2.21-3.05,2.31-1.55.32-3.8-.97-3.83-.99-.35-.23-.68-.47-1.01-.73-.5-.38-.94-.71-1.4-.91-.33.02-1.24.71-1.73,1.1-.63.49-1.27.99-1.98,1.32-2.74,1.26-4.31.98-6.6-.08-.72-.33-1.28-.74-1.78-1.11-.78-.57-1.14-.82-1.74-.8-.79.03-1.55.5-2.43,1.05-1.08.67-2.31,1.44-3.89,1.52-2.26.11-3.57-.93-4.72-1.86-.23-.19-.47-.38-.74-.58-.7-.52-2.43-1.61-3.42-.67-.08.08-.18.22-.32.39-.99,1.27-3.05,3.9-6.39,3.9Z"/>
</svg>