<svg xmlns="http://www.w3.org/2000/svg" version="1.1" xmlns:xlink="http://www.w3.org/1999/xlink" width="1000" height="1000"><metadata><rdf:RDF xmlns:rdf="http://www.w3.org/1999/02/22-rdf-syntax-ns#" xmlns:dc="http://purl.org/dc/elements/1.1/"><rdf:Description><dc:creator>RealFaviconGenerator</dc:creator><dc:source>https://realfavicongenerator.net</dc:source></rdf:Description></rdf:RDF></metadata><style>
    #light-icon {
      display: inline;
    }
    #dark-icon {
      display: none;
    }

    @media (prefers-color-scheme: dark) {
      #light-icon {
        display: none;
      }
      #dark-icon {
        display: inline;
      }
    }
  </style><g id="light-icon"><svg xmlns="http://www.w3.org/2000/svg" version="1.1" xmlns:xlink="http://www.w3.org/1999/xlink" width="1000" height="1000"><g><g transform="matrix(20.833333333333332,0,0,20.833333333333332,0,0)"><svg xmlns="http://www.w3.org/2000/svg" version="1.1" id="Layer_2" viewBox="0 0 48 48" width="48" height="48"><defs>
    <style>
      .st0 {
        fill: #241636;
      }
    </style>
  </defs><path class="st0" d="M24.7,31.9c.3-1.3-.3-1.6-.7-2.5-.5-1.5.9-1.2.7-3.4,0-1-1.4-2-.9-3,.7-.9,1.1-2.1.5-3.3-.3-.7-1.1-1.5-.5-2.4.9-1,.9-2.5.3-3.5-.3-.6-.9-.9-.9-1.7,0-.7.3-1.3-.3-1.8-.4-.3-1.7,0-2.1.2-1.5,1.1-.9,3.5,0,4.7.2.2.9.6.9.9s-.3.4-.4.6c-.4.6-.8,1.5-.7,2.2,0,.5.9,1.1,1,1.7.2.5-.4.9-.7,1.5-.7,1.3-.5,2.3.3,3.2s.3.3.4.5c0,0,.3.3.3.5,0,.3-.5.8-.8,1.1-.5.8-.8,1.9-.4,2.7.2.3.8.7.9,1,.3.9-.7,1.7-.9,2.6v.8c0,.3,0,.5-.2.9s-.5.4-.7.4c0,0,0,0,0-.2.2,0,.4-.3.5-.7,0-.9,0-1.3-.4-1.7-.3-.5-.9-.5-1.5-1.1s.2-1.5,0-2.6c0-.9-.5-1.2-1.1-1.6-.7-.4-1,0-.9-1.1.3-1.1.4-1.6-.4-2.6-.4-.4-1.4-.3-1.5-1.1-.2-1.2.2-2.6-.7-3.5-.3-.3-1.2-.7-1.3-.9-.3-.5.3-1,.4-1.5,1.8-5.6-6.5-6.3-8.1-1.9-.2.8,0,.9,0,1.5.5,1.7-1.8,2.7-1,4.5.2.5.9,1.2.9,1.7-.4,2.1-2.1,2.3-.4,5.1.4,1.1-.3,1.2-.6,2.2-.4,1.1,0,2.2.9,2.9.3.3.6.2.3.8-.8,1.1-2,2.6-.7,3.8.3.3.8.3.9.9,0,.7-.9,1.5-.3,2.2,1.5,1.9,5.6-1.5,2.8-4,0-.2-.5-.8-.5-.9,0-1.1,1.6-2,1.5-3.4,0-.9-1.4-.9-1.4-1.9.3-2.1,2.2-2.1,0-4.5-.7-.3.5-1.5.7-2.1.6-1.6-.3-2.1-.8-3.3-.5-1.3.9-1.5.8-2.5,0-.3-.2-.5-.3-.8,0,0-.3-.4-.3-.9s0-.7.2-.7h0v.4c0,0,.3,0,.6,0,1-.8,2.5-.8,1.9,1-.7,1.2-1.4,3,.4,3.4.9.6.3,1.7.3,2.7,0,.8.7,1.5,1.2,1.9.3.2,1,.4,1.2.7.4.9-.7,1.9.3,3,.9,1,2.4.8,2.1,1.7-.3.9-.6,2.6.5,3.4,1.7.9.3,1.1,1.9,3.7h0c1.5,1.8,4.6,1.5,5.9-.6.3-.5.3-1.9.3-2.4s-.3-.9-.3-1.4.7-1.1.9-1.7h0v.2Z"></path><path class="st0" d="M43.1,30.2c-.2.2-.2.3,0,.5,1.8,2.2-1.5,5.1-3.8,3.9-.9,2.2-3.1,3.6-5.1,1.8-1,.7-1.4,1.5-3,1.8-1.8.3-2.8-1.5-2-3,0,0,0-.2-.2-.2-2.1-.6-1.7-3-.6-4.8,0-.5-.7-.9-.9-1.4-.5-1.2.3-3.1.9-4.3-1.7-2.1-.6-3.1.2-5.3-.8-.8-1.5-1.7-1-2.9.2-.6.9-1.3.9-1.8-1.3-2.2.3-5.2,2.8-5.6,2-.3,1.9,1.5,3.6-.6,1-.9,2.2-.8,3.4-.5,1.3.7,1.6,1.7,1.2,3,1.3.2,2.1.4,2.2,1.8,0,.6,0,2-.6,2.3,1.5,1,.8,3.3-.7,4.2.5.3,1.1.9,1.1,1.8,2-.3,3.3,2,2.3,3.7-.2.4-.9,1-.4,1.4h0c1.6,1.3,1,3.3-.6,4.3h.2ZM31.3,15.1c-.2.4-.8.8-.7,1.1,0,0,2.1,1.1.3,5.1.6-.7,1.5-.6,2.1-.3.3-.2.7-.8.9-.9.9-.7,2.1,0,3.1.2.2-.2.2-.4.2-.7-.4-1.5,2.7-2.2,1.2-3.2-1-.5-.9-2.1.2-2.7,0-.5-.2-1-.9-.9-1.5,0-1.5-.8-1.7-1.4,0-.2,0-.3-.2-.5,0-.2-.2-.3-.3-.3h-.2s.2,0,.2.2c0,.2,0,.3,0,.5-3.3,3.3-3.3-.2-4.6,1,0,.2,0,.3.2.3h0c.9.3.6,1.8.3,2.6h0ZM41.9,28.4c-.2-.3-.7-.4-.9-.6-.9-.9-.7-2.3.3-3.2.2-.2.3-.3,0-.5-1-.6-2.4,0-2.7-1.6-1,.9-2.2.3-3.3,0-.2,0-.3.2-.6.4-.6.9-2,1.2-2.9.9,0,0,0,.3,0,.3,0,0-1.3,2.6-1.3,2.7.3.9,1.5,1.1,1.3,2.4,0,.7-1.4,2.1-1.2,2.8.8.3,1.2,1,1.2,1.8h0c0,.3-.2.6-.3.9s-.3.6-.3.9c0,.3.3.3.3.3s-.2-.3,0-.5c.2-.5.6-1.4,1.1-1.8h0c.6-.3,1.2-.6,1.9-.5.7,0,1.2.9,1.8.9.4-.2.6-.6.9-.9.5-1.1,2.1-1.9,3.3-1.1,0-.2-.3-.3-.3-.5h0c-.4-1.4.8-2.3,1.5-2.9h.2Z"></path></svg></g></g></svg></g><g id="dark-icon"><svg xmlns="http://www.w3.org/2000/svg" version="1.1" xmlns:xlink="http://www.w3.org/1999/xlink" width="1000" height="1000"><g><g transform="matrix(20.833333333333332,0,0,20.833333333333332,0,0)"><svg xmlns="http://www.w3.org/2000/svg" version="1.1" id="Layer_2" viewBox="0 0 48 48" width="48" height="48"><defs>
    <style>
      .st0 {
        fill: #ae9dd6;
      }
    </style>
  </defs><path class="st0" d="M24.7,31.9c.3-1.3-.3-1.6-.7-2.5-.5-1.5.9-1.2.7-3.4,0-1-1.4-2-.9-3,.7-.9,1.1-2.1.5-3.3-.3-.7-1.1-1.5-.5-2.4.9-1,.9-2.5.3-3.5-.3-.6-.9-.9-.9-1.7,0-.7.3-1.3-.3-1.8-.4-.3-1.7,0-2.1.2-1.5,1.1-.9,3.5,0,4.7.2.2.9.6.9.9s-.3.4-.4.6c-.4.6-.8,1.5-.7,2.2,0,.5.9,1.1,1,1.7.2.5-.4.9-.7,1.5-.7,1.3-.5,2.3.3,3.2s.3.3.4.5c0,0,.3.3.3.5,0,.3-.5.8-.8,1.1-.5.8-.8,1.9-.4,2.7.2.3.8.7.9,1,.3.9-.7,1.7-.9,2.6v.8c0,.3,0,.5-.2.9s-.5.4-.7.4c0,0,0,0,0-.2.2,0,.4-.3.5-.7,0-.9,0-1.3-.4-1.7-.3-.5-.9-.5-1.5-1.1s.2-1.5,0-2.6c0-.9-.5-1.2-1.1-1.6-.7-.4-1,0-.9-1.1.3-1.1.4-1.6-.4-2.6-.4-.4-1.4-.3-1.5-1.1-.2-1.2.2-2.6-.7-3.5-.3-.3-1.2-.7-1.3-.9-.3-.5.3-1,.4-1.5,1.8-5.6-6.5-6.3-8.1-1.9-.2.8,0,.9,0,1.5.5,1.7-1.8,2.7-1,4.5.2.5.9,1.2.9,1.7-.4,2.1-2.1,2.3-.4,5.1.4,1.1-.3,1.2-.6,2.2-.4,1.1,0,2.2.9,2.9.3.3.6.2.3.8-.8,1.1-2,2.6-.7,3.8.3.3.8.3.9.9,0,.7-.9,1.5-.3,2.2,1.5,1.9,5.6-1.5,2.8-4,0-.2-.5-.8-.5-.9,0-1.1,1.6-2,1.5-3.4,0-.9-1.4-.9-1.4-1.9.3-2.1,2.2-2.1,0-4.5-.7-.3.5-1.5.7-2.1.6-1.6-.3-2.1-.8-3.3-.5-1.3.9-1.5.8-2.5,0-.3-.2-.5-.3-.8,0,0-.3-.4-.3-.9s0-.7.2-.7h0v.4c0,0,.3,0,.6,0,1-.8,2.5-.8,1.9,1-.7,1.2-1.4,3,.4,3.4.9.6.3,1.7.3,2.7,0,.8.7,1.5,1.2,1.9.3.2,1,.4,1.2.7.4.9-.7,1.9.3,3,.9,1,2.4.8,2.1,1.7-.3.9-.6,2.6.5,3.4,1.7.9.3,1.1,1.9,3.7h0c1.5,1.8,4.6,1.5,5.9-.6.3-.5.3-1.9.3-2.4s-.3-.9-.3-1.4.7-1.1.9-1.7h0v.2Z"></path><path class="st0" d="M43.1,30.2c-.2.2-.2.3,0,.5,1.8,2.2-1.5,5.1-3.8,3.9-.9,2.2-3.1,3.6-5.1,1.8-1,.7-1.4,1.5-3,1.8-1.8.3-2.8-1.5-2-3,0,0,0-.2-.2-.2-2.1-.6-1.7-3-.6-4.8,0-.5-.7-.9-.9-1.4-.5-1.2.3-3.1.9-4.3-1.7-2.1-.6-3.1.2-5.3-.8-.8-1.5-1.7-1-2.9.2-.6.9-1.3.9-1.8-1.3-2.2.3-5.2,2.8-5.6,2-.3,1.9,1.5,3.6-.6,1-.9,2.2-.8,3.4-.5,1.3.7,1.6,1.7,1.2,3,1.3.2,2.1.4,2.2,1.8,0,.6,0,2-.6,2.3,1.5,1,.8,3.3-.7,4.2.5.3,1.1.9,1.1,1.8,2-.3,3.3,2,2.3,3.7-.2.4-.9,1-.4,1.4h0c1.6,1.3,1,3.3-.6,4.3h.2ZM31.3,15.1c-.2.4-.8.8-.7,1.1,0,0,2.1,1.1.3,5.1.6-.7,1.5-.6,2.1-.3.3-.2.7-.8.9-.9.9-.7,2.1,0,3.1.2.2-.2.2-.4.2-.7-.4-1.5,2.7-2.2,1.2-3.2-1-.5-.9-2.1.2-2.7,0-.5-.2-1-.9-.9-1.5,0-1.5-.8-1.7-1.4,0-.2,0-.3-.2-.5,0-.2-.2-.3-.3-.3h-.2s.2,0,.2.2c0,.2,0,.3,0,.5-3.3,3.3-3.3-.2-4.6,1,0,.2,0,.3.2.3h0c.9.3.6,1.8.3,2.6h0ZM41.9,28.4c-.2-.3-.7-.4-.9-.6-.9-.9-.7-2.3.3-3.2.2-.2.3-.3,0-.5-1-.6-2.4,0-2.7-1.6-1,.9-2.2.3-3.3,0-.2,0-.3.2-.6.4-.6.9-2,1.2-2.9.9,0,0,0,.3,0,.3,0,0-1.3,2.6-1.3,2.7.3.9,1.5,1.1,1.3,2.4,0,.7-1.4,2.1-1.2,2.8.8.3,1.2,1,1.2,1.8h0c0,.3-.2.6-.3.9s-.3.6-.3.9c0,.3.3.3.3.3s-.2-.3,0-.5c.2-.5.6-1.4,1.1-1.8h0c.6-.3,1.2-.6,1.9-.5.7,0,1.2.9,1.8.9.4-.2.6-.6.9-.9.5-1.1,2.1-1.9,3.3-1.1,0-.2-.3-.3-.3-.5h0c-.4-1.4.8-2.3,1.5-2.9h.2Z"></path></svg></g></g></svg></g></svg>