<?xml version="1.0" encoding="utf-8"?>
<!-- Generator: Adobe Illustrator 29.1.0, SVG Export Plug-In . SVG Version: 9.03 Build 55587)  -->
<svg version="1.0" id="katman_1" xmlns="http://www.w3.org/2000/svg" xmlns:xlink="http://www.w3.org/1999/xlink" x="0px" y="0px"
	 viewBox="0 0 53.4 40" style="enable-background:new 0 0 53.4 40;" xml:space="preserve">
<style type="text/css">
	.st0{fill:#FFFFFF;}
</style>
<g>
	<g id="Logo">
		<polygon class="st0" points="10.7,10.7 10.7,18 14.5,18 16,16.5 16,12.2 14.5,10.7 		"/>
		<polygon class="st0" points="37.4,10.7 37.4,18 41.2,18 42.7,16.5 42.7,12.2 41.2,10.7 		"/>
		<polygon class="st0" points="10.7,22 10.7,29.4 14.5,29.4 16,27.9 16,23.5 14.5,22 		"/>
		<path class="st0" d="M0,0v40h53.4V0H0z M20,18.2L18.2,20l1.8,1.8v7.7l-3.8,3.8H6.7V6.7h9.5l3.8,3.8V18.2z M30,19l-6.7,6.7V21
			l6.7-6.7L30,19z M43.3,33.4L40.2,22h-2.8v11.4h-4V6.7h9.5l3.8,3.8v7.7L43.9,21l3.3,12.4L43.3,33.4z"/>
	</g>
	<g>
		<g id="Logo_1_">
			<polygon class="st0" points="10.7,10.7 10.7,18 14.5,18 16,16.5 16,12.2 14.5,10.7 			"/>
			<polygon class="st0" points="37.4,10.7 37.4,18 41.2,18 42.7,16.5 42.7,12.2 41.2,10.7 			"/>
			<polygon class="st0" points="10.7,22 10.7,29.4 14.5,29.4 16,27.9 16,23.5 14.5,22 			"/>
			<path class="st0" d="M0,0v40h53.4V0H0z M20,18.2L18.2,20l1.8,1.8v7.7l-3.8,3.8H6.7V6.7h9.5l3.8,3.8V18.2z M30,19l-6.7,6.7V21
				l6.7-6.7L30,19z M43.3,33.4L40.2,22h-2.8v11.4h-4V6.7h9.5l3.8,3.8v7.7L43.9,21l3.3,12.4L43.3,33.4z"/>
		</g>
	</g>
</g>
</svg>
