<?xml version="1.0" encoding="UTF-8"?>
<svg id="Livello_1" xmlns="http://www.w3.org/2000/svg" xmlns:xlink="http://www.w3.org/1999/xlink" version="1.1" viewBox="0 0 857.2 122.1">
  <!-- Generator: Adobe Illustrator 29.3.1, SVG Export Plug-In . SVG Version: 2.1.0 Build 151)  -->
  <defs>
    <style>
      .st0 {
        fill: #231f20;
      }

      .st1 {
        fill: url(#linear-gradient);
      }

      .st2 {
        fill: #0022af;
      }

      .st3 {
        fill: #ffc200;
      }
    </style>
    <linearGradient id="linear-gradient" x1="265.1" y1="-654.5" x2="375.3" y2="-654.5" gradientTransform="translate(0 -593.9) scale(1 -1)" gradientUnits="userSpaceOnUse">
      <stop offset="0" stop-color="#4047ff"/>
      <stop offset="1" stop-color="#04006c"/>
    </linearGradient>
  </defs>
  <g>
    <g>
      <path class="st2" d="M423.3,59l-18.3-44.9h8.6l10.5,26.8,11.5-28,11.4,28,10.4-26.8h8.3l-18.3,44.9-12.1-28.9-12,28.9Z"/>
      <path class="st2" d="M505,57.3h-8.4l-4.4-9.3h-18.4l-4.4,9.3h-8.5l22-44.9,22,44.9h0ZM476.8,41.8h12.6l-6.3-13.4-6.3,13.4h0Z"/>
      <path class="st2" d="M518.6,57.3h-8V14.1h12.2c9.5,0,16.3,4.9,16.3,13.4s-3.3,9.9-8.5,11.8l13.4,18h-9.3l-12.4-16.7h-3.8v16.7h.1ZM518.6,34.2h4.2c4.9,0,8.2-2.4,8.2-6.7s-3.3-6.8-8.2-6.8h-4.2v13.5h0Z"/>
      <path class="st2" d="M643.5,57.3h-8V14.1h12.2c9.5,0,16.3,4.9,16.3,13.4s-3.3,9.9-8.5,11.8l13.4,18h-9.3l-12.4-16.7h-3.8v16.7h0ZM643.5,34.2h4.2c4.9,0,8.2-2.4,8.2-6.7s-3.3-6.8-8.2-6.8h-4.2v13.5Z"/>
      <path class="st2" d="M581.3,14.1h7.8v44.8l-30.4-29.3v27.6h-7.8V12.5l30.4,29.3V14.1Z"/>
      <path class="st2" d="M599.6,14.1h26.6v6.6h-18.8v11.2h17.3v6.7h-17.3v12.1h18.9v6.6h-26.7V14.1h0Z"/>
      <path class="st2" d="M690.1,14.1h12.4c9.6,0,14.7,4.5,14.7,11.4s-2.7,7.6-6,9c4.9,1.3,8.7,5,8.7,10.5s-5.9,12.3-15.3,12.3h-14.5V14.1h0ZM702,32.4c4.5,0,7.3-2,7.3-5.8s-2.8-5.9-7.3-5.9h-4.1v11.6h4.1ZM704.1,50.7c4.6,0,7.6-2.4,7.6-6.2s-3.1-6.2-7.6-6.2h-6.2v12.4s6.2,0,6.2,0Z"/>
      <path class="st2" d="M736.2,57.3h-8V14.1h12.2c9.5,0,16.3,4.9,16.3,13.4s-3.3,9.9-8.5,11.8l13.4,18h-9.3l-12.4-16.7h-3.8v16.7h0ZM736.2,34.2h4.2c4.9,0,8.2-2.4,8.2-6.7s-3.3-6.8-8.2-6.8h-4.2v13.5Z"/>
      <path class="st2" d="M808.3,35.7c0,12.3-9.8,22.3-22.1,22.3s-22.1-10-22.1-22.3,9.8-22.3,22.1-22.3,22.1,10,22.1,22.3ZM772.2,35.7c0,8.5,6.3,14.9,14.1,14.9s14.1-6.4,14.1-14.9-6.3-14.9-14.1-14.9-14.1,6.4-14.1,14.9Z"/>
      <path class="st2" d="M827.1,51.2c4.4,0,7.5-2,7.5-5.5s-1.8-4-4.6-5.4l-7.2-3.4c-4.7-2.2-8.6-5-8.6-11.1s6.1-12.4,14.2-12.4,9.3,2.1,11.6,4.3v8.3c-3.3-3.3-7.6-5.7-11.9-5.7s-6.3,1.8-6.3,5,1.7,3.6,4.1,4.8l6.7,3.1c6.3,2.9,9.6,5.9,9.6,11.9s-6.7,13-15.2,13-10.3-2.1-13.2-4.3v-8.2c3.8,3.1,8.5,5.7,13.4,5.7h0Z"/>
      <path class="st2" d="M857.2,52.7c0,2.8-2.2,5-5,5h0c-2.8,0-5-2.2-5-5s2.2-5,5-5h0c2.8,0,5,2.2,5,5Z"/>
      <path class="st2" d="M682.6,115.1h-8v-43.2h12.2c9.5,0,16.3,4.9,16.3,13.4s-3.3,9.9-8.5,11.8l13.4,18h-9.3l-12.4-16.7h-3.8v16.7h0ZM682.6,92h4.2c4.9,0,8.2-2.4,8.2-6.7s-3.3-6.8-8.2-6.8h-4.2v13.5Z"/>
      <path class="st2" d="M638.2,71.9h26.6v6.6h-18.8v11.2h17.3v6.7h-17.3v12.1h18.9v6.6h-26.7v-43.2h0Z"/>
      <path class="st2" d="M588.1,93.5c0,12.3-9.8,22.3-22.1,22.3s-22.1-10-22.1-22.3,9.8-22.3,22.1-22.3,22.1,10,22.1,22.3ZM551.9,93.5c0,8.5,6.3,14.9,14.1,14.9s14.1-6.4,14.1-14.9-6.3-14.9-14.1-14.9-14.1,6.4-14.1,14.9Z"/>
      <path class="st2" d="M423.6,71.9c12.3,0,22.2,9.3,22.2,21.6s-9.9,21.6-22.2,21.6h-13.3v-43.2s13.3,0,13.3,0ZM418.3,78.5v29.9h4.8c8.7,0,14.7-6.7,14.7-15s-6-15-14.7-15h-4.8Z"/>
      <path class="st2" d="M461.9,71.9v43.2h-8v-43.2s8,0,8,0Z"/>
      <path class="st2" d="M483.4,109c4.4,0,7.5-2,7.5-5.5s-1.8-4-4.6-5.4l-7.2-3.4c-4.7-2.2-8.6-5-8.6-11.1s6.1-12.4,14.2-12.4,9.3,2.1,11.6,4.3v8.3c-3.3-3.3-7.6-5.7-11.9-5.7s-6.3,1.8-6.3,5,1.7,3.6,4.1,4.8l6.7,3.1c6.3,2.9,9.6,5.9,9.6,11.9s-6.7,13-15.2,13-10.3-2.1-13.2-4.3v-8.2c3.8,3.1,8.5,5.7,13.4,5.7h-.1Z"/>
      <path class="st2" d="M537.7,103.5v9.2c-3.2,2-7,3-11.2,3-12.3,0-22.2-10-22.2-22.3s9.9-22.3,22.2-22.3,8,1.1,11.2,3v9.2c-2.5-2.8-6.4-4.6-11-4.6-8.2,0-14.4,6.4-14.4,14.7s6.3,14.7,14.4,14.7,8.5-1.8,11-4.6h0Z"/>
      <path class="st2" d="M588.8,71.9h8.8l13.4,28.9,13.3-28.9h8.5l-22,44.9-22-44.9Z"/>
      <path class="st2" d="M722.7,115.1v-19.4l-16.1-23.8h9l11.1,16.4,11.2-16.4h9l-16.1,23.8v19.4h-8.1Z"/>
    </g>
    <g>
      <path class="st1" d="M375.3,39.8c-.8,5.7-3.5,24.5-17.3,42.9-14,19-32.3,28.2-37.9,31-5.5-2.8-23.9-12-37.9-31-13.7-18.4-16.4-37.2-17.3-42.9l8.3-4.5v-6.2l8.3-4.5v-6.2c11.4-5.5,24-9,38.5-11,14.5,1.9,27.1,5.5,38.5,11v6.2l8.3,4.5v6.2l8.3,4.5h.2Z"/>
      <path class="st3" d="M374.4,30.9v-6.2l-8.3-4.5v-6.5l-4.2-2c-12-5.7-25.4-9.6-40.7-11.6h-1c0-.1-1,0-1,0-15.4,2-28.7,5.9-40.7,11.6l-4.2,2v6.5l-8.3,4.5v6.2l-9,4.8.7,5.1c2.4,17.2,8.7,32.8,18.7,46.3,10.1,13.7,23.7,24.9,40.5,33.2l3.3,1.7,3.3-1.7c16.8-8.4,30.4-19.6,40.5-33.2,10-13.5,16.3-29.1,18.7-46.3l.7-5.1-9-4.8h0ZM375.3,39.8c-.8,5.7-3.5,24.5-17.3,42.9-14,19-32.3,28.2-37.9,31-5.5-2.8-23.9-12-37.9-31-13.7-18.4-16.4-37.2-17.3-42.9l8.3-4.5v-6.2l8.3-4.5v-6.2c11.4-5.5,24-9,38.5-11,14.5,1.9,27.1,5.5,38.5,11v6.2l8.3,4.5v6.2l8.3,4.5h.2Z"/>
      <path class="st3" d="M307.8,22.4l.4,50.4-.4.2c-5.3-13.5-8.5-30.3-9.5-47.2-2.6,1.2-5.4,2.6-8.3,4.4,1.2,15.3,3.8,28.7,8.5,41.5l-2.7,1.5c-7.1-9.9-11.7-21.9-14.8-36.2-2.2,2-4.3,4.2-6.5,6.6,4.1,17.1,10.7,30.1,20.2,40.6l7.3-4.4c3.6,7.5,8.6,14.9,14.2,20.8V20.9c-2.8.3-5.6.8-8.5,1.5h0Z"/>
      <path class="st3" d="M355.1,48.4c3-3.3,3.6-5.7,3.6-8.6s-3.4-7.8-8.4-11c-3-1.9-7.6-4.2-14.3-6.1-3.8-1-7.9-1.7-12-1.8v79.9c16.8-8.6,36.7-32.3,36.8-44.4,0-3.7-1.9-6.1-5.9-8h.2ZM332.3,30.5c4.1,0,17.5,4.2,17.5,9.6s-1.7,4.7-7,7.5l-10.5,5.6s0-22.7,0-22.7ZM342.8,74.8c-2.4,2.7-6.2,6.9-10.4,10.1v-22.9s15.2-8.5,15.7-8.9c4.5,1.2,4.3,4.5,4.3,4.8,0,4.2-4.3,10.7-9.6,16.9Z"/>
    </g>
  </g>
  <g>
    <g id="Logo">
      <polygon class="st0" points="32.7 32.7 32.7 54.9 44.3 54.9 48.8 50.4 48.8 37.2 44.3 32.7 32.7 32.7"/>
      <polygon class="st0" points="114.2 32.7 114.2 54.9 125.8 54.9 130.3 50.4 130.3 37.2 125.8 32.7 114.2 32.7"/>
      <polygon class="st0" points="32.7 67.2 32.7 89.7 44.3 89.7 48.8 85.2 48.8 71.7 44.3 67.2 32.7 67.2"/>
      <path class="st0" d="M0,0v122.1h163V0H0ZM61,55.6l-5.5,5.5,5.5,5.5v23.5l-11.6,11.6h-29V20.5h29l11.6,11.6v23.5ZM91.6,58l-20.5,20.5v-14.3l20.5-20.5v14.3ZM132.2,102l-9.5-34.8h-8.5v34.8h-12.2V20.5h29l11.6,11.6v23.5l-8.5,8.5,10.1,37.9h-12Z"/>
    </g>
    <g id="Logo1">
      <polygon class="st0" points="32.7 32.7 32.7 54.9 44.3 54.9 48.8 50.4 48.8 37.2 44.3 32.7 32.7 32.7"/>
      <polygon class="st0" points="114.2 32.7 114.2 54.9 125.8 54.9 130.3 50.4 130.3 37.2 125.8 32.7 114.2 32.7"/>
      <polygon class="st0" points="32.7 67.2 32.7 89.7 44.3 89.7 48.8 85.2 48.8 71.7 44.3 67.2 32.7 67.2"/>
      <path class="st0" d="M0,0v122.1h163V0H0ZM61,55.6l-5.5,5.5,5.5,5.5v23.5l-11.6,11.6h-29V20.5h29l11.6,11.6v23.5ZM91.6,58l-20.5,20.5v-14.3l20.5-20.5v14.3ZM132.2,102l-9.5-34.8h-8.5v34.8h-12.2V20.5h29l11.6,11.6v23.5l-8.5,8.5,10.1,37.9h-12Z"/>
    </g>
  </g>
  <polygon class="st0" points="220.2 57.4 220.2 41.6 212.8 41.6 212.8 57.4 197.6 57.4 197.6 64.5 212.8 64.5 212.8 80.5 220.2 80.5 220.2 64.5 235.4 64.5 235.4 57.4 220.2 57.4"/>
</svg>