<?xml version="1.0" encoding="UTF-8"?>
<svg id="Layer_1" xmlns="http://www.w3.org/2000/svg" version="1.1" viewBox="0 0 518 125">
  <!-- Generator: Adobe Illustrator 29.3.1, SVG Export Plug-In . SVG Version: 2.1.0 Build 151)  -->
  <defs>
    <style>
      .st0 {
        fill: #ef3d52;
      }
    </style>
  </defs>
  <path class="st0" d="M230.1,34.5c-16.9,0-28.7,13.1-28.7,28.8s12.6,28.3,27.7,28.3,29.8-12.7,29.8-28.3-11.2-28.8-28.7-28.8ZM231.8,76.8c-5.6,0-11.1-4.8-11.1-10.7s5.5-10.7,11.1-10.7,10.4,4.8,10.4,10.7-4.7,10.7-10.4,10.7Z"/>
  <path class="st0" d="M449.6,35.7c8.9,1,13.6-7.4,14.4-14.7,0-.6.1-2.6.1-2.6-2.9-18.4-26-13.4-27.7,3.6,0,.7-.2,3.9-.3,4.7,1.4,5.4,8.3,8.4,13.5,9Z"/>
  <path class="st0" d="M123.5,34.5c-16.9,0-28.7,13.1-28.7,28.8s12.6,28.3,27.7,28.3,29.8-12.7,29.8-28.3-11.2-28.8-28.7-28.8ZM125.3,76.8c-5.6,0-11.1-4.8-11.1-10.7s5.5-10.7,11.1-10.7,10.4,4.8,10.4,10.7-4.7,10.7-10.4,10.7Z"/>
  <polygon class="st0" points="187.1 42.6 191.8 18.3 169 9.5 164.7 42.2 150.4 41.6 153.8 57.1 162.1 58 156.3 106.1 173.8 102 182.8 61.2 199.4 63.7 198.8 42.7 187.1 42.6"/>
  <path class="st0" d="M296.7,30c-.6,0-1.2.1-1.9,0-6.8.4-16.6,3.8-20,9-.2-2.7-.3-4.1-.5-6.9,0,0-.4-.4-.5-.4-.1-.1-.7-.2-.9-.2-4.9.4-7.4.6-12.3,1-.9,0-.7,1.3-.7,1.3,0,0,3.5,47.7,5.2,71.5.8,7.9,1.5,14,1.5,14.1.2.1.3.2.5.3,1.8-.2,2.7-.3,4.4-.5,2.2-.2,7.7-.8,7.7-.8.1-.2.2-.3.4-.5,0-.3-.3-6.3-.4-8.4-1.1-14.9-1.2-17.2-2.8-32,17.7,9.3,42.4,3.2,43-20,0-.8,0-1.6,0-2.6-.7-13.4-8.7-24.9-22.5-25ZM298.2,60.7c-3.9,16.1-20.9,4.9-20.9,4.9l-.8-14s5.3-4.8,11.1-4.6c5.9.2,13,3.6,10.6,13.7Z"/>
  <path class="st0" d="M514.1,87.5l-17.2,7c2.6-7.7,5.3-16.1,6.8-21.3.1-.4.2-.6.3-1,3.4-11.9,3.7-25.5-12.2-30.3-9.6-2.9-17.7-2.6-27.7,2.6-1,.8-3.3,1.9-3.6,3,0,.2,7.4,11.8,7.4,11.8,0,0,7.4-5.8,16.4-2.5,9,3.3,4.1,12.6,4.1,12.6,0,0-11-2.8-16.1-2.6-12.8.5-21,8-24.1,18.8,0,.3-.1.5-.2.8-1.6,6.8.9,14.4,9.5,16.9,5.4,1.6,11.3,3,16.5,1.5,2.4-.5,3.4-1.7,5.5-2.4,1.8,9.9,11.4,9.9,11.4,9.9l27.2-8.6-3.9-16.2ZM482,92.6c-.3.9-.4,1.3-.7,2.2-.4,1.4-17.8,6.7-19.5-4-.3-1.8,2.6-11.9,20.5-6.4,2,.6.6,5.3-.3,8.3Z"/>
  <path class="st0" d="M342.8,79c-10.1-5.2-6.5-9.9-6.5-9.9,0,0,22.7-3.5,37.1-5.4,1.6-16.6-7-34.5-26.3-32.2-19,2.3-28.7,20.3-26.5,38.1,1.4,11.2,5.4,24.6,20.1,26,13,1.2,21.5,0,30.3-10.2,0-.2,0-.6,0-.6l-4.6-13.6s-13.5,13-23.6,7.7ZM348.2,46.8c11.7-.9,13.2,10.8,13.2,10.8l-25,3s0-12.8,11.7-13.8Z"/>
  <path class="st0" d="M407.6,5.6l3.3,46.8s-37-8.8-38.6,24.6c0,.8,0,1.6,0,2.2.2,9.3,6.8,18.6,17.4,19.4,17,1.5,21.2-4,21.2-4,0,0,.1,8.1,1.2,8.5.4,0,1.5.3,1.8.3,2,.2,9.8.7,10.8-.5,0-.6,0-.9.1-1.5,1.2-12.2,1.8-24.3,3-36.1,2-18.8,6.7-60.1,6.7-60.1l-26.8.4ZM390.9,81.2c-1.3-11.5,6.7-13.7,16.9-13.9.9,0,1.9,0,2.9,0,.1,0,.2,13.2.2,17.8s-18.7,7.5-20-4.1Z"/>
  <path class="st0" d="M434.4,40.1l-4.3,59.1c0,.1,11.3,1.9,11.3,1.9l12.8-57.9-19.8-3.1Z"/>
  <path class="st0" d="M73.3,18.1C60.5,7.5,44.9,2.6,26.7,3.3c-9.6.4-18.5,2.2-26.7,5.6l28.8,107c17.3-1,32.2-7.1,44.6-18.2,12.9-11.5,19.3-25,19.3-40.5s-6.4-28.6-19.3-39.2ZM56.8,86.4c-3.4,3.1-7.2,5.4-11.4,7l-4-54.7c5.8,1,10.9,3.3,15.4,7,6.5,5.4,9.8,12.1,9.8,20s-3.3,14.9-9.8,20.7Z"/>
</svg>