<?xml version="1.0" encoding="UTF-8"?>
<svg id="Layer_1" xmlns="http://www.w3.org/2000/svg" version="1.1" viewBox="0 0 234.9 426.8">
  <!-- Generator: Adobe Illustrator 29.1.0, SVG Export Plug-In . SVG Version: 2.1.0 Build 142)  -->
  <defs>
    <style>
      .st0 {
        fill: #0071ce;
      }

      .st1 {
        fill: #fff;
      }

      .st2 {
        fill: #d9272e;
      }
    </style>
  </defs>
  <g>
    <path class="st0" d="M41,156.5c-13.1,13.1-27.9,18.6-41,13.1v100.4h234.5v-104.2c-20.4,22.4-44.6,13.1-42.8-7.3-35.5,42.8-55.9,18.6-50.3,2-33.5,39.2-53.9,16.8-44.6-3.8-40.8,50.1-68.8,31.5-55.9-.2h.1Z"/>
    <path class="st2" d="M124.8,22.4C128.6,13.1,124.8,2,121,0c14.9,2,27.9,22.4,27.9,44.6s-31.7,52.3-29.7,78.1c7.3-35.5,59.6-55.9,48.5-93.1,16.8,9.3,22.4,37.2,26.1,57.7,5.7-20.4,35.5-33.5,41-50.3v108H.2v-55.9C.2,55.5,57.8,57.3,54.1,25.6c16.8,27.9-9.3,50.3-5.7,68.9,15.2-53.4,65.4-38.7,76.5-72.2h0Z"/>
  </g>
  <g>
    <path class="st1" d="M22.6,344.7H0v-2.4c2.4,0,4.1-.2,5.2-.5s1.8-1.1,2-2.2c.3-1.2.4-2.9.4-5.2v-31.1c0-2.1,0-3.7-.4-4.8-.3-1.2-.9-2-2-2.5s-2.8-.7-5.2-.7v-2.4h22.6v2.4c-2.5,0-4.3.2-5.4.7-1.1.5-1.8,1.3-2,2.5s-.4,2.8-.4,4.8v13.2h25.9v-13.2c0-2.1,0-3.7-.4-4.8-.3-1.2-.9-2-2-2.5s-2.8-.7-5.2-.7v-2.4h22.5v2.4c-2.5,0-4.3.2-5.4.7-1.1.5-1.8,1.3-2,2.4-.2,1.2-.4,2.8-.4,4.9v31.1c0,2.3,0,4,.4,5.1.3,1.2,1,1.9,2.1,2.3s2.8.6,5.2.6v2.4h-22.5v-2.4c2.4,0,4.1-.2,5.2-.6,1.1-.4,1.8-1.1,2-2.3.3-1.2.4-2.9.4-5.1v-14.7H14.9v14.7c0,2.3.1,4,.4,5.2.3,1.1,1,1.9,2.1,2.2,1.1.4,2.8.6,5.2.6v2.4h0Z"/>
    <path class="st1" d="M70.8,345.2c-3,0-5.4-.8-7-2.5s-2.4-3.8-2.4-6.3.5-3.9,1.5-5.3,2.3-2.7,3.9-3.7,3.3-1.8,5.2-2.5c1.9-.7,3.7-1.3,5.5-1.7,1.8-.5,3.4-.9,4.7-1.3v-3.5c0-3.4-.6-5.8-1.8-7.3-1.2-1.4-3-2.2-5.3-2.2s-3.7.5-4.3,1.4-.9,2.6-.9,5-.3,2.1-.9,2.7-1.5.9-2.6.9-1.5-.3-2.2-.9c-.7-.6-1.1-1.6-1.1-2.9s.6-2.9,1.7-4.2c1.1-1.3,2.7-2.4,4.8-3.2,2.1-.8,4.5-1.3,7.4-1.3,4.3,0,7.4,1,9.1,3,1.8,2,2.7,5,2.7,9.1v17.9c0,1.6.2,2.7.6,3.2s1,.7,1.8.7,1.4-.2,2-.6,1.2-.8,1.7-1.4l1.2,1.3c-1.3,1.9-2.6,3.3-3.7,4.1s-2.8,1.3-4.8,1.3-3-.5-3.6-1.6-1-2.5-1.2-4.5l-.5-.9v-13.6c-2.4.6-4.6,1.3-6.7,2.1-2.1.8-3.8,1.8-5.1,3.1-1.3,1.3-2,2.9-2,5s.5,3.5,1.6,4.7,2.4,1.7,4.1,1.7,2.8-.3,4.3-1,3-1.7,4.4-2.9l.6,2.8h-.9c-1.2,1.1-2.4,2-3.5,2.8s-2.3,1.5-3.6,1.9c-1.3.4-2.8.7-4.5.7h-.2Z"/>
    <path class="st1" d="M118.3,344.7h-19.7v-2.3c1.7,0,3-.1,3.8-.4s1.3-.8,1.6-1.6c.2-.8.4-1.9.4-3.3v-21.7c0-1.4,0-2.5-.4-3.2-.2-.7-1.1-1.1-2.5-1.1s-1.6,0-2.4.2v-2.2l9.8-2.4h1.9v8.1h.2c1.4-1.9,2.6-3.5,3.6-4.8,1.1-1.3,2.1-2.2,3.1-2.8,1-.6,2.2-.9,3.4-.9s2.7.4,3.4,1.2c.8.8,1.1,1.9,1.1,3.2s-.4,2.6-1.1,3.2c-.7.7-1.5,1-2.4,1s-1.6-.2-2.2-.7c-.7-.4-1.2-.9-1.7-1.3s-.9-.7-1.2-.7c-.9,0-1.9.7-3.1,2-1.2,1.4-2.2,2.8-3.2,4.4v18c0,1.6.2,2.9.6,3.7.4.8,1.2,1.4,2.2,1.7,1.1.3,2.6.4,4.5.4v2.3h.3Z"/>
    <path class="st1" d="M147.9,362h-19.9v-2.2c2.5,0,4-.4,4.7-1.2.7-.8,1-2.3,1-4.5v-39c0-1.5-.2-2.6-.5-3.2s-1.2-.9-2.5-.9-1.4,0-2.5.2v-2.3l9.9-2.2h2v6.6h.2c1.9-2.2,3.8-3.9,5.8-5.1s4.1-1.8,6.4-1.8,4.9.7,6.9,2.2,3.5,3.6,4.7,6.2c1.1,2.7,1.7,5.7,1.7,9.2s-.8,8.3-2.3,11.5c-1.6,3.2-3.6,5.6-6.3,7.3-2.6,1.7-5.5,2.6-8.7,2.6s-2.9-.2-4.2-.5-2.6-.9-3.7-1.7h-.3v10.3c0,1.7.2,3,.6,3.9.4.9,1.2,1.5,2.3,1.8s2.7.5,4.7.5v2.3h0ZM148.9,342.4c2.8,0,5.1-1.3,6.9-3.9,1.8-2.6,2.8-6.7,2.8-12.1s-.8-8.7-2.4-11c-1.6-2.3-3.9-3.5-6.9-3.5s-4,.6-5.6,1.7-2.8,2.2-3.5,3.2v20.6c.5.5,1.2,1.2,2,2.1.8.8,1.7,1.6,2.8,2.2s2.4.9,3.9.9v-.2Z"/>
    <path class="st1" d="M188,345.5c-3.2,0-6-.7-8.6-2.2s-4.6-3.7-6-6.6c-1.5-2.9-2.2-6.5-2.2-10.7s.7-8.1,2.2-10.9c1.5-2.9,3.5-5,6-6.4s5.3-2.1,8.4-2.1,7.8,1.5,10.4,4.5c2.6,3,4,7.3,4.3,12.8h-25.6v-2.9h18.2c0-1.9-.4-3.8-1-5.5s-1.6-3.1-2.8-4.1c-1.2-1.1-2.8-1.6-4.7-1.6-3,0-5.3,1.2-6.9,3.6-1.5,2.4-2.3,5.8-2.3,10.1s.6,6.7,1.7,9.1c1.2,2.4,2.7,4.2,4.6,5.4s3.9,1.8,6.1,1.8,3.9-.3,5.2-.9,2.5-1.3,3.4-2.2c.9-.9,1.8-1.9,2.7-3l1.5,1.1c-.7,1.5-1.5,2.9-2.4,4.2-.9,1.3-1.9,2.5-3,3.5s-2.5,1.8-4,2.4-3.3.9-5.4.9l.2-.3Z"/>
    <path class="st1" d="M227.1,344.7h-19.7v-2.3c1.7,0,3-.1,3.8-.4s1.3-.8,1.6-1.6c.2-.8.4-1.9.4-3.3v-21.7c0-1.4-.1-2.5-.4-3.2-.2-.7-1.1-1.1-2.5-1.1s-1.6,0-2.4.2v-2.2l9.8-2.4h1.9v8.1h.2c1.4-1.9,2.6-3.5,3.6-4.8,1.1-1.3,2.1-2.2,3.1-2.8,1-.6,2.2-.9,3.4-.9s2.7.4,3.4,1.2c.8.8,1.1,1.9,1.1,3.2s-.4,2.6-1.1,3.2c-.7.7-1.5,1-2.4,1s-1.6-.2-2.2-.7c-.7-.4-1.2-.9-1.7-1.3s-.9-.7-1.2-.7c-.9,0-1.9.7-3.1,2-1.2,1.4-2.2,2.8-3.2,4.4v18c0,1.6.2,2.9.6,3.7s1.2,1.4,2.2,1.7c1.1.3,2.6.4,4.5.4v2.3h.3Z"/>
    <path class="st1" d="M25.9,426.8c-5.4,0-10-1.2-13.6-3.5-3.7-2.3-6.5-5.5-8.3-9.5-1.9-4-2.8-8.6-2.8-13.7s1.1-10.6,3.3-14.6,5.3-7,9.1-9.1c3.9-2.1,8.4-3.2,13.4-3.2s5,.2,6.7.7,3,.9,4,1.4,1.8.7,2.4.7,1.1-.3,1.5-.8c.3-.6.7-1.2,1.2-2h2.4v18.1h-2.7c-.8-5.2-2.6-8.9-5.3-11.2-2.7-2.3-6.1-3.5-10.1-3.5s-10.1,2-13.1,6.1c-3.1,4-4.6,9.6-4.6,16.6s.8,9.5,2.4,12.9c1.6,3.3,3.8,5.8,6.7,7.3,2.8,1.6,6.1,2.4,9.8,2.4s6.8-.7,9.5-2,5.2-3.2,7.4-5.6l1.9,1.7c-1.4,2.1-3.1,4-5.1,5.6-2,1.7-4.3,3-6.9,3.9-2.6.9-5.7,1.4-9.1,1.4h-.1Z"/>
    <path class="st1" d="M70.3,426.7c-5.5,0-9.8-1.7-13-5.2-3.1-3.4-4.7-8.3-4.7-14.7s.7-7.2,2.2-10.1,3.5-5.1,6.2-6.7,5.7-2.4,9.3-2.4c5.4,0,9.7,1.7,12.8,5,3.1,3.4,4.7,8,4.7,13.8s-.7,8.1-2.2,11.1-3.6,5.3-6.2,6.8-5.7,2.3-9.1,2.3h0ZM70.6,423.6c2.2,0,4-.5,5.4-1.5,1.5-1,2.6-2.7,3.4-5.1s1.1-5.8,1.1-10-.9-8.8-2.6-11.7c-1.8-3-4.4-4.5-7.9-4.5s-5.4,1.3-7.3,3.8c-1.8,2.5-2.8,6.3-2.8,11.4s.9,10.8,2.8,13.6c1.9,2.8,4.5,4.2,7.8,4.1h0Z"/>
    <path class="st1" d="M111,425.9h-18.1v-2.3c1.7,0,3-.2,3.8-.5s1.3-.9,1.5-1.7c.2-.8.3-2,.3-3.4v-39.6c0-1.6-.3-2.6-.9-2.9s-1.4-.5-2.4-.5-1.5,0-2.5.2v-2.1l10.4-2.8h2v47.7c0,1.5,0,2.7.4,3.5.2.8.8,1.4,1.6,1.7.8.3,2.2.5,4.1.5v2.3h-.2Z"/>
    <path class="st1" d="M133.3,425.9h-18.1v-2.3c1.7,0,3-.2,3.8-.5s1.3-.9,1.5-1.7c.2-.8.3-2,.3-3.4v-39.6c0-1.6-.3-2.6-.9-2.9s-1.4-.5-2.4-.5-1.5,0-2.5.2v-2.1l10.4-2.8h2v47.7c0,1.5,0,2.7.4,3.5.2.8.8,1.4,1.6,1.7.8.3,2.2.5,4.1.5v2.3h-.2Z"/>
    <path class="st1" d="M155.4,425.9h-17.7v-2.2c1.8,0,3.1-.2,3.8-.5.8-.3,1.2-.9,1.4-1.8.2-.8.3-2,.3-3.5v-22c0-1.7-.3-2.7-.9-3.1-.6-.4-1.4-.6-2.6-.6s-1.2,0-2,.2v-2.3l9.9-2.2h2v30c0,1.5.1,2.7.3,3.5s.7,1.4,1.5,1.7c.8.3,2.1.5,3.8.5v2.2h.2ZM146.6,381.8c-1.3,0-2.4-.4-3.2-1.3s-1.3-1.9-1.3-3.2.4-2.2,1.2-3.1,1.9-1.3,3.3-1.3,2.5.4,3.3,1.3,1.2,1.9,1.2,3.1-.4,2.3-1.2,3.2c-.8.9-1.9,1.3-3.3,1.3Z"/>
    <path class="st1" d="M178.2,425.9h-18.1v-2.2c1.8,0,3.1-.2,3.8-.5.8-.3,1.2-.9,1.4-1.8.2-.8.3-2,.3-3.5v-22.2c0-1.4-.3-2.4-.9-2.8-.6-.4-1.4-.7-2.4-.7s-1.4,0-2.1.2v-2.3l10-2.3h1.8v7.3l.2,1.7v21.1c0,1.5.1,2.6.3,3.5.2.8.7,1.4,1.6,1.8.8.3,2.2.5,4.1.5v2.2h0ZM201.4,425.9h-18.2v-2.2c1.9,0,3.2-.2,4.1-.5.8-.3,1.3-.9,1.5-1.8.2-.8.3-2,.3-3.5v-14.3c0-3.2-.4-5.5-1.1-7.1-.7-1.6-1.6-2.6-2.7-3.1-1.1-.5-2.3-.7-3.5-.7s-2.9.3-4.1.9c-1.2.6-2.3,1.3-3.3,2.2-1,.8-1.9,1.6-2.7,2.4l-.6-3.9h1.2c2.2-1.9,4.2-3.5,6.1-4.7,1.9-1.3,4.1-1.9,6.6-1.9,3.6,0,6.2,1.2,8,3.6,1.7,2.4,2.6,5.9,2.6,10.4v16.2c0,1.5.1,2.6.4,3.5.2.8.8,1.4,1.6,1.8.8.3,2.1.5,3.9.5v2.2h-.1Z"/>
    <path class="st1" d="M206.3,426.6l-.2-13.6h2.1c.8,4,2.1,6.9,3.7,8.5,1.6,1.6,3.9,2.4,6.8,2.4s3.6-.4,4.9-1.2c1.3-.8,1.9-2.1,1.9-4s-.2-2.3-.7-3.2c-.4-.8-1.3-1.7-2.6-2.6s-3.1-1.9-5.6-3.1c-2.4-1.2-4.4-2.4-5.9-3.5s-2.7-2.4-3.4-3.7c-.7-1.4-1.1-3-1.1-5,0-3.3,1.2-5.7,3.5-7.4,2.3-1.7,5.2-2.5,8.6-2.5s3.6.2,4.9.7c1.3.4,2.4.9,3.4,1.4h0l1.3-1.7h1.6l.2,12.1h-2.1c-.8-3.7-2-6.3-3.5-7.7-1.5-1.4-3.5-2.1-5.9-2.1s-3.3.4-4.5,1.3c-1.2.8-1.9,2.2-1.9,3.9s.7,2.9,2.1,4.1c1.4,1.2,3.8,2.7,7.1,4.3,2.4,1.3,4.4,2.5,6.1,3.7,1.6,1.2,2.9,2.5,3.7,3.9s1.3,3.1,1.3,5-.6,4.5-1.8,6-2.8,2.6-4.8,3.3c-2,.7-4.2,1-6.6,1s-4.1-.2-5.4-.7c-1.3-.5-2.5-.9-3.6-1.3h-.2l-1.7,1.8h-1.7Z"/>
  </g>
</svg>