<?xml version="1.0" encoding="UTF-8"?>
<svg id="svg52534" xmlns="http://www.w3.org/2000/svg" xmlns:xlink="http://www.w3.org/1999/xlink" xmlns:svg="http://www.w3.org/2000/svg" xmlns:rdf="http://www.w3.org/1999/02/22-rdf-syntax-ns#" xmlns:dc="http://purl.org/dc/elements/1.1/" xmlns:cc="http://creativecommons.org/ns#" version="1.1" viewBox="0 0 1386.4 675.2">
  <!-- Generator: Adobe Illustrator 29.2.0, SVG Export Plug-In . SVG Version: 2.1.0 Build 108)  -->
  <defs>
    <style>
      .st0 {
        fill: none;
      }

      .st1 {
        fill: gray;
      }

      .st2 {
        fill: #231f20;
      }

      .st3 {
        fill: url(#linear-gradient);
      }

      .st4 {
        clip-path: url(#clippath-1);
      }

      .st5 {
        fill: #d81942;
      }

      .st6 {
        fill: #0022af;
      }

      .st7 {
        fill: #c41230;
      }

      .st8 {
        fill: #ffc200;
      }

      .st9 {
        clip-path: url(#clippath);
      }
    </style>
    <linearGradient id="linear-gradient" x1="427.3" y1="387.1" x2="537.5" y2="387.1" gradientTransform="translate(0 544.1) scale(1 -1)" gradientUnits="userSpaceOnUse">
      <stop offset="0" stop-color="#4047ff"/>
      <stop offset="1" stop-color="#04006c"/>
    </linearGradient>
    <clipPath id="clippath">
      <rect class="st0" x="681.6" y="282.9" width="173.2" height="182.6"/>
    </clipPath>
    <clipPath id="clippath-1">
      <rect class="st0" x="867.7" y="335.8" width="316" height="76.9"/>
    </clipPath>
  </defs>
  <g>
    <g>
      <g>
        <path class="st6" d="M585.5,155.5l-18.3-44.9h8.6l10.5,26.8,11.5-28,11.4,28,10.4-26.8h8.3l-18.3,44.9-12.1-28.9-12,28.9Z"/>
        <path class="st6" d="M667.2,153.8h-8.4l-4.4-9.3h-18.4l-4.4,9.3h-8.5l22-44.9,22,44.9h0ZM639,138.3h12.6l-6.3-13.4-6.3,13.4h0Z"/>
        <path class="st6" d="M680.8,153.8h-8v-43.2h12.2c9.5,0,16.3,4.9,16.3,13.4s-3.3,9.9-8.5,11.8l13.4,18h-9.3l-12.4-16.7h-3.8v16.7h.1ZM680.8,130.7h4.2c4.9,0,8.2-2.4,8.2-6.7s-3.3-6.8-8.2-6.8h-4.2v13.5h0Z"/>
        <path class="st6" d="M805.7,153.8h-8v-43.2h12.2c9.5,0,16.3,4.9,16.3,13.4s-3.3,9.9-8.5,11.8l13.4,18h-9.3l-12.4-16.7h-3.8v16.7h0ZM805.7,130.7h4.2c4.9,0,8.2-2.4,8.2-6.7s-3.3-6.8-8.2-6.8h-4.2v13.5Z"/>
        <path class="st6" d="M743.5,110.6h7.8v44.8l-30.4-29.3v27.6h-7.8v-44.7l30.4,29.3v-27.7Z"/>
        <path class="st6" d="M761.8,110.6h26.6v6.6h-18.8v11.2h17.3v6.7h-17.3v12.1h18.9v6.6h-26.7v-43.2h0Z"/>
        <path class="st6" d="M852.3,110.6h12.4c9.6,0,14.7,4.5,14.7,11.4s-2.7,7.6-6,9c4.9,1.3,8.7,5,8.7,10.5s-5.9,12.3-15.3,12.3h-14.5v-43.2h0ZM864.2,128.9c4.5,0,7.3-2,7.3-5.8s-2.8-5.9-7.3-5.9h-4.1v11.6h4.1ZM866.3,147.2c4.6,0,7.6-2.4,7.6-6.2s-3.1-6.2-7.6-6.2h-6.2v12.4s6.2,0,6.2,0Z"/>
        <path class="st6" d="M898.4,153.8h-8v-43.2h12.2c9.5,0,16.3,4.9,16.3,13.4s-3.3,9.9-8.5,11.8l13.4,18h-9.3l-12.4-16.7h-3.8v16.7h0ZM898.4,130.7h4.2c4.9,0,8.2-2.4,8.2-6.7s-3.3-6.8-8.2-6.8h-4.2v13.5Z"/>
        <path class="st6" d="M970.5,132.2c0,12.3-9.8,22.3-22.1,22.3s-22.1-10-22.1-22.3,9.8-22.3,22.1-22.3,22.1,10,22.1,22.3ZM934.4,132.2c0,8.5,6.3,14.9,14.1,14.9s14.1-6.4,14.1-14.9-6.3-14.9-14.1-14.9-14.1,6.4-14.1,14.9Z"/>
        <path class="st6" d="M989.3,147.7c4.4,0,7.5-2,7.5-5.5s-1.8-4-4.6-5.4l-7.2-3.4c-4.7-2.2-8.6-5-8.6-11.1s6.1-12.4,14.2-12.4,9.3,2.1,11.6,4.3v8.3c-3.3-3.3-7.6-5.7-11.9-5.7s-6.3,1.8-6.3,5,1.7,3.6,4.1,4.8l6.7,3.1c6.3,2.9,9.6,5.9,9.6,11.9s-6.7,13-15.2,13-10.3-2.1-13.2-4.3v-8.2c3.8,3.1,8.5,5.7,13.4,5.7h0Z"/>
        <path class="st6" d="M1019.4,149.2c0,2.8-2.2,5-5,5h0c-2.8,0-5-2.2-5-5s2.2-5,5-5h0c2.8,0,5,2.2,5,5Z"/>
        <path class="st6" d="M844.8,211.6h-8v-43.2h12.2c9.5,0,16.3,4.9,16.3,13.4s-3.3,9.9-8.5,11.8l13.4,18h-9.3l-12.4-16.7h-3.8v16.7h0ZM844.8,188.5h4.2c4.9,0,8.2-2.4,8.2-6.7s-3.3-6.8-8.2-6.8h-4.2v13.5Z"/>
        <path class="st6" d="M800.4,168.4h26.6v6.6h-18.8v11.2h17.3v6.7h-17.3v12.1h18.9v6.6h-26.7v-43.2h0Z"/>
        <path class="st6" d="M750.3,190c0,12.3-9.8,22.3-22.1,22.3s-22.1-10-22.1-22.3,9.8-22.3,22.1-22.3,22.1,10,22.1,22.3ZM714.1,190c0,8.5,6.3,14.9,14.1,14.9s14.1-6.4,14.1-14.9-6.3-14.9-14.1-14.9-14.1,6.4-14.1,14.9Z"/>
        <path class="st6" d="M585.8,168.4c12.3,0,22.2,9.3,22.2,21.6s-9.9,21.6-22.2,21.6h-13.3v-43.2s13.3,0,13.3,0ZM580.5,175v29.9h4.8c8.7,0,14.7-6.7,14.7-15s-6-15-14.7-15h-4.8Z"/>
        <path class="st6" d="M624.1,168.4v43.2h-8v-43.2s8,0,8,0Z"/>
        <path class="st6" d="M645.6,205.5c4.4,0,7.5-2,7.5-5.5s-1.8-4-4.6-5.4l-7.2-3.4c-4.7-2.2-8.6-5-8.6-11.1s6.1-12.4,14.2-12.4,9.3,2.1,11.6,4.3v8.3c-3.3-3.3-7.6-5.7-11.9-5.7s-6.3,1.8-6.3,5,1.7,3.6,4.1,4.8l6.7,3.1c6.3,2.9,9.6,5.9,9.6,11.9s-6.7,13-15.2,13-10.3-2.1-13.2-4.3v-8.2c3.8,3.1,8.5,5.7,13.4,5.7h-.1Z"/>
        <path class="st6" d="M699.9,200v9.2c-3.2,2-7,3-11.2,3-12.3,0-22.2-10-22.2-22.3s9.9-22.3,22.2-22.3,8,1.1,11.2,3v9.2c-2.5-2.8-6.4-4.6-11-4.6-8.2,0-14.4,6.4-14.4,14.7s6.3,14.7,14.4,14.7,8.5-1.8,11-4.6h0Z"/>
        <path class="st6" d="M751,168.4h8.8l13.4,28.9,13.3-28.9h8.5l-22,44.9-22-44.9Z"/>
        <path class="st6" d="M884.9,211.6v-19.4l-16.1-23.8h9l11.1,16.4,11.2-16.4h9l-16.1,23.8v19.4h-8.1Z"/>
      </g>
      <g>
        <path class="st3" d="M537.5,136.3c-.8,5.7-3.5,24.5-17.3,42.9-14,19-32.3,28.2-37.9,31-5.5-2.8-23.9-12-37.9-31-13.7-18.4-16.4-37.2-17.3-42.9l8.3-4.5v-6.2l8.3-4.5v-6.2c11.4-5.5,24-9,38.5-11,14.5,1.9,27.1,5.5,38.5,11v6.2l8.3,4.5v6.2l8.3,4.5h.2Z"/>
        <path class="st8" d="M536.6,127.4v-6.2l-8.3-4.5v-6.5l-4.2-2c-12-5.7-25.4-9.6-40.7-11.6h-1c0-.1-1,0-1,0-15.4,2-28.7,5.9-40.7,11.6l-4.2,2v6.5l-8.3,4.5v6.2l-9,4.8.7,5.1c2.4,17.2,8.7,32.8,18.7,46.3,10.1,13.7,23.7,24.9,40.5,33.2l3.3,1.7,3.3-1.7c16.8-8.4,30.4-19.6,40.5-33.2,10-13.5,16.3-29.1,18.7-46.3l.7-5.1-9-4.8h0ZM537.5,136.3c-.8,5.7-3.5,24.5-17.3,42.9-14,19-32.3,28.2-37.9,31-5.5-2.8-23.9-12-37.9-31-13.7-18.4-16.4-37.2-17.3-42.9l8.3-4.5v-6.2l8.3-4.5v-6.2c11.4-5.5,24-9,38.5-11,14.5,1.9,27.1,5.5,38.5,11v6.2l8.3,4.5v6.2l8.3,4.5h.2Z"/>
        <path class="st8" d="M470,118.9l.4,50.4-.4.2c-5.3-13.5-8.5-30.3-9.5-47.2-2.6,1.2-5.4,2.6-8.3,4.4,1.2,15.3,3.8,28.7,8.5,41.5l-2.7,1.5c-7.1-9.9-11.7-21.9-14.8-36.2-2.2,2-4.3,4.2-6.5,6.6,4.1,17.1,10.7,30.1,20.2,40.6l7.3-4.4c3.6,7.5,8.6,14.9,14.2,20.8v-79.7c-2.8.3-5.6.8-8.5,1.5h0Z"/>
        <path class="st8" d="M517.3,144.9c3-3.3,3.6-5.7,3.6-8.6s-3.4-7.8-8.4-11c-3-1.9-7.6-4.2-14.3-6.1-3.8-1-7.9-1.7-12-1.8v79.9c16.8-8.6,36.7-32.3,36.8-44.4,0-3.7-1.9-6.1-5.9-8h.2ZM494.5,127c4.1,0,17.5,4.2,17.5,9.6s-1.7,4.7-7,7.5l-10.5,5.6s0-22.7,0-22.7ZM505,171.3c-2.4,2.7-6.2,6.9-10.4,10.1v-22.9s15.2-8.5,15.7-8.9c4.5,1.2,4.3,4.5,4.3,4.8,0,4.2-4.3,10.7-9.6,16.9Z"/>
      </g>
    </g>
    <g>
      <g id="Logo">
        <polygon class="st2" points="178.3 130.6 178.3 151.7 189.4 151.7 193.6 147.4 193.6 134.8 189.4 130.6 178.3 130.6"/>
        <polygon class="st2" points="255.8 130.6 255.8 151.7 266.8 151.7 271.1 147.4 271.1 134.8 266.8 130.6 255.8 130.6"/>
        <polygon class="st2" points="178.3 163.4 178.3 184.7 189.4 184.7 193.6 180.5 193.6 167.6 189.4 163.4 178.3 163.4"/>
        <path class="st2" d="M147.2,99.5v116.1h155v-116.1h-155ZM205.2,152.3l-5.2,5.2,5.2,5.2v22.3l-11,11h-27.6v-77.2h27.6l11,11v22.3ZM234.3,154.6l-19.5,19.5v-13.6l19.5-19.5v13.6ZM272.9,196.4l-9-33.1h-8.1v33.1h-11.6v-77.5h27.6l11,11v22.3l-8.1,8.1,9.6,36h-11.4Z"/>
      </g>
      <g id="Logo1">
        <polygon class="st2" points="178.3 130.6 178.3 151.7 189.4 151.7 193.6 147.4 193.6 134.8 189.4 130.6 178.3 130.6"/>
        <polygon class="st2" points="255.8 130.6 255.8 151.7 266.8 151.7 271.1 147.4 271.1 134.8 266.8 130.6 255.8 130.6"/>
        <polygon class="st2" points="178.3 163.4 178.3 184.7 189.4 184.7 193.6 180.5 193.6 167.6 189.4 163.4 178.3 163.4"/>
        <path class="st2" d="M147.2,99.5v116.1h155v-116.1h-155ZM205.2,152.3l-5.2,5.2,5.2,5.2v22.3l-11,11h-27.6v-77.2h27.6l11,11v22.3ZM234.3,154.6l-19.5,19.5v-13.6l19.5-19.5v13.6ZM272.9,196.4l-9-33.1h-8.1v33.1h-11.6v-77.5h27.6l11,11v22.3l-8.1,8.1,9.6,36h-11.4Z"/>
      </g>
    </g>
    <polygon class="st2" points="368.4 153.9 368.4 138.1 361 138.1 361 153.9 345.8 153.9 345.8 161 361 161 361 177 368.4 177 368.4 161 383.6 161 383.6 153.9 368.4 153.9"/>
  </g>
  <g>
    <g id="layer1">
      <g id="g52419">
        <path id="path6492" class="st1" d="M170.8,402.3h377v2.2H170.8v-2.2Z"/>
        <g id="g6494">
          <path id="path6496" class="st5" d="M205.6,309.9c-2.3,7-28.4,58.2-47,84-5.5,7.4-12.1,15.5-20.2,20.6-1.9,1-4.2,2.3-6.4,1-7.4-5.1-9.1-13.6-11.2-21.5-2.2-11.4-3.2-26.8,5.9-35.5,11.8-11.1,25-18.3,40.3-22.5l-3.6,6.3c-1.3.1-2.5.4-4.5,1-9.8,3.8-19.3,10.4-25.8,19.4-6.3,9.5-4,23.9-.9,34,2.1,6.2,6.7,10.1,6.7,10.1,22.5-29.6,39-63.4,53.8-96.3,3.9-2.4,8.2-5.6,13.2-4.2,0,0,.9.6,0,3.5"/>
        </g>
        <g id="g6498">
          <path id="path6500" class="st5" d="M216.9,334.9c0,1.7-1.8,2.3-2.9,3.4-3.6,2.3-7.6,3.7-11.7,5l-1-1.1,6-7.2c3.2-.5,6.2-1.1,9.2-.7l.5.6Z"/>
        </g>
        <g id="g6502">
          <path id="path6504" class="st5" d="M232,349.6c-1.1,2.3-4.8,9-7.3,14.1,5.3-6,12.1-11.2,19.7-12.9,2-.4,6.4-.9,5.5,2.2-1.4,4.7-3.2,8.1-4.8,12.8,5.1-3.1,9.9-7.5,16-8.2.6.1,1.2.4,1.6.9.8,9.3,1.7,16.1,4.3,24.3.8,2.9,1.2,4.1,4.6,4.4h1.9c0,0,0,2.7,0,2.7-3.6,1.4-5.6,1.8-9.1,2.9-5.8.8-8.2-6.8-9.8-12.6-1-4.7-1.6-9.5-1.8-14.5-8.1,3.5-14.5,11.4-18.1,19-2.9.5-6.9,0-8.7-2.7,1.5-3.4,3.7-6.5,5.3-9.9,2-4.3,4.2-8.6,5.9-13-6,.4-10.6,6.2-14.7,10.8-3.3,5-5.9,10.3-8.4,15.7-3,1.4-6.8,2.6-10.2,1.2-1.9-1,0-2.7.2-4l9.8-19.4c-9.6,9.9-20.1,20.6-32.7,24.3-1.2.3-2.5.5-3.9,0,0,0-1.3-.3-.8-1.4.7-1.6,10.6-23.5,17.3-34.8,3.1-1.4,7.2-2.2,10.1-.2.6.5.7,1.4.3,1.9-4.9,8.7-10.2,17.2-14,26.2,11.7-7.9,23.7-19,31.1-30.9,3.1-1.8,7.2-2.8,10.4-.9,0,0,1,.2.1,2"/>
        </g>
        <g id="g6506">
          <path id="path6508" class="st5" d="M423.2,391.2c6.2-1.3,11.5-6.6,12.4-12.5-6,.8-11.8,7-12.4,12.5M479.7,363.9c.7,2.3,1.7,3.7,4.1,5,1-3.2,1.6-6.1,2-8.6-2.3.2-4.5,1.8-6.1,3.6M368.1,354.2c-7.2,1.5-10.4,7.7-15,14.6,4.2-.6,9.8-3.7,13.3-6.1,7.1-6.3,7.5-9.8,1.7-8.5M308.8,345.8l-10,18.3c5.4,1.9,11.3,3.5,17.2,3.9-.9-8-3.3-15.5-7.2-22.1M280.3,324.2c-5.3-.7-10.5-.1-13.8,4.2-1.4,2-1.2,4.5-1,6.9,3.1,11,14.5,19.1,24.1,24.4l12.1-23.9s-11.4-10.3-21.3-11.6M364.2,315.6c-8.7,12.5-30.7,53.7-30.7,53.7,2.6.3,5.6.2,8.2-.1,5.5-9.7,15.6-20,27.8-19.3,18.7.3,16.5,10.6,2,17.9-6.3,3.1-12.8,4.4-20,4.8-.9,2.4-3.1,4.9-2.2,7.7.6,1,1.7,1.7,2.9,1.7,3.9,0,6.9-1.9,10.4-3.4,7.9-3.8,15.6-8.7,23-14,3.6-3.5,4.2-10.7,10.2-11.3,2.6-.4,9.7-1,7.2,2.7-2,2.9-12.9,18.6-12.9,18.6,8.4-8,17.2-15.3,28.1-17.5,1,0,4.8-.3,2.2,6.5-2.7,6.3-8.4,15.8-8.4,15.8,8.8-8.2,18-16.2,27.3-23.2,1.5-4.5,6.4-6,10.6-6.7,2.1-.3,4.3-.3,6.1.4,0,0-1.1,3.3-1.1,3.2-2.1.2-3.2,1.1-4,2.7-2.6,5.9-2.3,12.9-4.1,19.1,2.3.1,5,.2,7.5.2,3.8-5.8,6.2-15.1,14.7-15.8,4.2-.4,7.1,1.4,5.8,2.5-3.1,2.6-10.9,14.1-12.4,22.7-.7,4.2,1.2,7.2,4.6,5.9,6.5-2.7,11-9.4,14-15.3-3.1-1-7-3.5-7.8-7-.2-2.5,1.7-4.1,3-6,4.6-4.5,10.2-8.4,16.7-6.4,1.5.7,2.7,2.3,3,3.8.8,4.2-1,7.5-2.1,11,3.4,0,6.8-1.7,10.1-4.4,3.2-4.9,4-8.4,7.5-13.2,3-3.3,12-1.3,10,2.1-2.3,3.5-4.6,7.3-6.4,11.1,5.2-4.9,8.3-7.1,15.7-8.1,8.3-.8,11,10.2,15,19.6,4,7.6,10.6,7,14.1,4.7,1.8-1,4.3-2.4,4.3-2.4l.8,3.4c-5,2.9-9.4,5.9-14.2,6.4-5.7,1.9-11.4-.2-15.4-9.9-2.6-5.8-4.7-9.1-7.4-12.9-2.6-4.5-6.9-1.8-9.8,1.3-6.8,6.2-9.9,12.7-14.2,20-2.6,4.4-13.6,3.7-10-2.4,2.3-5.2,4.2-8.6,6.5-13.9-2.8,1.8-6.2,2.9-9.6,3.6-6.1,9.6-15.8,18.7-28,19.9-9.5,1.4-15.1-7.3-9.4-17.7-2.3-.5-4.9-.3-7.2-.2-4.2,10.7-15.7,15.2-25.6,17.9-2.7.3-10,1.3-8.3-2.3,4.7-9.4,13.3-17.2,23.9-17.5,1-4.2.4-9.7,1.2-13.9,0,0-21.2,16.5-32.7,28.4-2.9,4.6-7.9-1.1-6.6-4.1,3.6-7.1,7.1-13.5,11-20.5-6.6,2.4-11.9,7.5-17.5,12.5-4.6,4.3-8.3,8.8-12.2,13.4-2.7.7-8.1.2-8.2-.6.1-1.3,1.2-2.8,2.1-4.6,2.8-5.2,5.7-10.2,8.4-15.4-9.8,7.1-20.1,14.5-31.4,18-3.5,1-8.1,1.1-11-1.3-4.1-4-.5-10.1.6-14.4l-8.1-.2c-2.2,3-3.8,6.6-5.4,10,.2,4.8.3,10.9-2.8,14.2-5.1-1.1-10.4,1-13.4,2.4-.4-1,0,0-.4-1,2.7-3.7,5.4-9.2,6.5-12.7.9-4.4.6-9.5,0-14.2,0,0-12.2-2.3-19-4.8-6.6,12.5-11.8,24.8-16.9,38-2.6,3.9-9.1,5.6-13.6,7.3l-.6-1c8.3-12.2,11.6-26.6,18.1-39.6l3.9-8.4c-5.4-3.2-10.8-6.4-15.8-10.8-6.4-5.7-13.6-12.5-11.3-21.7,1-4.8,6.1-8,10.4-9.2,12.4-2.8,23.7,1.9,32.9,9.3,0,0,4-6.7,6.1-10.1,3.9-1.7,7.8-4.2,13.4-3.2.8.7.7,1.8,0,2.6l-11.3,19.1c6.3,9,9.6,19.1,11.4,30.5,0,0,19.8-43.5,26.7-53.5l9.3-3.2c3.5-1.2,5.8.2,4.1,2.7"/>
        </g>
        <g id="g6510">
          <path id="path6512" class="st1" d="M180.8,433.2c0,1.4,0,2.3,1.7,2.3.7,0,1.2,0,1.2.6s-.4.5-.7.5c-1.1,0-2.8-.1-3.9-.1s-3.2.1-3.9.1-.7,0-.7-.5.5-.5,1.1-.6c1.6,0,1.6-1,1.6-2.3v-15.4c0-.9-.3-.9-.9-.9-2,0-4.2,0-5.9,3.1-.3.5-.5.7-.8.7s-.4-.2-.4-.4,0-.4,0-.5l1.4-4.7c0-.4.2-.6.5-.6s.4.2.4.5c.2.9.8.9,1.5.9h10.6c3.4,0,3.6-.4,3.8-1,0-.3.2-.5.5-.5.5,0,.5.5.5,1.3l-.2,4c0,.7,0,1.1-.5,1.1s-.4,0-.5-.7c-.6-3.2-2.2-3.2-4.3-3.2s-2.1,0-2.1,1.1v15.1Z"/>
        </g>
        <g id="g6514">
          <path id="path6516" class="st1" d="M196.2,426.4q0,.8.8.8h5.7c.9,0,1,0,1-.8v-3.7c0-1.1,0-1.8-1.3-1.9-.6,0-.9,0-.9-.4s.4-.4.6-.4c.8,0,1.7.1,3,.1s2.2-.1,3.1-.1.6,0,.6.4c0,.4-.4.4-.9.4-1.3,0-1.3.8-1.3,1.9v11.2c0,1.1,0,1.8,1.3,1.9.6,0,.9,0,.9.4s-.3.4-.6.4c-.5,0-1.3,0-3.1,0s-2.8,0-3.1,0-.6,0-.6-.4.4-.4.9-.4c1.3-.1,1.3-.8,1.3-1.9v-5.1c0-.7-.1-.7-.9-.7h-5.6c-.9,0-1,0-1,.6v5.1c0,1.1,0,1.8,1.3,1.9.6,0,1,0,1,.4s-.3.4-.6.4c-.4,0-1.1,0-3.1,0s-2.6,0-3.1,0-.6,0-.6-.4.4-.4.9-.4c1.3-.1,1.3-.8,1.3-1.9v-11.2c0-1.1,0-1.8-1.3-1.9-.6,0-.9,0-.9-.4s.3-.4.6-.4c.8,0,1.8.1,3.1.1s2.3-.1,3.1-.1.6,0,.6.4c0,.4-.4.4-1,.4-1.3,0-1.3.8-1.3,1.9v3.8Z"/>
        </g>
        <g id="g6518">
          <path id="path6520" class="st1" d="M213.8,422.7c0-1.1,0-1.8-1.3-1.9-.6,0-1,0-1-.4s.3-.4.5-.4,0,0,.7,0c.6,0,1.7,0,4,0h1.3c2.7,0,4.1,0,4.8,0,.7,0,.7,0,.8,0,.3,0,.3.2.3.8v2.4c0,.1,0,.4-.3.4s-.3-.1-.8-1.1c-.3-.7-1-1.7-4.7-1.7s-1.4.2-1.4,1.5v3.8c0,.9,0,1.1,1.5,1.1,2.9,0,3.2-.6,3.6-2,.1-.3.3-.4.4-.4s.3,0,.3.4-.2,3.1-.2,3.7,0,1.1,0,1.3,0,.5-.3.5-.4-.1-.5-.6c-.6-2-1.3-2.1-3.5-2.1s-1.5,0-1.5.8v4.6c0,1.9.6,2.2,2.8,2.2s2.8,0,4-2.2c.5-.9.5-1,.8-1s.3.2.3.4c0,.4-.3,2-.4,3,0,.5-.3.8-1.1.8-1.3,0-3.2,0-4.7,0-1.5,0-2.7,0-2.9,0h-.3c-1.1,0-1.7,0-2.2,0-.4,0-.6,0-.8,0s-.6,0-.6-.4.4-.4,1-.4c1.3,0,1.3-.8,1.3-1.9v-11.2Z"/>
        </g>
        <g id="g6522">
          <path id="path6524" class="st1" d="M238.5,419.3c0-1.4,0-2.2-1.7-2.4-.7,0-1.1,0-1.1-.6s.4-.5.7-.5c.6,0,3.5.1,3.9.1,1.1,0,2.9-.1,4-.1s.7,0,.7.5-.5.5-1.2.5c-1.7.1-1.7,1-1.7,2.3v10.9c0,4.1,0,6.5-3.2,9.7-1.3,1.3-3.2,2.7-4.9,2.7s-2.3-1.1-2.3-2,.7-1.8,1.7-1.8,1.3.6,1.8,1.4c.3.5.6.7,1,.7,2.3,0,2.3-6.6,2.3-8.7v-12.7Z"/>
        </g>
        <g id="g6526">
          <path id="path6528" class="st1" d="M252.8,433.9c0,1.1,0,1.8,1.3,1.9.6,0,.9,0,.9.4s-.3.4-.6.4c-.6,0-1.4,0-3.2,0s-2.8,0-3.1,0-.6,0-.6-.4.4-.4.9-.4c1.3-.1,1.3-.8,1.3-1.9v-11.2c0-1.1,0-1.8-1.3-1.9-.6,0-.9,0-.9-.4s.3-.4.6-.4c.6,0,1.5,0,3.1,0s2.7,0,3.1,0,.6,0,.6.4c0,.4-.4.4-.9.4-1.3.1-1.3.8-1.3,1.8v11.2Z"/>
        </g>
        <g id="g6530">
          <path id="path6532" class="st1" d="M267.6,435.3c-.2.6-.3.9-.6.9s-.4-.2-.6-.7l-5.2-12.7h0c-.2,2.9-.4,6-.4,8.7,0,4.2.2,4.3,1.6,4.3.6,0,1,0,1,.4s-.5.4-.8.4-1.2,0-2.4,0-2,0-2.4,0-.5,0-.5-.3.3-.4,1-.5c.9-.1,1.3-.3,1.3-2.2,0-.2.6-8,.6-11.5s0-1.3-1.3-1.3c-.9,0-1.1-.2-1.1-.5s.2-.4.6-.4,1.7.1,2.5.1,1.5-.1,1.8-.1.5,0,.7.6l4.5,11,4.2-10.7c.3-.9.6-.9,1.1-.9s1.6.1,2.2.1,1.3-.1,1.6-.1.7,0,.7.4c0,.3-.2.3-1,.4-1.2,0-1.3.4-1.2,1.8l.4,11.2c0,1.6,0,2,1.2,2s.8.1.8.4-.4.4-.7.4c-.4,0-1.8,0-2.8,0s-2.8,0-3.3,0-.5,0-.5-.3.2-.4,1-.5c1.2-.1,1.2-.8,1.2-2l-.2-11.4h0l-5.1,13Z"/>
        </g>
        <g id="g6534">
          <path id="path6536" class="st1" d="M295.3,423.9q0,1,1.1,1h7.1c1.1,0,1.2,0,1.2-1v-4.6c0-1.4,0-2.3-1.6-2.3-.7,0-1.2,0-1.2-.6s.5-.5.8-.5c1.1,0,2.1.1,3.8.1s2.7-.1,3.9-.1.7,0,.7.5-.5.5-1.1.6c-1.7,0-1.7,1-1.7,2.3v14c0,1.4,0,2.3,1.7,2.4.7,0,1.1,0,1.1.6s-.4.5-.7.5c-.6,0-1.6-.1-3.9-.1s-3.5.1-3.9.1-.7,0-.7-.5.5-.5,1.2-.5c1.6-.1,1.6-1,1.6-2.3v-6.4c0-.8-.2-.8-1.1-.8h-7c-1.2,0-1.2,0-1.2.8v6.4c0,1.4,0,2.3,1.6,2.4.7,0,1.2,0,1.2.6s-.4.5-.7.5c-.5,0-1.4-.1-3.9-.1s-3.3.1-3.9.1-.7,0-.7-.5.5-.5,1.2-.5c1.7-.1,1.7-1,1.7-2.3v-14c0-1.4,0-2.3-1.7-2.3-.7,0-1.2,0-1.2-.6s.4-.5.8-.5c1,0,2.2.1,3.8.1s2.9-.1,3.9-.1.7,0,.7.5-.5.5-1.2.6c-1.6,0-1.6,1-1.6,2.3v4.7Z"/>
        </g>
        <g id="g6538">
          <path id="path6540" class="st1" d="M316.5,422.7c0-1.1,0-1.8-1.3-1.9-.6,0-.9,0-.9-.4s.3-.4.5-.4,0,0,.7,0c.6,0,1.7,0,4,0h1.3c2.7,0,4.1,0,4.8,0,.7,0,.7,0,.8,0,.3,0,.3.2.3.8v2.4c0,.1,0,.4-.3.4s-.3-.1-.8-1.1c-.3-.7-1-1.7-4.7-1.7s-1.4.2-1.4,1.5v3.8c0,.9,0,1.1,1.5,1.1,2.9,0,3.2-.6,3.6-2,.1-.3.3-.4.4-.4s.3,0,.3.4-.2,3.1-.2,3.7,0,1.1,0,1.3,0,.5-.3.5-.4-.1-.5-.6c-.6-2-1.3-2.1-3.5-2.1s-1.5,0-1.5.8v4.6c0,1.9.5,2.2,2.8,2.2s2.8,0,4-2.2c.5-.9.5-1,.8-1s.3.2.3.4c0,.4-.3,2-.4,3,0,.5-.3.8-1.1.8-1.3,0-3.2,0-4.7,0-1.5,0-2.8,0-2.9,0h-.3c-1.1,0-1.7,0-2.2,0-.4,0-.6,0-.8,0s-.6,0-.6-.4.4-.4.9-.4c1.3,0,1.3-.8,1.3-1.9v-11.2Z"/>
        </g>
        <g id="g6542">
          <path id="path6544" class="st1" d="M344.3,432.2v-8.1c-.2-3.2-.5-3.2-1.5-3.3-.8,0-1.2,0-1.2-.4s.5-.4.7-.4c.3,0,1.8.1,2.1.1s2.4-.1,2.8-.1.5,0,.5.4c0,.3-.3.4-1,.5-1,.1-1.4.2-1.4,1.6v13.8c0,.3,0,.8-.3.8s-.4,0-.8-.6l-11.3-14h0s.1,9.2.1,9.2c0,3.8.3,4.1,1.5,4.2,1.1,0,1.2,0,1.2.4s-.4.4-.6.4c-.3,0-1.3,0-2.1,0-1.4,0-2.5,0-3,0s-.4,0-.4-.3,0-.3,1.2-.5c1.2-.2,1.3-.3,1.3-3.9v-8.8c0-2-.2-2.3-1.4-2.3-.6,0-1,0-1-.4s.3-.4.8-.4,1.5.1,2.3.1,1.4-.1,1.7-.1.7.6.9.8l9,11.5h0Z"/>
        </g>
        <g id="g6546">
          <path id="path6548" class="st1" d="M354.9,436.8c-2.1,0-3.7-.7-4.2-1.1-.3-.2-.3-.6-.3-1.2s0-1.4,0-2.4c0-.1,0-.5.4-.5s.3.2.4.4c.5,2.4,2.3,4,4.2,4s3.1-.8,3.1-2.9-1.8-3.1-3.7-3.9c-2.1-1-4.2-2-4.2-4.8s1.8-4.6,5.2-4.6,3.1.4,3.5.6c.3.2.3.4.3,2.7s0,.8-.4.8-.4-.2-.6-1c-.3-1-.8-2.5-3-2.5s-2.9,1.5-2.9,2.5c0,1.9,1.5,2.5,3.6,3.4,1.5.6,4.3,1.9,4.3,4.9s-2.2,5.4-5.7,5.4"/>
        </g>
        <g id="g6550">
          <path id="path6552" class="st1" d="M382,428c0-4.6-4-8.2-9-8.2s-9.1,3.7-9.1,8.4,4.4,8.5,9.1,8.5,9-3.6,9-8.7M378.8,428.1c0,3.8-1.9,7.9-5.6,7.9s-6.1-4.1-6.1-8.4,1.9-7.2,5.6-7.2,6.1,4.4,6.1,7.6"/>
        </g>
        <g id="g6554">
          <path id="path6556" class="st1" d="M399.7,432.2v-8.1c-.2-3.2-.4-3.2-1.5-3.3-.8,0-1.2,0-1.2-.4s.5-.4.7-.4c.3,0,1.8.1,2.1.1s2.4-.1,2.8-.1.5,0,.5.4c0,.3-.3.4-1,.5-1,.1-1.4.2-1.3,1.6v13.8c0,.3,0,.8-.3.8s-.4,0-.8-.6l-11.3-14h0s.1,9.2.1,9.2c0,3.8.3,4.1,1.5,4.2,1.1,0,1.2,0,1.2.4s-.4.4-.6.4c-.3,0-1.3,0-2.1,0-1.3,0-2.5,0-3,0s-.4,0-.4-.3.1-.3,1.2-.5c1.2-.2,1.3-.3,1.3-3.9v-8.8c0-2-.2-2.3-1.4-2.3-.6,0-1,0-1-.4s.3-.4.8-.4,1.5.1,2.3.1,1.4-.1,1.7-.1.7.6.9.8l9,11.5h0Z"/>
        </g>
        <g id="g6558">
          <path id="path6560" class="st1" d="M433.4,419.9c0,.3,0,.6-.4.6s-.4,0-.8-.6c-1.2-1.8-2.4-3.3-5.5-3.3-5.4,0-7.9,5.3-7.9,9.5s2.7,9.9,7.7,9.9,4.5-1.9,5.9-4.4c0-.1.3-.6.7-.6.5,0,.5.3.5.5l-.3,2.8c0,.5,0,.8-.8,1.2-.5.3-2.7,1.4-6.1,1.4-8.4,0-12-6.4-12-10.6s4-10.5,12.6-10.5,2.1,0,4.3.5c1.5.3,1.6.6,1.8,1.5l.3,2.3Z"/>
        </g>
        <g id="g6562">
          <path id="path6564" class="st1" d="M455.4,428c0-4.6-4-8.2-8.9-8.2s-9.1,3.7-9.1,8.4,4.4,8.5,9.1,8.5,9-3.6,9-8.7M452.2,428.1c0,3.8-1.9,7.9-5.6,7.9s-6.1-4.1-6.1-8.4,1.9-7.2,5.6-7.2,6.1,4.4,6.1,7.6"/>
        </g>
        <g id="g6566">
          <path id="path6568" class="st1" d="M468.3,435.3c-.2.6-.3.9-.6.9s-.4-.2-.6-.7l-5.2-12.7h0c-.2,2.9-.4,6-.4,8.7,0,4.2.2,4.3,1.6,4.3.6,0,1,0,1,.4s-.5.4-.8.4-1.2,0-2.4,0-2,0-2.4,0-.5,0-.5-.3.3-.4,1-.5c.9-.1,1.3-.3,1.3-2.2,0-.2.6-8,.6-11.5s0-1.3-1.2-1.3c-.9,0-1.1-.2-1.1-.5s.2-.4.6-.4,1.8.1,2.5.1,1.5-.1,1.8-.1.5,0,.7.6l4.5,11,4.2-10.7c.3-.9.6-.9,1.1-.9s1.6.1,2.2.1,1.3-.1,1.6-.1.7,0,.7.4-.2.3-1,.4c-1.2,0-1.3.4-1.2,1.8l.4,11.2c0,1.6,0,2,1.3,2s.8.1.8.4-.4.4-.7.4c-.4,0-1.8,0-2.8,0s-2.7,0-3.3,0-.5,0-.5-.3.2-.4,1-.5c1.2-.1,1.2-.8,1.2-2l-.2-11.4h0l-5.1,13Z"/>
        </g>
        <g id="g6570">
          <path id="path6572" class="st1" d="M483.3,433.9c0,1.1,0,1.8-1.3,1.9-.6,0-.9,0-.9.4s.3.4.6.4c.5,0,2.7,0,3.2,0,.9,0,2.3,0,3.2,0s.6,0,.6-.4-.4-.4-.9-.4c-1.5,0-1.5-.8-1.5-1.9v-4.8c0-.3,0-.5.2-.5s.7.2.9.3c1.1.4,1.7.5,2.3.5,2.2,0,5.1-1.5,5.1-4.7s-1.2-4.7-5.5-4.7-3.7.1-4.4.1-2.4-.1-2.7-.1c-.9,0-1,0-1,.4s.4.4.9.4c1.3,0,1.3.8,1.3,1.9v11.2ZM486.1,422.7c0-1.3.1-2.1,1.7-2.1s3.9,1.6,3.9,3.9-2,3.7-3.4,3.7-1.3,0-1.8-.3c-.3-.1-.3-.2-.3-.7v-4.5Z"/>
        </g>
        <g id="g6574">
          <path id="path6576" class="st1" d="M503.2,430.4c.7,0,.8,0,1.1.8l1.1,3.2c0,.1.2.5.2.8,0,.4-.2.5-.9.6-.5,0-1,.1-1,.5s.3.4.6.4,1.5,0,3.1,0,2.6,0,3.1,0,.6,0,.6-.3-.3-.4-.8-.4c-1.1-.2-1.3-.7-2.2-2.8l-4.1-10.1c-.2-.5-.5-1.2-.8-2-.4-1.1-.5-1.3-.8-1.3s-.3,0-1.2,2.6c-1.7,4.6-4.1,10.8-4.9,12.4-.5.9-.7,1-1.6,1-.4,0-.8,0-.8.4s.3.4.5.4c.3,0,1.9,0,2.2,0,.8,0,2.3,0,2.6,0,.6,0,.9,0,.9-.4s-.3-.4-1-.4c-.6,0-1.3,0-1.3-.7s.2-1,.2-1.1l.9-2.8q.2-.7,1-.7h3.2ZM500.3,429.5c-.5,0-.6,0-.6-.3s0-.4.1-.5l1.6-4.5,1.9,4.6c0,.1.2.4.2.5s0,.2-.6.2h-2.5Z"/>
        </g>
        <g id="g6578">
          <path id="path6580" class="st1" d="M527.7,432.2v-8.1c-.1-3.2-.4-3.2-1.5-3.3-.8,0-1.2,0-1.2-.4s.5-.4.7-.4c.3,0,1.8.1,2.1.1s2.4-.1,2.8-.1.5,0,.5.4c0,.3-.3.4-1,.5-1,.1-1.4.2-1.3,1.6v13.8c0,.3,0,.8-.3.8s-.4,0-.9-.6l-11.3-14h0s0,9.2,0,9.2c0,3.8.3,4.1,1.5,4.2,1.1,0,1.2,0,1.2.4s-.4.4-.6.4c-.3,0-1.3,0-2.2,0-1.3,0-2.5,0-3,0s-.5,0-.5-.3.1-.3,1.2-.5c1.2-.2,1.3-.3,1.3-3.9v-8.8c0-2-.2-2.3-1.4-2.3-.6,0-1,0-1-.4s.4-.4.8-.4,1.5.1,2.3.1,1.4-.1,1.7-.1c.5,0,.7.6.9.8l9,11.5h0Z"/>
        </g>
        <g id="g6582">
          <path id="path6584" class="st1" d="M535.6,422.7c-1.2-1.7-1.8-1.8-2.1-1.9-1-.1-1.1-.1-1.1-.5s.3-.4.9-.4,1,.1,3,.1,3-.1,3.3-.1c.4,0,.7,0,.7.4s-.3.4-1.1.4c-.7,0-.9.2-.9.4s0,.3.5,1l3.8,5.7,3.1-4.7c.2-.3.8-1.4.8-1.9s-.5-.7-1.4-.7c-.2,0-.7,0-.7-.4s.5-.4.7-.4c.6,0,1,.1,2.5.1s2.1-.1,2.3-.1.4.1.4.4-.4.4-.5.4c-1.2,0-1.8.6-3.3,2.9l-3.3,4.9c-.1.1-.2.3-.2.6v4.8c0,1.1,0,1.8,1.3,1.9.6,0,1,0,1,.5s-.3.4-.6.4c-.7,0-2,0-2.8,0-1.7,0-3.2,0-3.4,0s-.6,0-.6-.4.4-.4,1-.4c1.3-.1,1.3-.8,1.3-1.9v-4.1c0-.2,0-.4-.2-.7l-4.4-6.5Z"/>
        </g>
        <g id="g6586">
          <path id="path6588" class="st7" d="M555.1,397.2h5.1v.8h-2.1v5.6h-.9v-5.6h-2.1v-.8Z"/>
        </g>
        <g id="g6590">
          <path id="path6592" class="st7" d="M566.7,403.5v-3.7c0-.2,0-1,0-1.6h0l-1.8,5.3h-.8l-1.8-5.3h0c0,.6,0,1.4,0,1.6v3.7h-.8v-6.3h1.2l1.8,5.4h0l1.8-5.4h1.2v6.3h-.8Z"/>
        </g>
      </g>
    </g>
    <polygon class="st2" points="628.2 373.1 628.2 357.3 620.8 357.3 620.8 373.1 605.6 373.1 605.6 380.2 620.8 380.2 620.8 396.2 628.2 396.2 628.2 380.2 643.4 380.2 643.4 373.1 628.2 373.1"/>
    <g>
      <g class="st9">
        <g id="aGm99d.tif">
          <image id="Layer_0" width="721" height="1002" transform="translate(681.6 286.3) scale(.2)" xlink:href="hensoncompany-1.png"/>
        </g>
      </g>
      <g class="st4">
        <g id="aGm99d.tif1" data-name="aGm99d.tif">
          <image id="Layer_01" data-name="Layer_0" width="721" height="1002" transform="translate(872.5 -19) scale(.4)" xlink:href="hensoncompany-2.png"/>
        </g>
      </g>
    </g>
  </g>
</svg>