<?xml version="1.0" encoding="UTF-8"?>
<svg id="Layer_2" xmlns="http://www.w3.org/2000/svg" version="1.1" viewBox="0 0 1238.1 260.1">
  <!-- Generator: Adobe Illustrator 29.8.7, SVG Export Plug-In . SVG Version: 2.1.1 Build 1)  -->
  <defs>
    <style>
      .st0 {
        fill: #fff;
      }
    </style>
  </defs>
  <path class="st0" d="M82.5,171.5c-.9-1.2-2.8-6.9-3-8.6-.8-7.9,4.2-13.7.7-20.9-1.2-2.4-7-4.8-9.5-6.7-4.5-3.6-9.6-10.6-9.9-16.7-.4-7.4,4.4-16.1-2.8-21.9-1.5-1.2-3.7-1.1-5.1-2.7-3.8-4-4.8-9.1-3.7-14.6.8-3.8,4.3-7.7,5.5-11.3,2.2-6.5.9-14-7.2-13.4-3,.3-9.3,2.6-11.3,5-4.6,5.4-.9,7.7-.4,12.7.8,8.4-10.7,8.4-6.4,19.4,4.1,10.5,11,14.5,6,27.3-1.5,3.9-7.7,11.6-7.5,14.5.1,2,1.2,1.5,1.8,2.4,1.9,2.7,6.6,9.4,7.5,12.2,3.3,11.5-8.6,15.8-8.1,25.2.4,7.1,10.3,8.5,11.3,16.4,1.6,12.6-11.9,17.6-11.8,26.9,0,1.1,3.2,6.5,4.1,7.8,3.5,5.6,8.4,9.9,7.8,17.7-1.2,14.2-23.3,25.3-30.7,12.3-4-7,3.7-12.7,2.9-18.1-.6-4.5-4.6-5.5-7-8.3C1.1,222.7,0,215.8,3.2,209.3c1.9-4,6.8-8.4,8.4-11.8,2.1-4.3-.6-4.5-2.5-6.5-4.5-4.8-7.5-6.8-8.1-13.9-.4-3.9,0-6.9,1.3-10.6,2.8-8,8.6-7.8,5.1-17.5-2-5.4-5.6-10-5.9-16.3-.5-9.9,9.8-17.7,9.1-24.5-.5-4.2-6.2-10.6-7.7-15s-1.7-9.4.2-13.7c1.3-2.9,4.3-5,5.9-8,2.4-4.7,3-8.8,2-13.9-1-5.4-2.3-6.3-.8-12.7,4-17.5,33-23,46.9-18,10.1,3.6,20.1,13.3,21.6,24.5.7,5.4-.3,11.2-1.6,16.4-.9,3.8-5.2,7.8-3.4,11.9.7,1.7,8.5,5.8,10.3,8.1,1.7,2.2,1.7,4.2,2.7,6.4.3.6,1,.6,1.2,1.1,2.6,6,.6,15.7,1.8,22.2,1.2,6.9,9.2,6.5,12.7,10.3,1.1,1.1,4.5,7.1,4.9,8.7,1.7,6-1,8.1-1.3,12.8-.5,8.2,5.5,7,10.8,11.2,6.6,5.3,11.4,15.1,11.9,23.8.4,5.8-1.5,9-2.8,14.5.2.7,6.1,2.7,7.5,5.3,1,2,3.8,11.1,4.1,13.5.3,1.8,0,3.7.2,5.5l.4.6c2.9,1,2-.7,2.9-1.8.5-.6,1.6-.9,1.7-1.4.2-.9-.6-2.6-.6-3.9,0-2.3-.1-4.3.4-6.6,1.5-6.5,9.2-13.1,7.4-20.1-.8-3-6-6.6-7.3-9.5-2.9-6.3-.8-15.4,3.2-21,1.7-2.4,6.1-5.3,6-8.2,0-1.1-2.2-5.4-2.9-6.1s-2.7-1.4-3.7-2.5c-7-7.9-8.2-16.9-2.8-26.5,2-3.6,6.7-6.5,5.6-10.9-1.2-4.7-7.5-10.1-8.1-14.6-.7-5.8,1.8-13.1,5.6-17.4,1.4-1.6,3.8-2,3.4-4.7-.2-1.6-5.6-5.9-7-7.6-5.1-6.6-8.1-18.6-7.6-27.1.2-3.6,3.7-10,6.9-11.7,3.6-1.9,14.2-2.3,17.4.4,5,4.5,1.8,9.3,2.2,15,.5,6.3,5.3,9.5,7.8,14.8,3.8,8,4.7,14.1,1.1,22.8-1.2,2.9-2.4,3.4-3.7,5.6-4.5,7.4,1.4,13.9,4.3,20.1,2.1,4.4,2.9,11.2,1.4,16.1-1.1,3.6-4.8,7.1-5.8,9.8-3.1,8,8,16.5,8,25.1s-.5,9.4-1,11.2c-1.8,6.4-8.5,6.9-4.8,16.2,3,7.6,8.6,10.9,5.8,21.1-1.1,4.2-6.4,8.5-6.8,12.9-.3,3.1,2.5,7.8,2.8,11.3.4,4.2-.6,15.6-2.7,19.3-7.4,12.6-24.9,13-36.8,9.2-2.5-.8-10-7.4-11.5-9.7-2-3.1-6-12.3-6.8-15.8-.8-3.3-.3-8.9-2-11.7-.9-1.5-4.8-3.1-6.4-4.7-6.5-6.5-4.4-16.4-5.4-24.8-.2-1.7-1.5-6.7-2.8-7.4-3.8-2.3-9.6-3-12.8-7h-.2Z"/>
  <path class="st0" d="M490.7,56c-1.5-10.1.1-12.6,3.2-18.5s4.6-6.5,10.7-9c6.1-2.5,10.9-8.5,18.3-6.1s4.8,14.4,4.5,17.3c-.8,9.1-6.2,7.9-12.7,11.7-6.5,3.9-5.2,9.4-4.3,14.1.2,1.3,2.1,7-1,12.1-3.1,5-5.1,3.9-9.2,6-2.8,1.4-5.1,7.3-4.5,11.1.4,2.4-1.1,8.7-8,14.6,0,.3,8.6,4.5,9.7,5.3,2.4,1.8,5.6,5.8,6.4,8.5,1.3,4.5-2,9.9-1.6,14.6,4.8,4.6,11.5,7.3,13.6,14.3,2.4,8.3-2.8,12.2-1.9,18.9.7,5.4,4.1,4.5,7,7.4,4,4,5,9,3.4,14.6-.5,1.6-1.9,3-2,4.9-.4,8.8,12.5,13.5,16.7,20.6.9,1.5,4.4,9,4.7,10.3.8,3.7-.4,6.7-2.5,9.7-6.7,9.8-22.1,4.9-25.5-4.5-.6-1.7-.5-3.2-1-4.7-2.3-7.8-16.9-12.3-16.7-23.3,0-4.3,4.2-11,3.9-13-.9-5.4-10-7.3-11.9-10.4-1.7-2.9-1.4-7.4-.8-10.6.7-3.4,3.5-6.9,2.3-10.2-1-2.9-10.2-4.8-12.9-9.9-3.2-6.1,1.2-13.5,0-19.2-.5-2.6-3.7-3.6-6.6-3.2-5.2,1-2.4,6.8-7.9,9.7s-15.4-7.7-19.9,5.8c-4.5,13.5-20.2-1.9-18.9,21.8.4,5.4,5.9,9.1,6,14.8,0,1.8-.8,5.9-1.3,7.7-1.1,4-4.8,7.6-4.4,11.6.5,5.7,6.8,11.2,8.3,15.7,2,5.8-1.7,20.9-5.8,25.7-5.7,6.8-21.5,7.2-24.1-2.2-.7-2.5-.7-6.5-.4-9,.7-5.8,4.7-9,1.5-15.2-1-2-2.9-3.1-4-5-6.3-10.5.1-16.4,4.4-25.4,3.1-6.6-1.7-7.9-4-13.5-2.8-6.8-1.7-13.2,1.7-19.8,1.6-3.1,4.7-5.3,4.2-9.4-.4-3.3-5.7-7.4-7.4-10.5-3.5-6.3-2.8-19.9.1-26.7,2.2-5.2,5.7-7.2,4.9-13.6-1.1-9-7.6-15-6-25.2,1.5-9.6,11.7-14.9,7.7-25.1-3.1-7.9-6.3-9.7-4.3-19.7,1.7-8.8,8.6-10.1,16.5-9.2s12.9,5.9,12.3,13.8c-.2,2.6-1.4,4.5-1.1,7.4.3,2.5,2.8,5.9,3.3,8.5,2.4,12.5-10.9,20.1-8.2,30.5.9,3.7,6.4,8.6,6.7,13,.2,3.1-1.9,12.5-3,15.8-1.2,3.6-4.8,8.4-5,12.2-.2,3.9,3.8,8.7,8.2,8.8,3.5,0,.3-1.4,6.4-7,6.1-5.6,11.6.9,15.1-4.1s3.7-9.6,7.6-14.8,12.1-7.6,13.1-10.3c2.1-5.9-3-12.1,3.3-19.2,6.3-7.1,14.1-3.3,12.9-11.5h.2Z"/>
  <path class="st0" d="M314.4,15c3.7-.5,9.1-.2,12.6.8,2.4.8,6.7,5.7,9,7,5.4,3.2,8-.2,12.9-1.6,8.5-2.6,15.2.2,20.1,7.1,3.3,4.7,3.5,6.7,2.5,12.5-1.7,10.6-12,15.9-6.8,26.9,3.2,6.8,8,9,6.8,18.3-1,7.5-9.6,16.1-17.2,16.2-6.1,0-11.3-4.4-11-10.6.2-5.1,5.3-7.2,1.1-12.6-4.4-5.5-9-6.1-5.7-15.2,1.7-4.8,10-14,8.1-18.4-2.6-6.1-10.6.7-14,1.5-9.4,2.3-12.5-7-21-4.4-7.3,2.2-7.1,11.1-12.7,15.4-2,1.6-7.1,2.8-7.9,3.7s-2,6.3-2,7.6c.3,4.2,2.5,5.3,4,8.3,2,4,3.9,13.8,2,17.9-1.8,4-5.7,8-8.2,11.8-.9,1.4-4,6.1-4,7.3,0,2.5,4.7,6.2,6.4,8.6,5.2,7.1,8.4,14,4.7,23.1-2,5.2-8.2,8.6-8.3,14-.1,4,4.9,4.9,7.3,6.5,8,5.5,8.5,16.2,4.7,24.7-1.2,2.7-4.2,4.7-4.9,7.6-2.2,8.4,6.3,11.6,11,16.5,4.2,4.3,4.5,11.7,12,6.6,7.2-4.9,7.3-8.1,18-6.6,3,.3,14.5,6.6,16.6,5,3-2.3-3.2-9.2-3.7-10.9-2.4-8,6.2-18.9,5.9-23.1-.4-4.5-8.6-7.8-9.5-14-1.2-8.9,5.6-14,13.8-14.8,7.6-.7,12.2,2.8,15.4,9.4,1.7,3.5,4.2,14,4,17.8-.5,8.6-8.8,16.1-3.5,25.7,2,3.5,4.3,3.6,4.1,8.8-.6,20.9-19.1,29.7-37.8,25.4-8.2-1.9-11.3-7.2-20.1-1.6-5,3.2-7,7.4-13.7,8.3-14,1.9-24.4-5.1-27.3-18.8-.2-.9.4-1.9.3-2.6-.9-5.7-11-12.9-12.8-18.9s-1.4-9.3-.7-12.5c1.2-5.1,5.3-8.9,6.2-13.3,1-4.8-2.9-5.1-5.5-7.5-2.5-2.3-6.8-6.2-7.9-9.4-1.4-4.3,0-14.2,2-18.4s5.8-8.7,8.5-12.7c1.2-3.5-4.1-7-5.8-9.8-1-1.6-2-4-2.6-5.8-4.1-12.3.4-21.5,7.4-31.8,1-1.5,2.9-2.4,3.1-4.4.3-3.1-4.5-9.2-5.4-13-2.3-9.8.9-26.9,10.8-32,3.2-1.6,9.2-2.7,11.9-4.9,2.4-1.9,7.2-7.5,9.5-10,1.8-2.1,3.5-5.6,5.5-7.2,2.7-2.2,8.4-3.5,11.7-3.9h0v.2Z"/>
  <path class="st0" d="M1096,187.2c-1.2-2.4-2.5-5-2.7-7.2-.4-3.5.6-5.4,1.8-7.9.9-2,2-4.2,2.4-7.3.5-4.1.5-10.1-1.2-14.6-.6-1.6-1.4-2.8-2.2-4.1-.6-1-1.2-1.9-1.5-2.7-1.9-5.4-.5-10.2,1.2-15.7,1.5-5,3.1-10.1,2.5-16.4-.4-3.2-1.9-6.9-3.4-10.4-1.1-2.5-2.2-5.2-2.7-7.3.5-1.7,1.3-3.1,2.2-4.7,1.3-2.1,2.7-4.6,3.4-8.2,2.1-11.4-1.2-15.7-4.6-20.2-1.4-1.8-2.8-3.8-4.1-6.3-1.1-2,1.1-6.8,2.7-10.2,1.2-2.5,2.2-5,2.7-7.3.8-4.1,1.2-15.6.4-19.3-.4-1.6-4.7-9-5.2-9.6-2.8-3.6-7.3-5.7-11.9-5.7-.7,0-1.4,0-2,.3-4.2.9-7.5,3.7-9.2,8.2-2.2,6.1-.2,11.1,1.5,15.6,1.1,2.8,2.1,5.5,2.1,8s-1.6,6.5-3.2,10c-2.6,5.9-5.7,12.5-2.7,20.1.9,2.4,2.8,4.4,4.6,6.4,1.4,1.6,3.6,4,3.6,5.1s-1.4,3.6-2.4,5.3c-.7,1.2-1.4,2.4-1.9,3.6-4.2,10-4.1,17.6.4,25,.6,1,1.3,1.8,2,2.7,1.2,1.4,2.4,2.8,2.5,4.2.2,2.6-.9,4.6-2.5,7.2-1.8,2.9-3.8,6.4-3.6,11.1,0,5.4,2.4,10.3,4.5,15,1.4,3,2.6,5.6,3.3,8.4.6,2.7-.5,5-2.4,8.2-1.3,2.1-2.7,4.6-3.2,7.5-.5,2.6,1.4,6.6,3.1,10,.5.8-.6,1.7-1.2,1.1-1.3-1.2-2.9-2.5-4.5-3.9-1.2-.9-2.2-1.5-3.2-2.9-1.5-2.1-1.1-4.6,0-8.4.7-2.6,1.5-5.6,1.2-8.7-.2-3.1-2.7-9.2-4.4-11.7-1.3-2.1-2.9-3.5-4.5-4.9-2.1-1.9-3.9-3.4-4.4-6.2-.4-1.9,0-2.8.9-4.6.5-1,1.1-2.1,1.5-3.6,1.6-5.2.9-11.2-1.8-15.8-.9-1.6-2.4-3-3.8-4.4-1.3-1.3-3.4-3.3-3.5-4.4,0-.6.6-2.3.9-3.4.7-2.2,1.5-4.5,1.6-6.5.6-8-3.3-16.9-9.4-21.6-1.1-.8-2.1-1.4-3.1-1.9-2.8-1.5-3.3-1.7-2.4-4.9.1-.5.4-.8.7-1.4.4-.7.8-1.4,1.2-2.4,2.2-6.8,1.6-17.5-3.5-23-1.6-1.7-3.4-2.6-4.9-3.3-1.6-.7-2.5-1.2-2.9-2.3-.9-2-.7-2.7-.1-4.4.4-1.2.9-2.5.9-4.4.2-8.2-5.7-13.2-8.7-15.9-5.5-4.7-10.5-6.9-16.5-7h-.4c-.8,0-1.5.3-2.1.3-.1,0-.4,0-.6.2-.1,0-.4-.2-.5-.3-.7-.5-1.6-1.1-2.9-1.1h-.7c-4,0-14.2,3.6-17.4,6.1-3.5,3-7.5,12.7-7.8,17.4,0,1,0,1.9.1,2.8,0,.9.2,1.7.1,2.4-.2,4.7-1.1,6.1-2.5,8.6-.7,1.2-1.5,2.5-2.4,4.4-2.5,5.3-4.8,13.2-1.8,20.9.8,2.1,2.4,4,4,5.9,3.1,3.9,4.8,6.4,3.4,9,0,.1-.2.2-.6.4-.5.2-1.2.6-1.8,1.4-3.3,3.9-4.8,15.4-4.4,19.7.6,5.3,2.7,9.1,4.6,12.4.8,1.5,1.8,3.1,2.5,4.7,1.5,3.5.8,4.8-.6,7.7-.7,1.4-1.6,3.3-2.1,5.6-1.6,6.9-.8,15.4,2.2,22.1.8,1.7,2,3.2,3.1,4.3.9,1.1,1.8,2.1,2.4,3.3,2.5,5.4,1.2,8-1.2,12.5-.9,1.9-2.1,4.2-2.9,6.9-2.2,6.8-2.9,12.9.9,20.4.5.8,1.1,1.7,1.8,2.5.6.7,1.3,1.7,1.5,2.2.7,2.2-.2,5.7-1.2,8.8-.6,2.3-1.3,4.7-1.5,6.9-.7,7.6,4.4,15.2,11.2,16.9l2.9.4c3.4,0,7.3-1.5,10.4-3.6,2.4-1.6,5.3-4.4,6.1-8.5,2.2-10.1,2-18.8-.6-26-.7-2-2.1-4.2-3.5-6.5-1.5-2.5-3.4-5.6-3.5-7.3-.2-2.6,1.5-5.8,3.2-9,1.8-3.2,3.5-6.7,3.9-10.2.7-7.3-.9-14.4-4.2-19.2-.9-1.3-1.9-2.1-2.6-2.9-1.4-1.3-1.9-1.8-2-3.9,0-2.2,1.2-4.5,2.7-7.4,2.2-4.3,5.1-9.8,4.4-16.8-.2-2.8-2.1-11-3.6-13.9-.7-1.4-2-2.7-3.3-4.1-.9-.9-1.9-1.9-2.4-2.7-.2-.3-.5-.8-.7-1.4-.4-.7-.6-1.2-1.1-1.9.7-1.3,1.9-3.6,2.4-4.4.9-1.7,1.5-2.7,1.8-3.3,2.6-6,5.2-14.4,2.7-20.6-1.3-3.3-4.5-6.3-6.8-8.5l-.7-.6c-.6-.6-1.2-.9-1.8-1.4-1.3-.8-1.3-.9-1.3-1.6s0-.8,1.4-1.6,1.5-.9,2.4-1.7c4-3.9,3.9-8.5,3.6-12.2v-3.8c.1-1.5.8-2.6,2-3.2.5-.2,1.1-.4,1.6-.4.9,0,1.8.2,2.4.7s.7,1,.6,1.6c0,.4-.4,1.3-.7,1.9-.5,1.2-.9,2.4-1.1,3.7-.9,7.1,2.7,13.3,8.5,14.7,1.1.3,2.1.3,2.9.4,1.6,0,2.1,0,2.6.7.5.7.1,1.7-1.2,4.2-.5,1-1.1,2-1.4,3.1-2.5,6.9-3.2,12.5.6,20.2,2.1,4.4,5.3,6.6,8,8.6.9.8,2,1.4,2.9,2.1,2,1.6,1.4,3.7-.4,8.4-.8,2.1-1.5,4-1.8,6.1-1.5,12.6,2.7,15.7,7.5,19.4,1.4,1.1,3.1,2.3,4.6,3.9.9,1,1.2,1.4,1.3,1.6,0,.1-.1.6-.2,1-.2.6-.5,1.5-.7,2.4-.2.7-.4,1.6-.6,2.3-2.1,8.7-4.2,17.7,3.9,25.3,1.2,1.2,2.4,1.8,3.2,2.4,1.8,1.1,2.6,1.7,3.3,4.2.6,2.5.1,3.8-.6,6-.4,1.1-.9,2.5-1.3,4.3-1.3,6.4-1.3,11.4,3.4,16.5.9,1.1,2.2,1.8,3.6,2.6.9.5,2.5,1.4,2.8,2,.5,1.5,0,3.5-.4,5.7-.2,1.2-.5,2.5-.6,3.7-.4,5.7.1,15.7,7.4,20.6,5.5,3.7,11.3,5.3,17.9,5.2,6.1-.2,11.9-2.2,16.2-3.8,11.1-4.2,16.1-25,14.2-37-.5-3-1.8-5.7-3.2-8.4h0l-.5.3Z"/>
  <path class="st0" d="M700.3,163.9c-.5-.4-1.1-1-1.1-1.2-.2-2,.5-3.2,2.1-5.3.8-1,1.6-2.3,2.4-3.6,2.6-5.1,2.8-11.7.6-17.8-2.2-6.1-6.8-10.6-12-12.2-.8-.2-1.5-.2-2.1-.3h-.6c-.4-.1-.7-.2-1.1-.3-.6,0-1.3-.4-2.1-.5-.4-7.3-4.7-12.2-8.5-15.2.5-.4,1.1-.9,1.6-1.3,1.3-1,2.8-2,4.1-3.5,4-4.8,6-11,5.3-16.9-.5-4.1-3.4-7.4-5.3-9.6-.2-.3-.7-.7-.9-1.1.2-.2.5-.4.7-.5.7-.5,1.6-1.3,2.1-2.5,1.1-2.7,2-11.9,1.6-14.7-.7-5.7-3.3-9.3-5.7-11.5-.6-.4-4.9-3.1-7.9-3.8-.7,0-2.2-.5-3.2-.9h0c0-1.2.4-2.3.7-3.4.7-2.5,1.4-5.5.2-8.6-.4-.9-2.9-5.9-3.4-6.6-1.1-1.5-4.6-4.8-6.4-5.7-2.2-1-11.4-3-13.9-3.1h-.8c-3.3,0-6.6,1.4-10.4,4.2-.9.8-2.1,1.8-3.3,3.1-1.2,1.1-3.4,3.4-4.2,3.8-.2,0-.5,0-.7,0-2.1.1-4.7-1.2-7.2-2.5s-4.9-2.5-7.7-2.8-2.4-.3-3.5-.2c-6.6.3-13,3.2-17.7,8.6-5.5,6.1-7.9,14.4-6.6,22.3.2,1.6.9,3.2,1.6,5s1.5,3.8,1.5,5c0,1.9-1.6,4.5-3.2,6.8-1.3,2.2-2.7,4.4-3.4,6.6-1.8,5.6-1.1,11.6,2,16.7.9,1.5,2,2.6,2.9,3.6,1.3,1.3,2.1,2.1,2.5,3.3-.9,2.5-1.9,5-2.7,7.3s-1.8,4.7-2.6,7c-.1.5-.4.7-.6,1-.8,1.3-1.5,2.5-1.8,5.5-.7,8.7,1.1,11.4,3.8,15.7.6.9,1.4,2.2,2.1,3.5s.5,1,.6,1.2c0,.1-.2.3-.4.6-.4.7-.9,1.5-1.4,2.8l-.6,1.7c-2.9,7.7-7.3,19.5-3.8,27.4.8,2,2.2,3.5,3.5,5,2.1,2.5,3.4,4.1,3.3,6.5,0,1-1.3,2.9-2,4.2-.7,1.2-1.3,2.2-1.6,3.1-5.8,13.7-3.9,22.8,6.1,29.6.8.6,1.5.8,2.2,1,1.1.4,1.2.5,1.3.8,0,.2.1.4.1.5s-.2.3-.2.5c-.4.6-.8,1.3-1.2,2.3-1.3,3.7-1.4,7.1-.6,11.4,1.2,6.1,8.2,10.7,14,11,.7,0,1.4.2,2.1,0,5.2-.1,10.8-2.1,14.4-4.8,1.1-.9,2-2,2.8-2.9.9-1.1,1.8-2.1,2.8-2.6,1.1-.6,1.6-.8,1.9-.8.6,0,1.2.5,2.4,1.9.9,1.1,2.1,2.5,3.8,3.6,3.2,2,6.8,2.9,10.6,2.8,5.9-.3,11.5-3,15.4-7.9,1.4-1.8,2.4-3.8,3.1-5.4.4-.9.8-1.8,1.3-2.6.5-.9.9-1.4,1.1-1.6.2,0,.7.5,1.1.6.8.5,1.8,1.2,3.1,1.6,2.8,1.1,5.8,1.7,8.7,1.6,5.2-.2,9.9-2.3,13.4-5.8,4.9-5.2,6.5-12.5,3.9-20-.6-1.8-1.5-3.3-2.4-4.4q-1.5-2.3.1-4.1c1.1-1.1,2.1-1.8,3.4-2.7,3.1-2,6.4-4.3,7.3-10.5,1.2-7.8-.9-12.2-5.1-17.6-.5-.7-1.1-1.1-1.5-1.5h0l-.7-.3ZM672.9,201.4c.5,1.3,1.3,2.3,1.9,3.1.4.4.6.7.7,1-.8-.3-1.9-1-2.5-1.3-1.6-.9-3.3-1.8-4.7-1.9s-2.2-.3-3.3-.2c-7.1.2-9.9,5.2-12.2,9.1-1.2,2-2.2,3.8-3.8,5.4-.8.8-1.4,1.1-2,1.1-1.2,0-2.7-1.6-4.6-3.4-2-2.1-4.4-4.5-7.4-5.4-1.5-.4-3.2-.6-4.7-.6-4.9.1-9.7,2.7-13.7,7.2-.6.5-1.1,1.4-1.4,2.1-.2.3-.5.8-.8,1.3,0-.2,0-.5.4-1.4.2-.8.7-1.9.8-3.1.5-4.2-.6-8.2-2.8-11.2-.9-1.4-2.5-2.3-3.5-3-.6-.4-1.5-1.1-1.6-1.3-1.2-1.6,1.6-6.2,3.5-9.6,2.1-3.6,4.1-7,4.4-10.2.5-6.5-2.5-10-5.1-13-1.6-1.9-3.2-3.7-3.6-6.3l8.5-18.3v-.4c.1,0,.2-.3.2-.3l.4-2.3c.5.3.9.5,1.5.7,1.9.5,4.4,1.2,7.1,1,2.1-.1,4.2-.6,6.1-1.5,2.2-1.1,3.8-2.8,5.1-4.2,1.5-1.8,2.4-2.6,3.8-2.6l1.4.2c.8.1,1.9.8,2.8,1.5.9.6,1.9,1.2,2.8,1.6,3.1,1.2,5.7,1.8,8.2,1.8,2.6,0,4.9-.9,7.2-2.3,1.1,5.5,4.1,9.3,8.9,11,1.3.4,2.6.7,3.8,1,2.2.4,4.1.8,5.5,2.5.8,1.1.6,2.2-.8,3.5-.7.7-1.5,1.4-2.2,2.3-5.3,6.7-5.4,14.9-.2,21.1.8.8,1.8,1.7,2.9,2.5.9.7,2.8,2.1,3.1,2.9,0,.4-1.1,1-1.5,1.3-.7.4-1.3,1-1.9,1.5-2.2,2.2-9.2,10-6.2,17.6h-.2ZM642.7,43h.6c.6.1.8.8,1.3,3.3.1,1,.4,2,.7,3.1,2.4,7.1,7.4,7.6,11.2,7.9,2.5.3,4.1.5,5.1,1.6,1.1,1.4,1.5,4.6,1.1,5.5,0,0-.5.4-.8.6-1.3,1-3.3,2.4-4.5,5.8-2.6,7.1,1.5,10.8,4.4,13.3,1.4,1.3,2.8,2.5,2.9,3.7.4,2.9-.9,3.8-3.9,6-2.2,1.6-4.7,3.4-6.2,6.7-1.1,2.2-.9,4.1-.8,5.7,0,1.4,0,2.2-.5,3.7-.2.5-.6,1-.9,1.1h-.4c-1.2,0-3.1-1-4.8-1.9-1.4-.7-2.7-1.4-4.1-1.9-2.1-.6-4.7-1.4-7.5-1.3-1.8,0-3.3.5-4.6,1.2-1.1.6-2.1,1.7-3.3,2.9-.8.9-2.6,2.9-3.4,3h-.1c-.4,0-.8-.4-1.5-.8-1.3-.9-3.1-2.1-5.8-2.1-1.2,0-2.5.3-3.8.9s-2.4,1.3-3.2,2.1c-.2-2.8,1.1-5.4,2.6-8.7,1.3-2.8,2.7-5.9,3.2-9.1.4-3.1,0-5.4-.5-7.6-.2-1.1-.4-2.1-.5-3.4v-1.1l-.6-.6-6.8-6c-.1-1.6.6-2.5,2.1-4.3.9-1,1.9-2,2.6-3.4,2.4-4.5,3.3-11.9.4-16.5-.6-.9-1.3-1.4-1.9-1.7-.1,0-.2-.2-.4-.2-.4-.5-.7-1.2-.9-2.2.7-.5,1.9-1.4,2.4-1.6.4,0,.7-.2,1.1-.1,1.6,0,3.1,1.2,4.7,2.7,2.1,1.9,4.8,4.2,8.8,4.1h.2c2.5-.2,7.3-2.3,9.3-3.8,1.2-.8,2.2-2.1,3.2-3.2,1.4-1.7,2.7-3.1,3.9-3.2h.1Z"/>
  <path class="st0" d="M823.9,208.3c-1.4-1.5-2.9-3.1-3.6-4.2-2.2-3.7-2.1-7.1-2-10.9.1-3.5.2-7.5-1.4-11.9-1.3-3.3-2.9-4.7-4.2-5.8-.7-.6-1.3-1-1.9-1.8-1.1-1.4-.6-3,.4-6.1.8-2.5,1.6-5.4,1.2-8.3-.7-3.6-2.6-5.6-4.2-7.5-1.1-1.1-1.9-2.1-2.5-3.3-1.5-3.8-.7-5.3.7-7.8,1.1-2,2.5-4.5,2.4-8.1,0-.6-.1-1.3-.2-1.8.6-.2,1.1-.4,1.6-.5,3.2-1,6.8-2,9.8-6.4,1.6-2.4,5.1-12.1,5.3-14.8.6-5.3,0-8.8-2.5-13.6-.6-1.1-1.2-2-1.8-2.8-1.6-2.6-2.2-3.5-.8-6,.4-.7,1.3-1.5,2.1-2.2,1.2-1.1,2.5-2.2,3.2-3.7,3.2-5.9,1.3-15.3-2.4-20.8-1.2-1.8-3.2-3.4-5.3-5-1.5-1.2-4.4-3.4-4.6-4.4-.2-1.4.8-3.6,1.8-5.7.7-1.5,1.4-2.9,1.8-4.4,2.2-8.1,0-18.6-5.2-23.7-3.8-3.8-7.7-5.4-12.1-5.3-1.9,0-4,.5-6.6,1.2-2.1.6-3.8,1.8-5.1,2.7-1.4,1.1-2.4,1.6-3.4,1.7h-.5c-.2-.3-.7-1-.9-1.4-.5-.9-1.1-1.7-1.8-2.4-2.6-2.5-6.7-3.9-11.3-3.7-.4,0-.6,0-.9,0-4.9.4-9.5,2.5-12.1,5.7-.8,1-1.3,2.2-1.8,3.1-.8,1.8-.9,1.7-1.3,1.8q-.6,0-1.4-1.2c-.5-.8-1.2-1.6-2.2-2.4-3.1-2.2-6.4-2.4-8.8-2.3-1.2,0-2.2.2-3.4.2-1.1.1-2.1.2-3.1.2h-.5c0,0-1.4.5-1.4.5,0,0-2.4,2.1-3.5,2.8-2.6,1.9-5.3,3.9-7.3,7.7-2.7,5.2-4.7,15-4.2,20.5.2,3.5,2.1,8.2,3.8,11.1.4.7,1.1,1.6,1.9,2.7.5.6,1.4,1.9,1.9,2.7-.1.6-.8,1.4-1.3,2.1-.5.7-1.1,1.4-1.5,2.2-6.7,12.1-7.5,22.6-2.6,32,.5.8.9,1.6,1.5,2.4.6.8,1.8,2.4,1.8,2.9,0,1.2-1.4,4.5-2.4,6.9s-2,4.6-2.4,6.4c-2.4,10.2,1.8,18.3,6.4,24.8-.1.4-.4.7-.5,1.1-1.5,3.3-3.2,6.7-4.1,10.3-2,7.2-1.1,16.8,2.1,22.8.8,1.5,1.8,2.6,2.5,3.4.8.8.7,2.1-.1,3.5-.6,1-1.2,1.8-1.8,2.8-3.4,5.2-6,9.3-4.9,18.3.6,4.7,3.1,7.3,5.1,9.5,1.4,1.5,2.5,2.7,2.7,3.9.5,2.4-.1,4.4-.8,6.6-.8,3-1.9,6.2-.5,10.5,1.5,4.5,5.4,7.3,10.4,7.6.4,0,.7,0,1.1,0,5.3-.2,10.2-3.3,12.5-7.9,2.5-5.1,2.9-15.7,1.5-20.6-1.2-4.1-3.1-6.4-4.8-8.5-.8-1-1.8-2.1-2.5-3.3-1.9-3.2-.5-5.5,2.7-9.9,1.5-2,3.1-4.2,4-6.8,2.6-6.9,2.4-10.7-1.1-17.1-.9-1.7-1.9-3.1-2.8-4.3-2.2-3.1-3.3-4.4-1.5-8.7,1.6-4.1,9.7-12.4,13.3-13.7,2.1-.7,8-2.2,9.9-2.3h.1c.8.1,2.4.6,3.8,1.1,1.3.5,2.7,1,4,1.2,2.5.4,4.8.6,7.1.6h.1c-.5.9-.7,1.7-.8,2.1-1.4,7.9.9,11.1,3.2,14.4.9,1.2,1.8,2.4,2.6,4.2,1.1,2.4.9,2.8.5,4.4-.2,1-.7,2.3-.8,4-.7,8,1.6,11.3,3.8,14.3,1.3,1.9,2.2,3.2,2.6,5.9s.1,4.8-.1,7c-.5,4.2-.9,8.3,2.5,14.4.9,1.7,2.1,2.9,3.1,4,1.5,1.8,2.6,2.9,2.8,5.7v.5c-.1.6-.2,1.5-.2,2.6.5,4.5,3.5,8.5,7.8,10,2,.7,4.8,1.1,7.4.9,3.4,0,8-1,10.5-4.8,2.7-4,2.9-13.1,1.9-17-.7-2.3-2.8-4.4-5.2-6.8h0l.5.3ZM741.8,121.8c-.5-3.4,1.4-6.6,3.4-10.5,2.5-4.7,5.7-10.5,4.8-17.7-.6-5.9-4.5-7.5-6.9-8.7-1.6-.7-2.5-1-2.8-2-.6-1.4,2.6-7.1,4.2-10.1,2.7-4.9,5.5-10,5.5-14.2s-3.3-9.1-6-11.8c-2.4-2.3-3.5-3.7-3.3-5.5.5.4.9,1,1.4,1.4,2.1,2.2,4.7,5,9.1,4.9h.6c3.4-.3,9.2-5.1,10.5-6.6,1.2-1.2,1.8-2.4,2.2-3.2.4-.7,1.1-1,1.9-1,.4,0,.8.1,1.3,0,2.2,0,3.6.9,5.5,2,2.4,1.4,4.9,3,9.2,2.7.8,0,1.6,0,2.5-.3,1.3-.2,2.6-.8,3.6-1.3.7-.4,2-1,2.6-.9.2.4.2.5-.7,2.3-.5.7-.9,1.5-1.3,2.3-4.1,10.3-1.6,16.1,1.2,19.2,1.5,1.7,5.4,4,7.7,5.3.6.3,1.3.5,2,.9.6.2.9.4,1.3.5-.9,1.1-2.8,2.6-3.6,3.4-1.6,1.4-3.3,2.8-4.2,4.1-2.2,3.2-2.8,7.6-2,12.8.9,5.7,4.6,8.1,7.5,10.1,1.2.8,2.2,1.5,3.1,2.4,1.1,1.1,1.2,2.9.7,4-.2.8-.9,1.7-2.2,1.8-.4,0-1.1-.1-1.6-.3-.9-.2-2.1-.5-3.3-.4-5.2.2-8.5,3.8-11.5,6.9-2.4,2.4-4.2,4.6-6.6,4.6h-1.1c-1.4-.3-2.7-1-4.2-1.6-2.4-1-5.3-2.3-9.4-2.1h-.2c-4.1.2-6.9,2.8-9.3,5s-4,3.8-6.8,3.9l-1.6-.2c-3.1-.4-3.2-1.6-3.3-2.1h.5Z"/>
  <path class="st0" d="M944.8,164.3c1.1-8.6-1.5-12.7-4.4-17-.9-1.5-2-3.2-2.9-5.1-.9-2-.6-2.4.7-4.3.6-.9,1.4-2.1,2-3.5,1.8-4.3,2-13.1.6-17.2-.5-1.5-1.8-3.5-3.2-6-.9-1.6-2.7-4.6-2.9-5.4,0-.3,0-.4.8-1,.5-.4,1.2-1,1.6-1.8,5.7-8.2,5.8-19.5.4-26.4-.7-.8-1.4-1.6-2-2-1.2-1-1.4-1.3-1.1-3.3l.5-.7c6-9.9,11.7-19.3,4.5-32.2-.7-1.4-1.8-2.6-2.7-3.6-1.3-1.6-2.4-2.8-2.7-4.4s0-3.3.5-5.1c.7-3.6,1.8-8.5-3.1-12.4-2.2-1.8-5.1-2.7-8-2.6-1.1,0-2.1.2-3.3.5-4.8,1.3-9.2,5.1-11.3,9.9-3.9,8.4-.5,17.4,1.2,20.9.6,1.2,1.4,2.5,2.2,3.8.9,1.5,2.7,4.3,2.8,5.2,0,.9-.4,5.3-.6,6.1-.1.4-1.2,1.8-1.8,2.7-1.2,1.6-2.4,3.4-2.9,4.8-3.1,7.6-.2,13,2.4,17.8.8,1.5,1.5,3,2.2,4.5,1.5,3.9,1.1,4.6-.5,6.5-.9,1.4-2.2,3.1-3.1,6-1.4,4.9-.6,12.3,1.2,16.2.6,1.3,1.6,2.6,2.8,3.9s2.5,2.8,2.6,3.9c0,.8-1.3,2.9-2,3.9-.6,1.1-1.2,2-1.6,2.8-2.2,5-4.4,12.6-1.4,20.7.7,1.9,2.1,3.8,3.6,6,1.1,1.5,3.1,4.3,3.2,5.3,0,1-1.9,4.6-2.8,6.4-1.1,1.9-2,3.8-2.5,5.3-1.2,3.8-1.6,10.7-1.1,14.4.5,2.5,1.6,4.6,2.8,6.7,2.4,4.1,2.9,5.6.8,8.1-.9,1.1-1.6,1.4-2.6,1.4-.6,0-1.2-.1-1.9-.1-.8-.1-1.9-.2-2.9-.1-1.3,0-2.6.3-3.8.8-2.8,1-4.7,3.1-6.4,4.7-1.8,1.8-2.8,2.8-4.2,2.9l-2-.3c-1.4-.4-2.8-1.6-4.2-2.9-1.3-1.2-2.7-2.4-4.4-3.1-1.6-.7-3.8-1-5.9-1.1-3.4-.3-5.9-.5-6.1-1.9-.5-3.1.8-4.8,2.6-7.1,1.2-1.6,2.6-3.5,3.4-5.9s1.6-6.3,1.5-9.2c-.2-5.1-3.3-8.5-5.8-11.1-1.6-1.9-3.1-3.4-3.1-4.7,0-2.4,1.4-4.6,2.9-7.1,2.5-4.1,5.5-9.2,3.4-16.3-.8-2.9-2.8-5.2-4.5-7.3-1.9-2.3-3.5-4.2-3.4-6.3,0-1.6,1.3-3.8,2.5-6,1.6-2.8,3.4-6.2,3.9-10,.9-7-2.9-11-5.8-13.8-1.4-1.4-2.8-2.9-2.8-3.9.2-.9,1.9-3.4,2.6-4.7,1.2-1.8,2.2-3.5,2.7-5,3.1-7.9.4-11.1-1.8-13.5-1.3-1.6-1.9-2.4-1.9-4s1.4-3.6,2.6-5.5c1.1-1.6,2-3.2,2.6-4.7,3.2-8,.7-13.1-1.5-17.5-1.5-3.2-2.9-5.9-2.4-9.8.1-.9.6-2.1,1.1-3.4.6-1.8,1.3-3.6,1.5-5.5.5-3.6-.5-6.8-2.5-9.3-2.2-2.7-5.8-4.4-9.5-4.2h-.5c-8.2.3-14.4,4.5-17.5,12.2-3.5,8.3,0,14.1,2.7,18.7.8,1.5,1.8,3,2.5,4.5,2.4,5.4.7,7.2-2.1,10.5-2.2,2.5-4.7,5.4-5.2,10-.2,3.1,1.5,9.3,2.4,11.2.5,1.2,1.4,2.6,2.4,4,.8,1.1,2.2,3.3,2.4,4.1,0,1-1.3,3.5-2.1,5.2-.7,1.3-1.3,2.5-1.6,3.6-1.3,3.5-2.9,8.9-2.2,13.9.5,3.1,2.7,5.5,4.8,7.7,1.4,1.4,3.2,3.3,3.4,4.6,0,1-1.6,4-2.4,5.3-.6,1.2-1.2,2.3-1.4,3-4.1,10.4-2,16,2.5,21.2.6.7,1.3,1.3,1.9,1.8.8.7,2.1,1.8,2.1,2.4.1,2.2-1.8,5.6-3.6,8.8-2.4,4-4.8,8.1-5.1,12.7-.4,5,2.6,8.6,5.2,11.8,1.8,2.1,3.3,4.1,3.4,5.9,0,1.9-2.2,6.6-3.8,9.9-1.4,3-2.8,5.7-3.4,8.1-2.2,7.7-.7,15.6,3.9,21.3,3.6,4.4,8.6,6.8,14.1,6.6.9,0,1.9-.1,2.8-.3,1.6-.3,2.9-1.4,4-2.2.5-.4,1.1-.9,1.4-1,.5-.2.8-.3,1.3-.2,2.6,0,5.5,2.5,8.2,4.8,2.4,2.1,4.6,4,7.1,4.9,2.2.9,4.9,1.3,8,1.1,5.2-.2,12-2,15.7-6.7.8-1.2,1.4-2.2,1.9-3.2.8-1.5,1.2-2.3,2.2-2.8.2,0,.4,0,.6-.2.4,0,.7,0,1.3.4.8.4,2.1.9,3.8.9h0c7.5-.5,14.5-5.3,18.8-13.2,5.3-9.5,6-21.8,1.8-30.6-.5-1.1-1.2-2-1.9-3-1.1-1.4-2-2.8-2-4.1s1.4-3.6,2.4-5.4c1.8-3.3,3.6-7.1,4.1-10.5h.2Z"/>
  <path class="st0" d="M1236.8,20.8c-3.6-7.6-12.1-14.6-20.7-17-2.6-.7-5.1-1-7.4-.9-3.3,0-6.2,1-8.7,2.7-1.4.8-2.6,2.1-3.9,3.2-1.8,1.7-3.8,3.5-5.3,3.6-.2,0-.5,0-.7,0-1.4,0-2-.5-3.5-2-.6-.6-1.1-1.1-1.8-1.6-5.3-4.6-8.8-6.7-16.4-7-.4,0-.7,0-1.1,0-5.7.2-10,3.3-13.5,5.9h-.1c-2.7,2.1-5.3,3.9-7.7,4h-.2c-.5,0-1.6-1-2.2-1.3-.8-.6-1.6-1.1-2.5-1.4-4.1-1.8-7.4-2.6-10.7-2.5-3.6.2-7.2,1.4-10.8,3.8-5.5,3.7-13.8,13.2-14.5,21.5-.2,3.1,0,6.6,1.1,9.3,1.4,3.9,3.9,6.1,7.1,6.3.5,0,.9.1,1.4,0,4.7-.2,8.5-3.4,11.8-6.3,3.3-2.8,6.2-5.4,9.9-5.5.6,0,1.3,0,2,.3,1.1.1,1.9.7,2.9,1.4,1.5,1,3.5,2.2,6.5,2.3.5,0,1.1.1,1.5,0,2,0,3.8-.5,5.3-1,0,.3.1.5.1.6.2,2.3-.2,2.9-1.3,4.4-.8,1-1.8,2.4-2.5,4.5-1.8,5.7-1.1,11.9,2,18.4.8,1.7,1.8,3,2.7,4.4,2.1,2.9,3.2,4.6,2.2,8.4-.6,2.1-1.6,4.4-2.8,6.7-2.6,5.2-5.4,11.2-3.5,17.8.9,3.4,3.1,5.6,4.8,7.4,2.2,2.3,4.1,4.3,4.4,8.8.2,3.6-.7,5.1-2.2,7.6-.9,1.5-2,3.3-2.7,5.7-.8,2.7-1.4,7.8-1.4,10.3,0,5.2,2,8.5,3.9,11.6.8,1.4,1.6,2.9,2.4,4.5,2.2,5.6.9,8.2-1.2,12.5-1.1,2.1-2.4,4.9-3.2,8.2-1.1,4.7-1.2,9.4-.2,13.4.7,2.9,2.6,5.1,4.7,7.7,2.4,2.8,4.7,5.7,3.9,7.8-.1.4-1.1,1.6-1.5,2.2-1.3,1.7-2.4,3.3-2.8,4.5-.4,1.1-1.1,6.7-1.1,7.8,0,3.7,1.6,6.9,4.7,9.3,3.2,2.6,7.9,3.9,12.5,3.7,1.4,0,2.7-.3,3.9-.7,4.2-1.2,9.9-12.2,10.7-15.4,1.2-4.4,1.8-17.1-.4-21.6-.9-1.9-3.1-4.3-5.3-6.7-.9-1-2.9-3.3-3.5-4.2,0-1.1.5-4,.7-4.6.1-.6,1.1-1.9,1.6-3,.7-1.1,1.4-2.1,1.9-3.2,2.6-5.8,3.8-13.6,3.2-21.6-.4-4.2-2.4-7.3-4.1-10-1.5-2.2-2.8-4.2-2.8-6.3s1.2-3.9,2.2-6.1c1.1-2,2.4-4.3,2.7-6.6,1.2-6.9.1-18.1-3.6-24-1.1-1.5-2.2-2.4-3.2-3.2-1.5-1.1-1.6-1.2-.8-3.7.8-2.6,1.6-4.6,2.4-6.4,2.2-5.5,4-10,2-19.6-.8-4-2.2-7.4-3.5-10.6-.8-2-1.6-4-2.2-6-.7-2.4-.5-3.1.5-5,.5-1,.9-2.2,1.4-3.8.9-3.2,1.4-6.2,1.4-9.1l5.3,2.9h0c1.6.7,3.6,1.1,5.8,1,1.4,0,2.9-.3,4.4-.7,2.2-.7,3.8-2.2,5.1-3.5.8-.8,1.5-1.5,2.2-1.9.8-.4,1.5-.7,2.4-.7,2.1-.1,4.4,1.6,6.8,3.4,3.2,2.4,6.7,5,11.4,4.9.2,0,.6,0,.8,0,4.5-.5,8.9-3.8,11.3-8.3,2.1-4,2.2-8.3.4-12.1h-.4Z"/>
  <path class="st0" d="M205,148.8c.4-.9,2.2-3.9,2.8-5.1.7-1.3,2-1.8,2.5-2.7.6-1.1.8-3.8.7-5.1-.2-5.7-6-7.8-7.6-13-1.5-4.9-.7-13.7,1.2-18.5,1.1-2.7,6.9-10.2,6.8-11.7,0-1-1.6-3.1-2.2-4.1-.9-1.4-4.4-4.9-4.7-5.5-.5-1.2.4-2.3.3-2.4,0,0-1.2.2-2-.5-3.8-3.1-2.2-16.3.2-20.3,1.2-2.2,2.6-2.5,3.7-3.9,2.4-3,2.9-6.5,2.5-10.2-.8-9.2-5.9-17.2,4.6-23.7,8.1-5.1,13.6-3.3,18.5,4.4,6.4,9.9,4.7,20.9-.3,31.5-1.5,3.1-5.1,5.3-5.2,9.5,0,4,3,4.5,5.1,6.8,4.1,4.3,6.6,15.9,5.4,21.8-.3,1.3-3.8,9-4.6,10.7-2.2,4.6-6,6.5-2.7,11.8,2.6,4.1,8.1,7.6,8,14.2,0,.9-.9,1.4-.9,2.2s.6,1.8.5,2.9c0,.6-3.7,9.9-4.3,11-1,2.2-4.6,6.2-5.8,8.8-.4.8-.7,1.4-.7,2.3,0,2,5,8.8,6.1,11.7,1.6,4.5,2.1,8.2,1.1,12.9-2.1,9.5-10.2,18.8-5.6,28.7,1.3,2.9,4.5,6.1,5.6,9.3,1.9,5.1-.9,18.1-4.2,22.7-2.4,3.3-10.9,8-14.8,7.7-2.5-.3-9.1-4.2-9.8-6.5-1.9-6.3,1.9-14,1.4-20.2-.6-7.8-7.3-9.8-5.6-19.7.9-5.3,6.5-8.6,8.1-12.4.6-1.4,2.5-8.8,2.4-10.2-.2-3.9-5.6-8.2-7.4-11.3-3.7-6.5-2.3-17.2,1-23.8h0v-.2Z"/>
</svg>