<?xml version="1.0" encoding="UTF-8"?>
<svg id="Layer_2" xmlns="http://www.w3.org/2000/svg" version="1.1" viewBox="0 0 1185.3 229.6">
  <!-- Generator: Adobe Illustrator 29.8.7, SVG Export Plug-In . SVG Version: 2.1.1 Build 1)  -->
  <defs>
    <style>
      .st0 {
        fill: #fff;
      }
    </style>
  </defs>
  <path class="st0" d="M764.1,214.6c0,.3-.1.9-.1,1.8.4,3.1,2.4,5.7,5.1,6.6,1.3.5,3.1.7,4.7.7s.7,0,1.1,0c.1,0,.2,0,.3,0,1.6,0,5.4-.3,7.2-3.1,1.8-2.8,2.2-10.7,1.4-14-.4-1.3-2-3-3.5-4.5-.4-.2-.8-.5-1.1-.9h0c-1.5-1.7-3.1-3.5-4-4.9,0,0,0,0,0,0-2.8-4.7-2.7-9.1-2.5-13.2,0-3.4.2-6.8-1.1-10.6-1-2.5-2-3.4-3.1-4.3-.1-.1-.3-.2-.4-.3-.6-.5-1.4-1.1-2.1-2.1-2.4-3.1-1.3-6.3-.2-9.8.7-2.1,1.3-4.5,1.1-6.6-.5-2.3-1.6-3.6-2.9-5.3l-.3-.3c-1.4-1.5-2.4-2.8-3.1-4.3,0,0,0-.2-.1-.3-2.2-5.7-.6-8.6,1-11.4,1-1.8,1.9-3.6,1.9-6.2,0,0,0,0,0,0,0-.3,0-.7-.1-1.1-.4-2,.7-3.9,2.6-4.6h.4c.4-.3.9-.5,1.4-.6h.2c2.9-1,5.2-1.7,7.3-4.9,1.3-1.9,4.5-11.1,4.7-13.2,0,0,0,0,0,0,.5-4.7,0-7.5-2.1-11.6-.4-.8-.9-1.6-1.5-2.3,0-.1-.1-.2-.2-.3h0c-1.7-2.9-3.3-5.6-.8-10.1.7-1.2,1.8-2.2,2.9-3.3l.3-.3c.9-.8,1.7-1.5,2-2.2,0,0,0-.1.1-.2,2.4-4.6.8-12.5-2.2-17.1-.9-1.3-2.6-2.7-4.4-4.2l-.5-.4c-3.1-2.5-5.1-4.2-5.5-6.4,0,0,0-.1,0-.2-.3-2.5.8-5.1,2.1-8l.2-.5c.5-1.2,1-2.3,1.3-3.3,1.8-6.9,0-16.2-4.2-20.3-2.9-2.9-5.6-4.2-8.9-4.2h-.4c-1.5,0-3.5.5-5.5,1.1-1.4.4-2.7,1.3-3.8,2.1h0c-2,1.6-3.6,2.3-5.4,2.5-.1,0-.3,0-.4,0h-.5c-1.4,0-2.6-.7-3.3-1.8v-.2c-.5-.6-.9-1.1-1.1-1.5-.3-.6-.7-1.1-1.1-1.5-1.7-1.7-4.5-2.6-7.6-2.6s-.5,0-.8,0c0,0,0,0,0,0h-.7c-3.8.3-7.3,2-9.1,4.3-.3.4-.6,1-.9,1.6-.1.3-.3.5-.4.8-.7,1.5-1.5,3.4-4,4-.3,0-.6.1-.9.1-1.8,0-3.4-1-4.8-3.1,0,0,0,0,0,0-.3-.5-.7-.9-1.2-1.4-1.5-1-3.3-1.5-5.4-1.5s-.5,0-.9,0c0,0,0,0,0,0-.4,0-.8,0-1.3,0-.6,0-1.2.1-1.9.1h0c-1,.1-2,.2-3,.2h0c-.9.8-2.3,2-3.3,2.6-2.3,1.7-4.5,3.3-6,6.4-2.3,4.6-4.2,13.9-3.8,18.8,0,0,0,0,0,0,.2,2.8,1.8,7,3.3,9.6.2.4.6,1,1.1,1.6l.5.7c.6.8,1.6,2.2,2.1,3.1.5.8.7,1.8.5,2.7-.2,1.4-1,2.5-1.7,3.4h0c0,.2-.2.3-.2.4-.1.2-.3.4-.4.6,0,0,0,0,0,0-.3.4-.6.8-.8,1.1,0,0,0,0,0,0-6,11-6.8,20.4-2.6,28.8.2.3.3.5.5.8.3.5.5.9.8,1.3,1.8,2.5,2.6,3.8,2.6,5.3s-1,4.3-2.6,8.2l-.6,1.5c-.7,1.8-1.4,3.5-1.7,4.7-2.1,9.1,1.7,16.3,5.8,22.1.7.9.9,2.1.6,3.2-.2.7-.5,1.2-.6,1.5,0,0,0,.2-.1.3l-.7,1.5c-1.2,2.7-2.5,5.5-3.2,8.4,0,0,0,0,0,0-1.7,6.2-.9,15.2,1.8,20.3.5,1,1.2,1.8,1.9,2.6h0c2,2.2,2.1,5.3.4,8.3-.4.6-.7,1.1-1,1.6-.3.4-.5.8-.8,1.3,0,0,0,0,0,0-3.2,4.9-5.2,8.2-4.3,16,.4,3.4,2,5.2,3.9,7.3l.2.2c1.6,1.7,3.3,3.6,3.7,5.9.7,3.5-.2,6.4-.9,8.6l-.2.7c-.7,2.7-1.3,4.8-.4,7.7,1,3,3.4,4.7,6.7,5h.9c3.8-.2,7.3-2.4,9-5.8,2-4.2,2.4-14,1.3-18.2-1-3.3-2.4-5.2-4-7.2h0c-.2-.3-.3-.5-.5-.7h0c-.7-1-1.6-2-2.3-3.2-3.3-5.7-.1-10.1,2.9-14.4,1.5-2,2.8-3.8,3.5-5.9,0,0,0,0,0,0,2.2-6,2.1-8.7-.9-14.2-.7-1.4-1.5-2.6-2.5-3.9l-.2-.4c-2.2-3.1-4.3-6.1-1.7-12.3,2-5.2,11-14.5,15.7-16.3,2.1-.7,8.5-2.4,11-2.6,0,0,.3,0,.3,0,.2,0,.3,0,.5,0,1,.1,2.6.6,4.7,1.3,1.1.4,2.3.9,3.2,1,2.4.4,4.4.6,6.6.6s2.7.8,3.4,2c.7,1.2.7,2.7,0,4-.2.4-.3.7-.4,1-1.1,6.3.4,8.5,2.5,11.5h0c1,1.3,2,2.8,3,5,1.4,3,1.4,4.4.8,6.8h0c0,.5-.2.9-.3,1.3-.2.7-.4,1.5-.4,2.3,0,0,0,0,0,0-.6,6.8,1.2,9.3,3.1,11.9,0,0,0,0,0,0h0c1.4,2.1,2.7,4.1,3.2,7.7.4,2.9.2,5.2,0,7.2v.9c-.5,3.8-.9,7.1,2,12.4.6,1.1,1.3,1.9,2.2,2.9l.5.5s0,0,0,0l.3.4c1.5,1.8,3.1,3.8,3.4,7.7,0,.1,0,.2,0,.3v.5c0,.2,0,.4,0,.6ZM756,100c-.6-.1-1.2-.3-1.7-.3s-.1,0-.3,0c0,0,0,0,0,0-3.4.1-5.8,2.7-8.4,5.5l-.3.4c-.3.3-.6.6-.9.9-2.2,2.3-4.8,5-8.6,5h-1.1c-.3,0-.6,0-.8,0-1.4-.3-2.6-.8-3.7-1.3-.4-.2-.8-.3-1.2-.5h-.3c-2-1-4-1.9-6.7-1.9s-.4,0-.8,0c0,0,0,0,0,0s0,0,0,0h0c-2.6.2-4.5,1.9-6.7,4l-.3.3c-2.4,2.2-4.9,4.6-9,4.7,0,0,0,0-.1,0-.2,0-.3,0-.5,0l-1.6-.2c-4.8-.6-6.3-3.2-6.7-5.3,0-.4-.1-.9,0-1.3-.2-3.9,1.6-7.5,3.3-10.9l.6-1.1.2-.4c2.4-4.6,4.9-9.4,4.2-15.4-.4-3.5-2.1-4.4-4.3-5.5l-.3-.2h-.3c-1.7-.9-3.7-1.8-4.5-4.4-1-2.7.6-6.1,4-12.6l.5-.9c2.2-4.2,5-9.3,5-12.6s-2.5-6.8-4.8-9.2c-2-2-4.9-4.8-4.5-8.9.2-1.5,1.1-2.7,2.5-3.3.5-.2,1-.3,1.5-.3.9,0,1.8.3,2.5.9.5.4.9.8,1.2,1.2,0,.1.2.2.3.3.1.1.2.2.4.3h.1c1.8,2.1,3.4,3.7,5.9,3.7h.6c1.7-.3,6.3-3.7,7.7-5.3,0,0,.1-.1.2-.2.8-.8,1.1-1.5,1.5-2.2,0,0,0-.1,0-.2,1.1-1.9,3.1-3.1,5.4-3.1s.5,0,.7,0c0,0,0,0,0,0,.2,0,.4,0,.5,0,3.2,0,5.3,1.3,7.2,2.4l.7.4c1.9,1.1,3.4,2,5.8,2s.5,0,.7,0c0,0,.2,0,.3,0,.6,0,1,0,1.2,0,.2,0,.4-.1.7-.2.7-.1,1.6-.5,2.3-.9,1.1-.6,2.8-1.4,4.4-1.4s.6,0,.8,0c1.3.2,2.4,1,2.9,2.2,1.1,2.2.3,3.8-.7,5.9,0,.2-.2.4-.3.5-.3.4-.6,1.1-.9,1.7-1.8,4.7-3.2,11.1.5,15.3.4.4,1.7,1.7,6.6,4.5.1,0,.2.1.4.2h0c.4.2.8.4,1.4.6.3,0,.5.2.7.3h0c1.3.4,2.3,1.4,2.7,2.6.4,1.3.2,2.7-.7,3.8-.8,1-1.9,2-2.9,2.8h0c-.4.4-.7.7-.9.9,0,0-.1.1-.2.2l-.6.6c-1.1,1-2.4,2.1-2.9,2.9-1.6,2.3-2,5.8-1.4,10.2.6,4,2.9,5.6,5.6,7.5l.2.2c1.3.9,2.5,1.7,3.7,2.9,2.4,2.4,2.5,5.9,1.6,8.2-.8,2.5-3,4.3-5.7,4.5-.1,0-.2,0-.3,0-.7,0-1.7-.1-2.7-.5ZM661.1,175.2c1.3-6.6-.2-10.3-3.8-15.6,0,0,0,0,0,0,0-.1-.2-.3-.4-.5h0c-.4-.2-.8-.5-1.1-.9-.9-.9-1.7-2.1-1.8-3.7-.2-3.6,1.4-5.7,3.2-8,.7-.8,1.5-2,2.2-3,2.2-4.1,2.6-9.7.9-15.1-1.5-5.1-4.8-9.2-8.9-10.9-.2,0-.4-.1-.7-.2-.2,0-.4,0-.6-.1h-.3c-.3,0-.7-.1-1-.2-.2,0-.5-.2-.7-.3h-.1c-.6-.2-1.2-.4-1.5-.6-.2,0-.3-.1-.4-.2-1.9-.4-3.3-2.1-3.3-4.1,0-4.9-2.2-9.4-6.5-13.4-.9-.9-1.4-2.1-1.4-3.3,0-1.2.6-2.3,1.6-3,.2-.2.5-.3.7-.5h0c.3-.3.6-.5.9-.7.3-.2.6-.4.8-.6,1-.7,2-1.3,2.8-2.2,3.5-3.9,5.3-9,5-14-.2-3-2.4-5.9-4-8h0c0-.2-.1-.3-.2-.4h0s0,0,0,0c-.3-.4-.8-1-1.1-1.8-.7-1.6-.3-3.5.9-4.6.5-.5,1-.8,1.4-.9.3-.2.5-.4.6-.7.9-2.1,2.1-10.8,1.9-13-.3-3.8-1.6-7-3.9-9.6-1.3-1-4.1-2.9-5.9-3.6-1.4-.3-3.1-1.1-4-1.5-1.5-.8-2.4-2.3-2.3-4s.5-2.9.8-3.9l.2-.6c.7-2,1.2-4.2.6-6.2-.5-1.2-2.4-5.7-2.7-6.3-.9-1.3-3.7-4.4-4.7-5-1.6-.9-10.1-3.6-12.1-3.9h-.8c-2.3-.3-4.8.6-8,2.7l-.4.3c-.8.6-1.7,1.4-2.6,2.2,0,0-.2.2-.3.2-.3.3-.7.6-1.2,1-2.1,1.8-3.1,2.7-4.1,3.1-.6.2-1.2.3-1.8.3h-.6c-.1,0-.2,0-.4,0-2.9-.3-5.7-1.9-8.7-3.8-2.3-1.5-4.2-2.6-6.2-3l-1.2-.2c-.5-.1-1-.2-1.1-.2,0,0,0,0-.1,0h-.1s-.3,0-.3,0c0,0,0,0,0,0-5.8-.2-11.1,2-15.2,6.2-4.9,5-7.3,12.2-6.5,19.3,0,0,0,0,0,0,0,.9.5,2.1.9,3.5l.3,1c.7,2.3,1.5,4.6,1.4,6.5-.1,3.1-2.2,6.2-4.2,8.9l-.5.7c-1.1,1.8-2.2,3.4-2.8,4.9-1.7,4.6-1.3,9.6,1.1,14.1.5,1,1.2,1.9,1.9,2.7l.4.5c1.4,1.6,2.6,3,3.2,5.2.2.9.2,1.8-.1,2.6-.5,1.1-.9,2.3-1.4,3.4-.5,1.3-1.1,2.6-1.6,3.9-.5,1.2-1,2.4-1.5,3.6h0c-.4,1.1-.9,2.2-1.3,3.2-.3,1.1-.9,1.8-1.2,2.1-.6.9-1,1.6-1.3,3.7-.9,7.4.3,9.6,2.5,13.8v.2c.8,1.3,1.6,2.8,2.2,4.1.4,1,.6,1.3.7,1.7.2.5.2,1,.2,1.5,0,1.4-.8,2.3-1.1,2.7,0,0,0,0,0,0h0s0,.1,0,.1c-.4.6-.7,1.1-1,1.9l-.7,1.7c-2.8,6.8-7.5,18-4.9,25.1,0,0,0,0,0,0,.4,1.3,1.3,2.5,2.3,3.8l.4.5c2.2,3,4.2,5.8,3.9,9.8,0,1.7-.9,3.2-2.2,5.1-.2.3-.4.6-.6,1,0,0,0,0,0,0l-.2.2c-.5.8-1,1.6-1.2,2.1,0,0,0,.2-.1.3-5.6,11.9-4.5,19.5,3.7,26.2,0,0,0,0,0,0,.2.2.3.2.9.4,0,0,.2,0,.2.1,1.2.6,3,1.4,3.6,3.7,0,.2.1.5.1.7,0,.3.1.7,0,1.1s-.2,1.2-.5,1.8c-.1.3-.3.6-.5.9-.2.3-.5.8-.8,1.4-1.1,2.9-1.4,5.7-.8,9.6.6,4.4,5.7,8.3,9.9,9,.3,0,.7,0,.9.1,0,0,.1,0,.2,0,.3,0,.5,0,.7,0,4.1.3,9-.9,12.1-3,.7-.5,1.3-1.2,2-1.9l.4-.4c1.1-1.2,2.4-2.6,4.1-3.3,1.3-.6,2.5-1.1,3.9-1,2.6.2,4.2,2.4,5.4,3.9.8,1.1,1.6,2.3,2.8,3.1,2.2,1.7,4.9,2.7,7.8,2.9s.3,0,.4,0c4.9.2,9.4-1.8,12.7-5.5,1-1.1,1.9-2.6,2.8-4.5.5-.9,1-2,1.6-3,.4-.7,1.1-1.7,1.8-2.3.8-.7,1.8-1.1,2.9-1s2.2.8,2.7,1.2c.2.1.4.2.5.3l.3.2c.6.4,1.2.9,1.8,1.1,0,0,.2,0,.3.1,2.2,1.1,4.5,1.8,6.6,2s.3,0,.5,0c4.1.2,7.9-1.1,10.8-3.8,4.2-4,5.5-10,3.7-16.3-.4-1.6-1.1-2.8-1.6-3.4,0-.1-.2-.3-.2-.4-1.8-3.3-1.6-6.6.8-9.1,0,0,0,0,0,0,0,0,0,0,.1-.1,1.4-1.3,2.7-2.1,4.1-2.9,0,0,0,0,0,0,2.7-1.5,5-2.8,5.9-7.6ZM572.3,34.8c0-.1-.2-.2-.2-.3-.1,0-.3-.2-.4-.3-.5-.3-1-.8-1.4-1.3-.8-1.1-1.3-2.5-1.5-4.1-.2-1.6.4-3.1,1.7-3.9l.4-.2c1.3-.8,2.1-1.3,3-1.6.3-.1.7-.2,1.2-.2.3,0,.7,0,1.2,0s.4,0,.6,0c3.2.5,5.6,3.1,6.9,4.5,1.8,1.9,3.4,3.5,5.7,3.7h.2c1.6,0,5.7-1.4,7.2-2.5,0,0,.1,0,.2-.1.5-.3,1.2-1,1.8-1.7.2-.2.5-.5.6-.7,1.3-1.5,2.8-3,4.5-3.7.7-.5,1.6-.7,2.5-.7h.6c.2,0,.4.1.7.2,3.4.9,3.8,4,4.3,7,0,.1,0,.3,0,.4,0,.6.2,1.3.4,2.2v.3c1.5,4.9,4.2,5.4,7.6,6,0,0,0,0,0,0,2.9.6,5.6,1.2,7.5,3.6,0,0,.1.1.2.2,1.6,2.4,2.5,7.4,1.2,9.9-.3.6-.7,1.1-1.2,1.4,0,0-.6.4-1,.7h-.1c-1.1.8-2.3,1.6-3.1,3.8-1.8,4.4,0,6.6,2.9,9.7,0,0,0,0,0,0l.3.3c1.6,1.7,3.4,3.7,3.6,6.4.5,5.3-2.5,7.3-5.7,9.3h-.2c-2,1.4-3.9,2.7-5.1,5.1,0,0,0,0,0,0-.6,1.1-.6,2.1-.6,3.5,0,0,0,.5,0,.6,0,1.6-.1,2.9-.9,5,0,0,0,.1,0,.2-.3.6-1.3,2.7-3.5,3.2-.4.1-.9.1-1.3.1h-.4c-2.1-.2-4-1.4-6.6-3l-.7-.4c-1-.6-1.9-1.2-2.8-1.6h-.2c-1.7-.7-3.6-1.5-5.5-1.7s-.2,0-.4,0c0,0,0,0,0,0-.9,0-1.8,0-2.7.5-.4.2-1.2.9-1.9,1.6l-.5.4c-2.4,2.5-4,3.8-6,3.9-.2,0-.6,0-.6,0-1.5-.1-2.5-.9-3.1-1.4-.1,0-.2-.2-.4-.3-.1,0-.2-.1-.3-.2-.9-.8-1.9-1.6-3.4-1.7s-1.4,0-2.1.4c-1.2.4-1.8.9-2.1,1.2-.8.7-1.8,1.1-2.9,1s-.9-.2-1.4-.4c-1.5-.7-2.4-2.2-2.5-3.8-.1-3.7,1.4-6.8,3-10l.3-.7c1.5-2.9,2.7-5.4,3.2-8,.4-2.6.2-4.6-.2-6.6,0,0,0,0,0,0v-.4c-.2-1-.3-2-.4-3.3l-5.9-6.1c-.8-.8-1.2-1.8-1.2-2.9,0-3.3,1.6-5.1,3.3-7.1,0,0,0,0,0,0l.4-.4c.7-.7,1.3-1.3,1.7-2.1,0,0,0,0,0,0,2-3.4,2.9-9.6,1.1-12.9ZM641.9,177.1h0s-.1.1-.1.1c-.1,0-.3.2-.4.2-.2,0-.5.4-.8.6-.1.1-.3.2-.4.3-1.9,1.8-7.6,7.6-5.8,13.3,0,.3.2.5.2.8.2.2.3.5.5.7h0c.7.9,1.1,1.7,1.3,2.6.4,1.5,0,3.1-1.2,4.1-.8.7-1.8,1-2.8.9s-1-.2-1.4-.4c-.8-.4-1.6-.9-2.3-1.4h0c-.2-.2-.4-.3-.6-.4,0,0,0,0,0,0-1.5-1.1-2.5-1.6-2.9-1.7-.5,0-1-.2-1.4-.3-.4,0-.8-.2-1-.2s-.2,0-.2,0c0,0-.2,0-.3,0-4.7-.3-6.7,2.8-9,6.4l-.5.8c-1.2,1.8-2.4,3.7-4.3,5.4-.6.5-2.4,2.2-4.9,1.9s-4.6-2.4-6.6-4.6c0,0-.8-.9-.8-.9-1.7-2.1-3.5-4.2-5.4-4.9-1.1-.4-2.4-.7-3.6-.8-3.6-.2-7.5,1.6-11,5.1-.1.1-.2.2-.4.3,0,0-.2.3-.4.7-.1.2-.2.4-.4.6-.2.2-.4.6-.7,1.1h0c-.8,1.2-2.1,1.9-3.5,1.8s-.7-.1-1-.2c-1.7-.6-2.9-2.4-2.8-4.2s.2-1.7.7-2.7c0-.2.2-.5.3-.8.2-.5.4-1,.4-1.5,0,0,0,0,0,0,.5-3.1-.1-6.4-1.7-8.9,0,0,0-.1-.1-.2-.3-.5-1.2-1.2-1.7-1.7-.2-.2-.4-.3-.6-.5-1.1-.9-1.9-1.7-2.4-2.4,0,0,0,0,0-.1-2.5-3.8.4-8.6,3.2-13.1l.6-1c2-3.1,3.9-6.1,4.2-8.4.6-5-1.4-7.7-3.8-10.9l-.2-.3c-1.6-2.2-3.5-4.9-3.9-8.6,0-.8,0-1.6.4-2.3l8.9-17.5c0-.4.2-.8.4-1.1l.3-1.6c.3-1.3,1.2-2.4,2.4-2.8.5-.2,1.1-.3,1.7-.2s1.5.3,2.1.8c.3.2.4.3.6.4h0c1.4.5,3.1,1.2,4.8,1.3s.4,0,.7,0c0,0,0,0,0,0,1.6,0,3.2-.2,4.6-.7,1.6-.7,2.9-2,4-3,1.8-1.9,3.8-3.8,7-3.5s.4,0,.6,0l1.3.3c.9.2,2.3.7,4.5,2.7.7.6,1.4,1.1,1.9,1.4,2.6,1.3,4.7,2,6.6,2.1s3.2-.3,5.2-1.3c.6-.3,1.4-.5,2.1-.4s1.1.2,1.6.5c1.2.6,2,1.8,2.2,3.1.7,4.4,2.6,7.3,5.9,8.8.9.4,1.8.7,2.8,1l.6.2c2.1.6,5.4,1.5,7.6,4.7,0,0,0,.1.1.2,1.9,3,1.3,6.3-1.6,8.7-.2.1-.3.3-.5.4h0c-.5.5-1,.9-1.4,1.4-4.4,5.1-4.8,11.3-1.1,16.6.5.6,1.3,1.5,2.3,2.3,0,0,0,0,0,0l.3.3c2.2,2,3.4,3.3,3.9,4.9.1.5.2.9.2,1.4-.1,2.5-2,3.6-3.1,4.2ZM851.4,229.4c-1.9,0-3.6-.3-4.9-.9,0,0,0,0,0,0-1.9-.7-3.8-2.4-5.9-4.2h-.1c-3.2-2.8-6.4-5.6-10.3-5.8-.2,0-.5,0-.7,0-1,0-1.7.2-2.4.5-.8.3-1.4.8-2.3,1.5h-.1c0,.1-.4.4-.4.4-.7.5-1.4,1.1-1.9,1.2,0,0,0,0,0,0-.6.1-1.3.2-2,.2s0,0,0,0c-.2,0-.4,0-.6,0-4,0-7.6-1.8-10.4-5.2-3.8-4.7-5-11.4-3.2-17.8,0,0,0,0,0,0,.4-1.7,1.4-3.7,2.4-5.9.2-.5.5-1.1.7-1.6,3.1-6.4,4.2-9.5,4.2-11.7s0-.1,0-.2c-.2-3.1-2.3-5.9-4.3-8.3h0c-2.3-2.9-4.5-5.6-4.2-9,.2-3.8,2.5-7.6,4.5-11,0,0,0,0,0,0,2.1-3.7,4.3-7.6,4.1-11,0-2.3-1.9-3.9-3.3-5.2h-.2c-.5-.6-1.1-1.1-1.5-1.5-3.7-4.3-5.2-8.5-1.8-17.3,0-.1,0-.2.1-.3,0-.2.5-1.1.7-1.6h0s.3-.6.3-.6c1.1-1.8,2.9-5.1,2.9-7.3s0-.4,0-.6c-.3-2.3-2-4.3-4.5-6.8-1.9-2-3.4-3.7-3.7-5.5-.4-3.2.2-7.2,2-12,0-.1,0-.2.1-.3.2-.7.7-1.8,1.3-2.8,0,0,0,0,.5-1.1,1.3-2.7,2.1-4.4,2.1-6s0-.7-.1-1c-.4-1.8-2.4-4.6-3-5.5-1-1.4-1.6-2.5-2-3.2,0,0,0,0,0,0-.8-1.7-2.2-7.2-2.1-9.3.4-3.3,2.3-5.6,4.2-7.7l.2-.3c2.7-3.2,5.9-6.9,2.5-14.6-.5-1.1-1.1-2.1-1.7-3.1-.3-.6-.6-1.1-.9-1.6,0,0,0,0,0,0v-.2c-2.6-4.3-5.2-8.7-2.5-15.1,2.5-6.2,7.2-9.5,13.9-9.8h0c.2,0,.5,0,.5,0,.1,0,.2,0,.4,0,2.2,0,4.4,1.1,5.8,2.7,1.4,1.8,2,3.9,1.7,6.3,0,0,0,0,0,0-.1,1.2-.5,2.4-1,3.9l-.3.8v.3c-.6,1.3-1.2,2.6-1.3,3.9-.6,4.8,1,8.2,2.5,11.5l.2.5s0,0,0,0c2.1,4.3,3.9,7.9,1.4,14.4-.5,1.2-1.2,2.5-2.2,3.9,0,0,0,0,0,0l-.4.7c-1.3,2.1-2.8,4.5-2.8,7.1s1.4,4.8,2.8,6.6c0,0,.1.1.1.2,1.8,1.9,3.3,3.6,1,9.4,0,0,0,.1,0,.2-.5,1.4-1.8,3.4-2.2,4.1,0,.1-.1.2-.2.3-.2.4-.5.8-.8,1.4h0c-1.1,2-1.9,3.2-2.1,4.4,0,.3,0,.6,0,.9,0,2.5,1.8,4.6,4,6.8,2.9,2.8,5.3,5.6,4.6,10.5-.4,3.1-2,6.1-3.4,8.6l-.4.6c-1.4,2.5-2.6,4.8-2.7,7.3-.1,3.5,2.1,6.2,4.2,8.8l.5.6c1.5,1.8,2.8,3.5,3.4,5.4,1.6,5.6-.8,9.6-3,13.2l-.2.4c-1.6,2.7-3.2,5.4-3.2,8.8s1.7,4.6,3.3,6.5c.2.3.5.5.7.8,0,0,.1.1.2.2,2.5,2.6,4.6,5,4.7,8.5,0,2.3-.6,5.8-1.3,7.8-.6,1.9-1.8,3.4-2.8,4.8-1.9,2.5-4.1,5.3-3.4,10.2.6,4.5,5.4,4.9,9.6,5.3h.1s0,0,0,0c2.7.1,4,.5,4.6.8,1.2.5,2.2,1.4,3.2,2.4,1.7,1.6,3.5,3.2,5.8,3.8.2,0,.3,0,.5.1l2,.3c.2,0,.4,0,.6,0s.2,0,.3,0c2.9-.2,4.6-1.9,6.7-4.1.2-.2.4-.4.7-.7,1.4-1.3,2.7-2.6,4.3-3.2,0,0,.1,0,.2,0,.8-.3,1.6-.5,2.3-.5s.3,0,.4,0c.1,0,.3,0,.5,0,.4,0,.9,0,1.5.1.2,0,.3,0,.5,0s.4,0,.7,0c.4,0,.8,0,1.2,0,2.3,0,4.1-.9,5.7-2.9,4.1-4.9,1.7-9.1-.4-12.7-.9-1.7-1.9-3.5-2.3-5.4-.4-3.1,0-9.4,1-12.6.4-1.2,1.2-2.9,2.2-4.6,0,0,0,0,.5-1,1.9-3.8,2.8-5.8,2.8-7.4s0-.3,0-.4c-.1-1.4-.8-3-3.9-7.3l-.5-.8c-1.1-1.7-2.1-3.1-2.6-4.3-2-5.3-1.5-11.3,1.3-17.8.1-.2.3-.6.6-1h0c.2-.5.5-.9.8-1.4,2.6-3.8,2.6-5.5,2.6-6s0-.2,0-.4c-.2-2.4-1.9-4.4-3.6-6.3-1-1.1-1.8-2.1-2.1-2.9-1.4-3.1-2.1-9.5-1-13.5.6-1.9,1.4-3.1,2.2-4.3h0c0-.2.2-.3.3-.5,2.6-3.2,2.8-5.5,1-10.3,0,0,0-.1-.1-.2h0c-.7-1.6-1.4-3.1-2.3-4.7-2.5-4.6-4.6-8.6-2.2-14.5,0,0,0,0,0,0,.2-.6.8-1.8,2.4-3.9,0,0,0-.1.1-.2.2-.3.4-.6.6-.9.9-1.2,1.5-2.1,1.7-3.1.3-1.3.7-6.1.7-7.1s0-.3,0-.4c-.2-1.5-1-3-2.8-6l-.5-.8c-.8-1.3-1.5-2.5-2-3.5-1.1-2.3-4.5-10.4-1.1-17.6,1.6-3.7,5-6.7,8.7-7.7.9-.2,1.6-.4,2.3-.4s0,0,0,0c.2,0,.3,0,.4,0,1.9,0,3.7.6,5,1.7,2.8,2.2,2.5,4.6,1.7,8.3h0c-.5,2-1,4.4-.5,6.9.5,2.4,1.8,4.1,3.1,5.7,0,0,.5.6.5.6h0c.7.9,1.6,1.9,2,2.7,0,0,0,0,0,0,6.1,11,1.5,18.6-4.3,28.3l-.4.6c-.4.5-.6,1.1-.7,1.7-.5,3.3.1,5,2.5,7,.1,0,.2.2.3.2.2.2.9.9,1.2,1.2,4.3,5.6,4.1,15-.6,21.7-.1.2-.2.3-.3.5,0,0-.2.2-.5.5-.8.6-2.3,1.8-2.3,4.1s0,.7.1,1c.2,1,.9,2.2,2.6,5.2.3.4.5.9.7,1.2.4.7.8,1.4,1.1,2,.8,1.3,1.5,2.6,1.8,3.4,1.1,3.3.9,11.2-.5,14.5-.5,1.1-1.1,2.1-1.6,2.8-1.7,2.5-2.7,4.4-1,8.2.8,1.8,1.8,3.3,2.6,4.6,0,0,.6,1,.6,1.1,2.4,3.6,4.5,6.8,3.8,13.6-.2.4-.3.8-.4,1.2-.4,3.1-2.3,6.7-3.6,9.2l-.4.7c-1.5,2.6-2.5,4.7-2.5,6.7s1.4,4.7,2.8,6.5l.3.5c.5.7.9,1.3,1.2,1.9,3.7,7.8,3,18.7-1.7,27.2-3.5,6.5-9.3,10.7-15.4,11.2-.6,0-1.2-.2-1.7-.4-1.3-.8-2.4-.9-3.3-.9s-1.1.1-1.6.3c-.3,0-.5.2-.8.3-2.1,1.1-3,2.7-3.9,4.4v.2c0,0,0,0-.1,0-.4.8-.9,1.6-1.6,2.7-2.8,3.5-8.6,4.9-12.7,5.1-.5,0-.9,0-1.3,0ZM1144.4,29.9c-1.2,0-2.4-.2-3.4-.6l-5.1-2.8c-.6-.3-1.2-.5-1.9-.5s-1.4.2-2,.6c-1.2.7-2,2-2.1,3.4,0,2.4-.5,5.1-1.4,8.1-.5,1.5-.8,2.5-1.2,3.1-1.4,2.6-1.9,4.4-1,8,.6,2.2,1.4,4.3,2.2,6.4v.2c1.2,3.1,2.4,6.2,3,9.8,1.5,8.5,0,12.1-2.2,17.5-1.1,2.3-1.9,4.4-2.7,6.8-1.2,3.5-1.2,5.7,2,8.1.7.6,1.5,1.2,2.2,2.3,2.9,5.1,3.6,15.3,2.4,21.3,0,0,0,0,0,0-.2,1.6-1.3,3.5-2.3,5.2,0,0-.2.4-.3.5-.2.4-.4.8-.6,1.2h0c-.9,1.9-2,4-2.1,6.6,0,3.4,1.8,6.3,3.2,8.6h0c1.5,2.6,3,5.1,3.2,8.2.4,7.3-.9,14.5-3.4,19.9-.3.6-.8,1.3-1.3,2.1l-.4.7c0,.2-.2.3-.3.5-.1.3-.4.7-.6,1.1-.5.8-1,1.6-1.3,2.6-.4,1.2-.9,4.2-1,5.6s.2,1.5.6,2.2c.9,1.5,3.7,4.7,3.7,4.7,1.8,2.1,3.9,4.4,4.5,5.8,1.4,3.1,1,14.5-.3,19.1-1,3.7-6.5,12.1-8.3,12.7,0,0,0,0,0,0-1.1.4-1.9.5-2.7.5s0,0,0,0c-.3,0-.6,0-.8,0-3.5,0-6.8-1-9-2.9-2.1-1.7-3.1-3.7-3-6.3s.8-5.8,1-6.6c.1-.3.6-1.2,2.3-3.5,0,0,0-.1.1-.2,0-.1.2-.3.4-.5h0c.7-1,1.3-1.8,1.6-2.7,1.7-4.4-1.9-8.8-4.3-11.7l-.4-.5c-1.7-2.2-3-3.8-3.4-5.7-.7-3.4-.6-7.5.5-11.7.8-3.1,2.1-5.7,3-7.4h0c0,0,0-.2,0-.2,2.3-4.6,4.3-8.5,1.7-15.7,0-.1,0-.2-.1-.3-.8-1.7-1.6-3.3-2.4-4.7,0,0,0,0,0,0-1.7-2.8-3.2-5.5-3.1-9.7s.7-7,1.5-9.3c.6-1.9,1.5-3.3,2.3-4.7h0c1.7-2.9,3.1-5.2,3-10.1-.2-6-2.9-8.9-5.2-11.4l-.2-.3c-1.4-1.6-2.9-3.2-3.5-5.5-1.3-5.1.8-9.7,3.6-15.1,1.5-2.7,2.6-5.3,3.3-7.5,1.7-5.8-.4-8.8-2.5-11.8-.2-.4-.5-.7-.7-1.1-.6-1-1.2-1.8-1.6-2.8-2.5-5.7-3-11-1.4-15.7.5-1.5,1.2-2.5,1.9-3.3,0,0,0,0,0,0,1.6-2.1,2.5-3.6,2.3-7.1,0-.3,0-.5,0-.7,0-1.1-.7-2.2-1.6-2.9-.7-.5-1.5-.8-2.3-.8s-.9,0-1.3.2c-1.2.4-2.6.8-4,.8s-.4,0-.6,0c0,0-.1,0-.2,0-.2,0-.5,0-.7,0-1.8,0-3-.8-4.2-1.6h-.1c-1-.8-2.2-1.7-4-2-1.2-.4-2.3-.4-3-.4s0,0,0,0c-5,.1-8.7,3.2-12.2,6.2l-.5.4c-3.3,2.9-6.3,5.2-9.5,5.4-.1,0-.3,0-.4,0,0,0,0,0,0,0-.2,0-.4,0-.6,0-1.5-.1-2.6-1.4-3.4-3.7,0,0,0,0,0,0-.7-1.9-.9-4.6-.7-7.7.7-6.8,8.3-15.4,13.2-18.7,2.9-1.9,5.8-3,8.8-3.2,0,0,.2,0,.4,0,2.5,0,5.1.7,8.5,2.2.1,0,.2,0,.3.1.4.1.8.4,1.3.8.2.1.4.2.5.3,0,0,.1,0,.2.1h.1c.9.8,2.1,1.6,3.7,1.6h.2s0,0,0,0c3.6-.2,6.9-2.4,9.7-4.5.2,0,.4-.2.5-.3C1112.3,2.8,1115.9.2,1120.4,0h1c6.2.3,8.8,1.7,13.6,6.1,0,0,.2.2.3.2.4.3.8.7,1.3,1.2,1.5,1.6,3.1,3.2,6.3,3.2h.7c0,0,.2,0,.3,0,2.8-.2,5.3-2.3,7.8-4.7.4-.3.8-.7,1.2-1.1.8-.7,1.5-1.3,2.1-1.7,0,0,.2,0,.3-.2,2-1.3,4.2-2,6.5-2s0,0,0,0c.3,0,.6,0,.8,0,1.7,0,3.5.3,5.4.8,7.5,2.1,14.8,8.3,17.8,15,.3.7.8,1.3,1.5,1.7.4,2.2,0,4.4-1.2,6.6-1.9,3.4-5.1,5.8-8.2,6.2h-.8c-3.3,0-5.9-2-8.6-4.1-2.6-2-5.5-4.3-8.9-4.3s-.2,0-.3,0c-1.6,0-2.9.5-4.1,1.1,0,0-.1,0-.2.1-1.2.7-2.2,1.6-3.1,2.6-1.1,1-2.2,2.1-3.5,2.5-1.3.4-2.4.5-3.2.5s0,0,0,0c-.3,0-.4,0-.6,0ZM1003.4,205c0-.6.2-1.4.3-2.1h0c0-.5.1-.9.2-1.2l.2-.8c.4-2.2.9-4.6.1-6.8,0-.2-.1-.4-.2-.5-.8-1.6-2.5-2.6-4.4-3.7h-.3c-.9-.7-1.8-1.2-2.2-1.6,0,0-.1-.1-.2-.2-3.5-3.8-3.6-7.3-2.4-13,.4-1.6.8-2.9,1.1-3.8,0,0,0,0,0,0v-.4c.9-2.2,1.5-4.3.7-7.8,0,0,0,0,0,0-1-3.6-2.4-4.9-4.9-6.5-.3-.2-.6-.4-.9-.6-.6-.4-1.2-.8-1.7-1.3,0,0,0,0,0,0-6.5-6.1-4.8-13.2-2.8-21.5,0-.3.2-.7.3-1.2h0c0-.4.2-.7.2-1,0,0,0-.2,0-.2.2-.7.4-1.5.6-2,0,0,0-.2,0-.3.3-1.1.3-1.7.3-2,0-.6-.1-1.2-.4-1.8-.3-.6-.8-1.2-1.9-2.5-1.5-1.6-3-2.8-4.3-3.7l-1-.8c-4.4-3.4-7-5.4-5.8-15.6.2-1.6.8-3.2,1.6-5.2,1.7-4.4,3.6-9.4-.9-13-.5-.4-1-.7-1.4-1-.5-.3-1-.6-1.3-.9,0,0-.2-.1-.3-.2l-.4-.3c-2.5-1.8-4.8-3.5-6.3-6.8-3.2-6.5-2.6-11.1-.4-17.1,0,0,0-.2,0-.3.1-.4.4-1,.7-1.6.1-.2.3-.5.4-.7,1.4-2.6,2.9-5.6.9-8.3-1.7-2.3-3.9-2.4-5.6-2.4-.2,0-.4,0-.6,0-.5,0-1,0-1.4-.2,0,0,0,0,0,0-3.8-.9-6.2-5.3-5.5-10.3.1-.8.4-1.6.8-2.6.6-1.3,1-2.3,1-3.2.2-2-.5-3.7-2-5-1.6-1.3-3.6-1.6-5-1.6s-1.9.2-3.1.7c-.1,0-.2,0-.3.1-2.5,1.2-4,3.6-4.2,6.5,0,0,0,.2,0,.3v3.8c0,.1,0,.2,0,.3.3,3.3.3,6.4-2.4,9-.6.5-.6.6-1.6,1.1-1.4.8-3.4,2-3.4,5.1s1.5,3.9,3,4.9c.3.2.5.4.7.5.3.2.4.3.6.4,0,0,.1.1.2.2l.6.5h.1c2,2,4.7,4.6,5.7,7,1.5,3.8.6,10-2.6,17.5-.1.2-.2.4-.4.7h0c0,.1,0,.2,0,.2-.3.5-.7,1.2-1.2,2.1-.5.7-1.2,2.1-1.9,3.4l-.6,1.1c-.7,1.4-.6,3,.3,4.2.2.2.3.4.5.8h0c0,.2.1.3.2.4.3.7.6,1.3,1,1.9.7,1.1,1.9,2.3,2.9,3.3l.4.4c.9,1,1.8,1.9,2.2,2.7,1.2,2.3,3,10,3.2,12.4,0,0,0,0,0,0,.6,5.8-1.8,10.4-3.8,14.4v.2c-1.8,3.3-3.3,6.1-3.3,9.2s0,0,0,0c.2,3.5,1.4,5,3.1,6.6.3.3.6.6.8.8.5.5,1,1,1.3,1.5,2.8,4.1,4.1,10.3,3.5,16.6-.3,2.9-1.9,6-3.4,8.7-1.9,3.7-4,7.5-3.7,11.2.1,2.4,1.6,5,3.9,8.8l.6,1c1.2,1.9,2.2,3.7,2.7,5.1,2.3,6.5,2.5,14.5.5,23.9-.6,3.1-3,5.1-4.4,6-2.6,1.8-5.5,2.8-7.9,2.9l-2.4-.3c-4.9-1.3-8.5-7.1-8-12.6.1-1.6.6-3.4,1.1-5.3l.2-.9c1.2-3.7,2.2-7.8,1.2-11.2,0,0,0-.2,0-.3-.6-1.4-2-3.1-2.2-3.3-.5-.6-1-1.3-1.3-1.9-3.1-6.3-2.6-11.1-.6-17.3.6-2,1.5-3.9,2.3-5.5l.4-.9c2.4-4.5,4.6-8.7,1.2-16,0,0,0,0,0,0-.7-1.5-1.7-2.6-2.5-3.6l-.4-.5c0-.1-.2-.2-.3-.3-1-1-1.8-2.1-2.3-3.2-2.6-5.9-3.4-13.4-1.9-19.6.4-1.8,1.1-3.3,1.8-4.7v-.2c1.5-2.9,2.9-5.7.7-10.9-.6-1.3-1.2-2.5-1.9-3.6-.3-.5-.5-.9-.8-1.4,0,0,0,0,0,0-2-3.5-3.6-6.6-4.1-10.9-.4-4,1.3-14.1,3.5-16.7,0,0,.1-.1.2-.2,0,0,0,0,0,0,0,0,.2,0,.3-.1.6-.3,2-1,2.5-2.5,2.4-5-1.2-9.4-4-13,0,0,0,0,0,0-1.4-1.7-2.8-3.3-3.4-4.8-2.5-6.4-.5-13.2,1.7-17.8.7-1.5,1.3-2.5,1.9-3.6l.3-.6.2-.4c1.4-2.6,2.6-4.6,2.8-9.9,0-.8,0-1.5,0-2h0c0-.3,0-.5,0-.7s0-.3,0-.4c0-.7,0-1.4,0-2.2.3-3.8,3.8-12.2,6.4-14.5,2.5-1.9,11.9-5.2,14.8-5.2h.7s.1,0,.4.3c.6.5,1.6,1.1,3,1.1s1,0,1.4-.3c.4,0,.7-.1.9-.2.1,0,.3,0,.4,0h.4c4.9,0,9.1,1.9,13.9,6l.3.2c2.9,2.6,7.2,6.5,7.1,12.6,0,1.1-.3,1.9-.6,2.9v.3c-.9,2.2-1.3,4,0,7.2,1.1,2.7,3.4,3.8,5,4.4,1.3.6,2.5,1.2,3.6,2.4,3.9,4.2,4.5,13.1,2.7,19-.3.7-.6,1.2-.9,1.7,0,0,0,.2-.1.2,0,0,0,.2-.2.3-.2.4-.6,1-.8,2-1.4,5.2.3,7.2,4.2,9.3h.1c0,0,0,0,0,.1.9.5,1.7.9,2.6,1.6,5.1,3.9,8.3,11.4,7.8,18.2,0,1.3-.6,3.1-1.2,4.9l-.2.7s0,0,0,0c-.1.4-.2.7-.3,1.1-.5,1.5-.7,2.5-.7,3.4s0,.2,0,.4c.2,2.3,1.9,4.2,4.3,6.6l.8.8c1.1,1.1,2.1,2.1,2.7,3.1,2.2,3.7,2.7,8.5,1.4,12.7,0,0,0,0,0,0-.3,1-.7,1.8-1.1,2.6l-.2.4c-1.1,2.3-1.9,4.1-1.2,7.2.7,3.9,3.2,6.2,5.3,8.1l.3.3c1.5,1.3,2.8,2.4,3.7,4,0,0,0,0,0,0,1.6,2.3,3.6,7.7,3.8,9.8,0,0,0,0,0,0,.2,2.5-.5,5.1-1.1,7.3-1.2,4.1-2,8.1.6,11.8,1.2,1.7,2.4,2.6,3.5,3.4l.4.3c.6.5,1.2,1,1.8,1.5h.1c.9.8,1.7,1.5,2.4,2.2.8.8,2,1.3,3.2,1.3,1.7,0,3.4-1,4.3-2.5.8-1.5.8-3.2,0-4.7-2-4-2.9-6.4-2.7-7.4.4-2.2,1.5-4.2,2.7-6.2,2.1-3.5,3.8-6.9,2.9-11.2,0,0,0,0,0,0-.8-3.3-2.2-6.2-3.6-9.2l-.5-1c-1.8-4-3.7-8.2-3.7-12.3s0,0,0,0c-.1-3.5,1.3-6.1,3-8.9,1.9-3,3.4-5.8,3.1-9.6-.2-2.7-1.9-4.7-3.4-6.5-.1-.1-.3-.3-.4-.5h0c-.5-.6-.9-1.1-1.2-1.7-3.8-6.3-3.9-12.5-.1-21.4.4-1,1-2,1.7-3.1,2.1-3.7,2.9-5.6,2.9-7.3s-1.7-4.4-4.2-7.3l-.4-.4-.4-.4c-1.5-1.6-2.9-3.2-3.5-4.8-2.3-5.9,0-11.1,2.4-16.6l.2-.5c2.5-5.4,3.5-9,3.5-11.7s-1.1-6.2-2.4-9.5v-.3c-1.7-4.1-3.1-8-1.5-12.5,1.2-3.1,3.3-5,6.3-5.7.2,0,.5-.1.7-.2.1,0,.4,0,.5,0,3.4,0,6.7,1.6,8.7,4.1.6.9,4.1,7,4.5,8.2.6,2.9.3,13.7-.4,17.6-.4,1.7-1.2,3.8-2.4,6.4-2.6,5.5-4.5,10.3-2.6,13.8,1.2,2.3,2.6,4.5,4.5,6.9,3.3,4.3,5.6,7.4,3.8,17.1-.6,3-1.7,5-2.9,6.9,0,0,0,0,0,0v.2c-1,1.6-2,3.3-2.6,5.4-.2.7-.2,1.4,0,2.1.6,2.6,2,5.8,2.9,8,1.4,3.2,2.8,6.6,3.1,9.3.5,5.3-.8,9.7-2.2,14.4v.4c-1.8,5.4-3.6,11.4-1.2,18.3.4,1,.9,2,1.5,2.8l.7,1.1c.7,1.1,1.2,1.9,1.6,2.9,1.4,3.7,1.4,9.2,1,12.7-.3,2.2-1,3.9-1.8,5.6l-.2.5v.2c-1.4,2.6-2.7,5.3-2.1,9.8.2,2.7,1.5,5.3,2.8,8,.1.3.3.5.5.8,1,1.9,2,4.2,2.4,6.5,1.7,10.5-2.9,29.4-11.7,32.7-4.7,1.7-9.7,3.4-14.9,3.6h-.5c-5.7,0-10.5-1.4-15.1-4.5-5.7-3.8-6-12.3-5.6-17ZM284.4,225.1c-2.4,2.2-4.1,3.6-7.4,4-1.3.2-2.6.3-3.9.3-9.9,0-16.6-5.5-18.9-15.6,0,0,0,0,0-.1.2-.6.4-1.5.2-2.7-.7-4.1-3.9-7.9-7.4-11.8-2.3-2.6-4.9-5.6-5.5-7.7-1.6-5.2-1.2-7.8-.6-10.5.5-2,1.7-3.9,2.8-5.9,1.4-2.3,2.8-4.7,3.4-7.5,1.3-6.2-2.8-8.7-5-10.1-.7-.4-1.3-.8-1.7-1.2l-.2-.2c-1.8-1.6-5.9-5.4-6.6-7.6-1-3,0-11.8,1.8-15.4,1.2-2.5,3.3-5.4,5.3-8.1,1-1.4,2-2.7,2.9-4,.2-.3.4-.6.5-.9,1.6-4.7-2-8.5-4.3-11-.7-.8-1.5-1.6-1.9-2.2-.8-1.3-1.7-3.4-2.2-5-3.4-10.2-.2-17.8,6.9-28.3.1-.2.5-.5.7-.8,1-1,2.7-2.7,3-5.4.3-3-1.4-6.1-3.2-9.5-.9-1.7-2-3.7-2.3-4.8-1.9-8.3.9-23.5,8.7-27.5,1-.5,2.5-1,4.1-1.5,3.1-1,6.3-2,8.5-3.8,2.1-1.7,5.4-5.3,8-8.3h.1c.7-.9,1.3-1.6,1.8-2.1,0,0,0,0,0,0,.9-1.1,1.7-2.3,2.5-3.4.9-1.3,1.8-2.8,2.6-3.3,1.3-1.1,4.6-2.2,8.1-2.8.4.1.8.2,1.2.2s.4,0,.5,0c1-.1,2.2-.2,3.4-.2,2.8,0,5.5.3,7.5.9.7.3,2.8,2.3,3.8,3.1,1.6,1.4,3.1,2.8,4.4,3.6,2.1,1.3,4.2,1.9,6.3,1.9s4.8-1,6.6-1.8c1-.5,2-.9,3.1-1.3,1.7-.5,3.4-.8,4.9-.8,4.2,0,7.8,2.1,10.8,6.4,2.6,3.7,2.7,4.7,1.8,9.5-.5,3.4-2.2,6.3-3.9,9.1-3.1,5.4-6.7,11.5-2.6,20.2,1.1,2.4,2.4,4.2,3.5,5.8,2.3,3.3,3.6,5.3,3,10.3-.8,5.8-8,12.7-13.3,12.7-2.1,0-4.1-.8-5.4-2.2-1.1-1.2-1.6-2.6-1.6-4.3,0-1,.5-2,1.1-3.1,1.3-2.5,3.4-6.7-.8-12.1-1.2-1.5-2.4-2.7-3.4-3.7-2.7-2.6-3.3-3.2-1.6-7.7.4-1.3,1.8-3.4,3.1-5.4,3.4-5.5,7-11.1,4.9-15.9-1.3-3.1-4-4.9-7.3-4.9s-6.1,1.6-8.8,2.9c-.8.4-2.1,1.1-2.6,1.2-.7.2-1.4.3-2,.3-2.1,0-3.9-1-6-2.2-2.5-1.4-5.3-3-9.1-3s-2.7.2-4.1.6c-5.8,1.8-8.2,6.5-10.1,10.3-1.2,2.4-2.2,4.5-3.9,5.8-.6.5-2.6,1.2-3.8,1.7-2.1.8-3.6,1.4-4.7,2.5-2,2.2-3,9.1-3,10.3s0,.2,0,.3c.3,3.9,1.9,6.1,3.1,7.8.5.7.9,1.3,1.3,2,1.8,3.5,3.1,11.9,1.9,14.5-.9,2.1-2.8,4.4-4.5,6.7-1.2,1.5-2.4,3-3.4,4.6l-.2.4c-3.8,5.8-4.4,7.5-4.4,9.1,0,3.3,2.6,6,5.1,8.6.8.8,1.6,1.7,2.1,2.3,4.9,6.7,7.2,12,4.2,19.3-.6,1.6-1.9,3.2-3.3,4.8-2.4,2.8-5.2,6.1-5.2,10.6-.1,5.6,4.7,7.8,7.4,9.1.7.3,1.3.6,1.7.8,6.4,4.4,6.3,13.1,3.3,19.8-.3.7-1,1.5-1.7,2.4-1.3,1.5-2.8,3.4-3.4,5.9-2.3,8.8,3.8,13.6,8.3,17.1,1.4,1.1,2.7,2.1,3.7,3.2.9.9,1.6,2.1,2.3,3.3,1.6,2.6,3.7,6.3,8.3,6.3s4.2-.8,6.6-2.4c1.8-1.3,3.3-2.4,4.4-3.3,2.7-2.2,3.6-3,6.8-3s2.4.1,4,.3c0,0,0,0,0,0,.7,0,3.7,1.3,5.1,1.9,4.2,1.7,8.1,3.4,10.9,3.4s2.5-.4,3.5-1.1c5.1-3.9.7-10.7-1.4-14-.2-.4-.7-1.1-.9-1.4-.9-3.5,1.4-8.8,3.4-13.1,1.6-3.6,2.9-6.4,2.7-9.1-.3-3.6-2.9-6.1-5.3-8.5-1.9-1.9-3.9-3.8-4.2-5.7-.3-2.5.2-4.6,1.5-6.2,1.7-2.2,4.9-3.7,8.7-4,.5,0,1,0,1.5,0,4.5,0,7.5,2.2,9.9,7.2,1.4,2.8,3.8,12.8,3.6,15.8-.1,2.5-1.2,5.1-2.3,7.8-2.2,5.5-5,12.3-.7,20.1.8,1.5,1.7,2.5,2.4,3.3,1.1,1.3,1.3,1.5,1.2,3.5-.2,5.9-2.2,11.3-5.8,15.3-4.4,4.9-10.7,7.4-18.9,7.4-2.7,0-5.5-.3-8.3-1-2.1-.5-3.8-1.2-5.5-2-2.5-1.1-5.1-2.2-8.3-2.2s-6,1-9.3,3.1c-1.9,1.2-3.3,2.5-4.7,3.7ZM191.1,225.4c-.7-2.7,0-6.3.6-9.8.6-3.2,1.2-6.5,1-9.7-.3-4.2-2.1-7.2-3.5-9.6-1.7-2.9-2.9-5-2.2-9.4.3-2.1,2.1-4,3.8-6,1.5-1.7,3.1-3.5,4-5.7.6-1.5,2.9-9.8,2.7-12.1-.2-3.9-3-7.2-5.6-10.2-.9-1.1-1.9-2.2-2.3-3-2.9-5.2-1.7-14.7,1.1-20.4.1-.3.3-.6.3-.9.3-.5.6-1.1.9-1.7h0c.5-1,1-1.9,1.3-2.6,0-.1.3-.3.5-.5.6-.5,1.4-1.2,2-2.2,1.2-2.3,1.3-6.1,1.2-7.3-.2-4.6-2.8-7.5-4.9-9.9-1.3-1.5-2.4-2.7-2.9-4.2-1.3-4.2-.4-12.2,1.1-16.1.3-.8,1.8-3.1,2.9-4.8,3-4.6,4.2-6.6,4.2-8.6,0-1.8-1-3.4-2.3-5.4-.2-.3-.3-.5-.4-.7,0,0,0,0,0,0-.7-1-1.7-2.3-3.3-4-.2-.2-.4-.5-.6-.7.4-1.5,0-2.9-1-4-.7-.7-1.6-1.1-2.5-1.2-1-2.4-.8-11.6,1.3-15.1,0,0,0,0,0,0,.4-.7.7-.9,1.3-1.5.6-.5,1.3-1.1,2.1-2,2.8-3.6,3.9-7.9,3.3-13.2-.2-2.3-.6-4.5-1-6.6-1.3-6.5-2-10,3.8-13.7,2.4-1.5,4.4-2.3,6.1-2.3s3.8.6,6.9,5.5c4.9,7.6,4.7,16.8-.5,28.1-.3.7-1,1.5-1.7,2.4-1.7,2.1-3.8,4.8-3.9,8.9,0,4.9,2.8,7,4.7,8.4.6.4,1.1.8,1.5,1.3,3.2,3.4,5.3,13.9,4.4,18.5-.3,1-3,7.2-4.3,10-.5,1-1.1,1.9-1.6,2.7-1.8,2.7-4.6,6.9-.8,13,.9,1.5,2.1,2.8,3.2,4.1,2.1,2.5,4,4.6,4.2,7.5-.4.6-.9,1.6-.9,2.9s.2,1.7.4,2.2c0,0,0,.2,0,.3-.7,2-3.4,8.9-3.8,9.6,0,0,0,.2-.1.3-.3.7-1.4,2.2-2.3,3.4-1.3,1.8-2.7,3.7-3.5,5.4-.5.9-1.1,2.2-1.1,4s1.4,4.6,3.8,8.7c1,1.7,2.2,3.6,2.5,4.5,1.5,4.2,1.7,7.2.9,10.9-.6,2.7-1.8,5.5-3,8.5-2.9,6.9-6.2,14.7-2.3,23.1.7,1.6,1.8,3.2,2.9,4.7,1.1,1.5,2.1,3.1,2.6,4.3,0,0,0,0,0,0,1.4,3.9-1.1,15.7-3.7,19.4-1.7,2.3-8.5,6.1-11.2,6.1-1.3-.2-5.5-2.9-6.4-3.9ZM458.1,191.9c0-1.7,1.2-4.6,2.1-6.8,1.3-3.2,2-5.1,1.7-7-.9-5.2-5.7-8-9.3-10-1-.5-2.8-1.6-3.2-2-.6-1.2-1-3.8-.3-7.9.2-.8.6-1.8,1-2.8,1.1-2.7,2.4-6,1.2-9.6-.9-2.8-3.8-4.3-6.8-5.9-2.4-1.3-5.4-2.9-6.3-4.6-1.2-2.4-.7-5.4,0-9,.5-3.1,1.1-6.3.5-9.4-.7-3.9-4.5-6.5-9.3-6.5s-1.2,0-1.8.1h-.2c-5,1-6.2,4.9-6.9,7-.6,1.8-.9,2.6-2.1,3.2,0,0-.1,0-.5,0-.9,0-2.2-.4-3.6-.7-1.9-.5-4-1.1-6.2-1.1-5.4,0-9.3,3.3-11.5,9.9-1.1,3.4-2.7,3.6-6.3,4.1-5.5.8-13.7,1.9-12.7,19.4.3,3.6,2,6.5,3.5,9,1.3,2.1,2.4,3.9,2.5,5.8,0,1.2-.7,5-1.2,6.7-.3,1.1-1,2.4-1.8,3.8-1.5,2.7-3.1,5.7-2.8,9.4.4,4.5,3.1,8.3,5.5,11.8,1.3,1.8,2.6,3.7,3,5,1.5,4.3-1.7,18.2-5.1,22.2-1.8,2.2-5.5,3.6-9.3,3.6-1.6,0-6.8-.3-7.9-4.3-.5-1.9-.6-5.3-.3-7.6.2-1.5.7-2.9,1.2-4.4,1.2-3.4,2.8-7.6-.1-13.3-.8-1.6-1.9-2.7-2.8-3.7-.5-.6-1-1.1-1.3-1.6-3.9-6.5-1.8-10.3,1.7-16.6.9-1.7,1.9-3.4,2.8-5.4,3.1-6.7.4-10.3-1.7-13.2-.8-1.1-1.6-2.2-2.2-3.6-2.1-5.2-1.6-10.5,1.6-16.7.3-.7.9-1.4,1.4-2.2,1.6-2.2,3.7-5.2,3.2-9.7-.4-3.3-2.8-6-5.2-8.7-1-1.2-2.2-2.5-2.6-3.3-2.8-5.1-2.2-17.6.3-23.6.6-1.4,1.3-2.5,2-3.7,1.8-2.9,3.9-6.3,3.1-12.1-.5-4.2-2-7.7-3.4-11.1-1.8-4.5-3.4-8.3-2.7-13.4.5-3.1,2.1-5.6,3.9-8.6,3.1-5,6.7-10.8,3.6-18.9-.8-2.2-1.7-3.9-2.4-5.4-2-4-2.9-6.1-1.7-12.3C363.3,1.8,365.8,0,371.1,0s2.2,0,3.5.2c6,.7,9.2,4.2,8.8,9.7,0,.7-.2,1.4-.4,2.2-.4,1.6-.9,3.5-.6,6,.2,2,1.2,3.9,2,5.8.5,1.1,1.2,2.4,1.3,3.1,1,5.1-1.3,9.2-4,13.9-2.8,4.9-5.9,10.5-4.2,17.2.6,2.3,2,4.5,3.6,6.8,1.4,2,2.9,4.3,3,5.7.1,2.2-1.6,10.9-2.8,14.5-.4,1.1-1.1,2.5-1.9,4-1.6,3-3.2,6.2-3.3,9.4-.2,3,1.2,6.4,3.6,9,2.4,2.5,5.5,4,8.5,4.1,3.2,0,4.9-1.2,6-3.9.3-.7.7-2,3.2-4.2,1.4-1.3,2.5-1.4,3.4-1.4s1.4,0,2.2.2c.8,0,1.8.2,2.7.2,3.1,0,5.6-1.3,7.3-3.8,1.9-2.8,2.9-5.4,3.9-7.9,1-2.5,1.9-4.7,3.6-7,1.6-2.2,4.5-3.9,7.1-5.5,3-1.8,5.6-3.4,6.5-6,1.1-3.2.8-6.2.5-8.8-.4-3.6-.7-6.2,2-9.3,2-2.3,4.3-3.1,6.4-3.9,3.2-1.1,8-2.8,7.5-9.7,0-.4,0-.9,0-1.3-1.2-8.4-.3-10.2,2.5-15.4l.4-.7c2.4-4.7,2.8-4.8,8.6-7.2,2.2-.9,4.1-2.1,5.9-3.3,2.7-1.7,5.1-3.2,7.5-3.2s1.4.1,2.1.4c2.3.8,3,4.7,1.9,11.9,0,.6-.1,1-.2,1.4-.4,4.3-1.4,4.7-5.2,6.2-1.7.7-3.5,1.4-5.6,2.6-8.7,5.3-7.2,13.2-6.3,18v.4c.1.2.2.4.3.9.4,1.8,1.2,5.5-.7,8.6-1.4,2.3-1.9,2.4-3.8,3-1,.3-2.3.8-3.8,1.5-4.7,2.4-7.4,10.2-6.6,15.4,0,0,.2,5.2-6.7,11.1-.9.8-1.4,1.9-1.4,3,0,2.6.9,3.1,7,6.3,1.3.7,3.9,2,4.3,2.3,2,1.5,4.5,5,4.9,6.5.4,1.5-.1,3.7-.7,6.1-.6,2.5-1.3,5.2-1,7.9,0,1,.5,1.9,1.2,2.5,1.6,1.6,3.4,2.9,5,4.2,3.4,2.6,6.4,4.9,7.5,8.6,1,3.5.3,5.9-.7,8.9-.9,2.7-1.8,5.8-1.3,9.6.7,5.6,3.9,7.3,6.1,8.4.8.4,1.5.8,2.1,1.4,2.9,2.9,3.6,6.4,2.4,10.8,0,.2-.3.7-.5,1-.6,1.2-1.5,2.7-1.6,4.9-.3,7.5,5.7,12.5,10.6,16.5,2.8,2.3,5.4,4.4,6.6,6.6.9,1.5,4,8.3,4.3,9.3.4,1.8.2,3.6-1.9,6.6-1.7,2.4-4,3.7-7.1,3.7-4.8,0-9.9-3.3-11.3-7.3-.2-.5-.3-1.1-.4-1.8-.1-.8-.3-1.8-.6-2.8-1.3-4.4-4.8-7.4-8.6-10.7-4.1-3.6-8-7-7.9-11.6ZM165.2,176.9c-.3,1.3-1.5,2.9-2.7,4.7-1.8,2.7-3.9,5.7-4.2,9.2-.2,2.6.7,5.3,1.6,7.9.5,1.6,1.1,3.2,1.2,4.4.4,4.4-.8,14.9-2.2,17.5-4.8,8.3-14.4,9.6-19.8,9.6s-8.4-.7-12.3-2c-1.4-.6-8.1-6.4-9.4-8.3-1.8-2.9-5.6-11.9-6.3-15-.2-1-.3-2.4-.4-4-.2-3.2-.5-6.6-2-9.2-1-1.7-2.8-2.8-4.7-4-.8-.5-1.9-1.2-2.3-1.6-3.7-3.8-3.8-9.3-3.9-15.7,0-2.5,0-5-.4-7.5-.5-4.1-1.7-11.3-4.8-13-1.6-.9-3.4-1.6-5.1-2.3-2.4-.9-4.8-1.8-6.3-3.4,0-.2-.2-.4-.3-.5-.5-.8-2.1-5.4-2.2-6.5-.3-2.5.3-4.8.9-7.5,1-4.2,2.1-8.9-.6-14.4-1.3-2.6-4.6-4.5-7.7-6.2-1.2-.6-2.3-1.3-3-1.8-3.9-3.1-8.1-9-8.3-13.5,0-1.8.2-3.8.5-6,.9-5.8,2-13-4.9-18.5-1.2-.9-2.4-1.4-3.4-1.7-.4-.1-1-.4-1.2-.5,0,0,0,0,0,0-2.7-2.8-3.6-6.4-2.7-10.8.3-1.4,1.4-3.2,2.5-5,1.1-1.8,2.2-3.7,2.9-5.6,1.9-5.4,1.5-10.7-1-14.2-1.4-2-4.1-4.3-9.1-4.3s-.8,0-1.2,0c0,0,0,0,0,0-3.9.4-11.2,3-14,6.3-4.7,5.4-3.2,9.5-2.2,12.5.4,1.1.7,2,.8,3,.1,1.5-.4,2.3-2.5,4.5-2.8,2.9-7,7.2-3.6,15.7,1.2,3.1,2.7,5.7,4,7.9,3.2,5.6,4.9,8.7,2,16-.5,1.2-1.8,3.4-3.1,5.3-3,4.8-4.9,7.9-4.7,10.7.2,3.1,1.9,4.4,2.9,4.9,5.1,7.1,6.3,9.6,6.6,10.4,1.3,4.4-.7,7.1-3.3,10.9-2.5,3.5-5.2,7.4-4.9,12.9.3,5.2,3.9,8.2,6.8,10.6,2.3,1.9,4.2,3.5,4.5,5.9.7,5.2-2.2,8.6-5.5,12.7-3,3.7-6.4,7.8-6.3,13.3,0,2.8,4.4,9.3,4.8,9.9.8,1.3,1.7,2.5,2.6,3.7,2.7,3.7,4.9,6.7,4.5,11.1-.5,6.3-8.3,14.1-16.6,14.1s-5.3-1.2-6.7-3.7c-1.3-2.2-.5-4,1.2-7.4,1.3-2.6,2.7-5.6,2.2-9-.6-4.6-3.8-6.9-5.8-8.5-.8-.6-1.6-1.2-2.1-1.8-3.6-4.2-4.3-9.3-1.9-14.1.8-1.6,2.4-3.6,4-5.4,1.8-2.1,3.5-4.1,4.4-6.2,2.7-5.5.2-8.3-2.3-10.2-.4-.3-.7-.5-.9-.7-.7-.7-1.3-1.3-1.9-1.9-3.2-3.3-4.7-4.8-5.1-9.4-.3-3.2,0-5.6,1.1-8.7.8-2.2,1.8-3.6,3-5,2.4-3.1,5.1-6.7,2.1-14.9-.7-1.9-1.6-3.7-2.5-5.4-1.6-3.3-3-6.1-3.2-9.4-.2-4,2.2-8,4.6-11.8,2.4-4,5-8.1,4.5-12.6-.4-3.3-2.6-6.7-4.7-10-1.3-2-2.7-4.1-3.2-5.6-1.3-3.7-1.3-7.6,0-10.5.4-.9,1.3-2,2.3-3,1.2-1.3,2.5-2.7,3.5-4.6,2.9-5.5,3.6-10.4,2.4-16.3-.3-1.5-.6-2.6-.8-3.6-.7-2.5-.9-3.5,0-7.2C11.6,12.4,27,6.3,40.5,6.3s7.6.5,10.4,1.5c8.4,3,17.6,11.1,19,20.9.7,5.1-.5,10.8-1.5,14.6-.2.8-.8,1.9-1.4,3-1.6,2.9-3.7,6.8-1.8,11.2.8,1.9,2.6,3.1,6.4,5.6,1.3.9,4,2.6,4.4,3.2.6.8.9,1.6,1.2,2.7.3.8.5,1.8,1,2.8,0,0,0,0,0,0,.4.9,1,1.4,1.4,1.8.9,2.7.8,6.6.8,10.4,0,3.3,0,6.8.5,9.8,1.1,6.4,6.4,8.6,9.8,10,1.6.7,3.1,1.3,3.9,2.1,0,0,0,0,0,0,.7.8,3.6,5.8,3.9,6.8,0,0,0,0,0,0,.8,2.7.4,3.9-.3,6-.4,1.4-1,3.1-1.1,5.3-.5,8.3,4.7,10.6,8.2,12.1,1.5.7,2.9,1.3,4.2,2.3,5.7,4.5,9.9,12.9,10.4,20.5.3,4.1-.9,8.7-2,13.2h0c-.3,1.1-.5,2.1-.7,3.1-.1.6-.1,1.3,0,2,.5,1.9,2,2.7,3.9,3.7,2.3,1.2,3.6,2,3.9,2.5.8,1.7,3.4,10.4,3.7,12.5,0,0,0,0,0,0,.1.7.1,1.5,0,2.5,0,.9,0,2,0,3.1,0,.6.3,1.2.6,1.7l.4.6c.5.7,1.2,1.3,2,1.6,1,.4,1.9.5,2.7.5,2.3,0,4-1.3,4.8-3.6.8-.5,2-1.4,2.4-3.2.3-1.4,0-2.7-.3-3.7,0-.3-.2-.9-.2-1.1v-1c0-1.9,0-3.3.3-4.9.4-2,1.8-4.2,3.2-6.7,2.5-4.4,5.7-9.8,4.2-15.8-.6-2.5-2.8-5.6-4.8-8.6-1.1-1.6-2.3-3.4-2.7-4.2-2.2-4.8-.3-12.4,2.8-16.6.4-.5,1.1-1.2,1.8-1.9,2.2-2.2,5-4.9,4.9-8.6,0-2.5-3-7.6-4.1-8.7-.7-.7-1.5-1.1-2.3-1.6-.3-.2-1.1-.6-1.2-.7-6-6.6-6.7-13.6-2.3-21.4.4-.8,1.2-1.7,2-2.6,2.1-2.4,5.3-6.1,4-11.1-.8-3-2.7-5.7-4.7-8.3-1.4-1.9-3.2-4.3-3.3-5.6-.5-4.3,1.5-10.5,4.6-13.9.1-.2.5-.4.8-.6,1.3-.9,4.2-3,3.6-7.2-.3-2.3-2.3-4.2-5.8-7.4-.8-.7-1.8-1.6-2.1-2-4.2-5.3-7.2-16-6.7-23.9.1-2.4,3-7.3,4.8-8.2,1-.5,3.9-1,7-1s5.6.7,6,1c1.6,1.4,1.6,2.4,1.1,6.1-.2,1.7-.5,3.7-.3,5.9.4,5.1,3,8.5,5.2,11.5,1.1,1.5,2.2,2.9,3,4.5,3.2,6.7,4.3,11.4,1,19.1-.5,1.2-.9,1.6-1.6,2.5-.5.6-1.2,1.4-1.9,2.5-4.8,7.8-.8,14.9,2.2,20,.7,1.2,1.4,2.4,1.9,3.6,1.8,3.7,2.3,9.3,1.2,12.9-.4,1.3-1.6,3-2.8,4.5-1.2,1.6-2.3,3.2-3,4.9-2.4,6.2.9,11.9,3.9,17,1.9,3.2,3.8,6.5,3.8,9.2,0,7.1-.4,8.3-.7,9.4l-.2.5c-.4,1.4-1.2,2.4-2.3,3.7-2.4,2.8-5.6,6.7-2.3,14.8.8,1.9,1.7,3.7,2.6,5.5,2.6,5.1,4.8,9.5,3.1,16.1Z"/>
</svg>