<?xml version="1.0" encoding="UTF-8"?>
<svg id="Layer_2" xmlns="http://www.w3.org/2000/svg" version="1.1" viewBox="0 0 553.2 501.1">
  <!-- Generator: Adobe Illustrator 29.8.7, SVG Export Plug-In . SVG Version: 2.1.1 Build 1)  -->
  <defs>
    <style>
      .st0 {
        fill: #fff;
      }
    </style>
  </defs>
  <path class="st0" d="M102.2,424.8l-.6-.2c-3-2.3,1.9-5.8,2.9-8.5,5.6-10.8-2.2-24.8-14.7-23.4-.3-5.9-4-9.4-7.2-11.4,8.9-5.7,13.7-20,4.1-26.6,4-2.3,3.8-11,3.8-14.7-1.5-8.8-6.3-10.2-14.2-11.4,2.8-8.2.4-14.7-7.5-18.8-7.3-1.3-15-2.6-21.3,3.4-10.5,12.8-10.1,2.1-22.6,3.8-16.1,2.4-25.8,21-17.9,35.2-.3,3.4-4.7,7.9-5.6,11.5-2.8,7.4,1.5,13.6,6.3,18.3-4.8,14-11.6,20.6-1,33.4-3.5,7.3-8.5,19.3-5.2,26.8,1.4,3.1,6.1,5.3,5.8,8.6-6.7,11.6-9.7,26.2,4,30.2,1.3.3,1.3.6,1,1.3-5.6,9,.9,20.9,12.2,18.6,10.1-1.2,12.1-6.8,18.6-11.1,12.5,11.4,26.3,2.6,31.9-11.2,14.2,8.4,34.7-9.9,23.6-24q-1.3-1.7.1-3.3c9.9-6,13.5-18.4,3.5-26.5ZM24.8,341.9c-.3-.4-.6-.9-.8-1.7,8.5-7.4,7.7,14.4,28.5-7.5h0c3.6,1.1-.4,11.1,11.7,10.2,4.1-.7,5.9,2.1,5.2,5.1-6.1,3.9-6.9,13.1-.8,16,9,5.8-9.4,10-6.8,18.6,0,1.3,0,3.2-1.2,4-5.6-.7-12.5-4.8-18.2-1-1.8,1.1-3.9,4.5-5.7,5.5-3.6-2.1-8.9-2.3-12.2,1.5,1.7-10.6,7.1-11.4,4.1-24.7-.1-.2-6-4.3-6.3-4.6-.3-2.3,3-4.4,4-6.7,2.1-4.3,3.5-12.5-1.6-14.7ZM78.5,457.6h-.2c.5,1.3,1.5,2.1,2.2,3-7.7-4.6-16.6.1-19.3,6.9-1.3,2-2.6,5-4.9,5.8-3.2-.5-6.2-5.6-10.2-5.9-7-1.1-13.8,3.6-17.5,10.1,2.6-6.3.4-13.1-5.8-15.6-1.2-3.8,6.9-12.5,6.7-16.8.8-8.2-5.6-8.8-7.4-14.7,0-.3,7.4-15.6,7.2-15.9.3,0,.4-2,.5-2.2,5.4,2,13.5-.2,16.8-5.2,1.3-1.6,2-2.3,3.2-2.5,6.3,1.5,13.3,5,19.1-.1,1.9,9.9,9.6,6.5,15.5,9.9.7.8.5,1.7-.7,2.9-5.8,5.3-7.3,14.2-2.1,19.2,1.2,1.3,4.2,2.3,5.1,3.7-3.7,3.6-10.6,9.3-8.2,17.4ZM269,151.2c1-5-7.5-8.3-8.4-14.6-5.2-13.5,3.1-25.6,10.5-37.5.3-3.1-4.5-8.7-5.4-12.4-2.3-9.5.9-27,10.8-33.3,3.2-2,9.2-3.8,11.9-6.3,5.2-4.8,10.6-13.3,15-18.9,2.7-2.5,8.4-4.5,11.7-5.3v.2c22-6.1,16.1,14,34.6,2.2,12.2-5.9,25.7,4.1,22.6,17-1.7,10.8-12,17.3-6.8,27.7,3.2,6.4,8,8.1,6.8,17.5-.8,13-25.9,28.8-28.2,8.9.2-5.1,5.3-7.8,1.1-12.7-4.4-5-9-5.1-5.7-14.5,1.7-5,10-15.2,8.1-19.3-2.6-5.8-10.6,1.9-14,3.1-9.4,3.4-12.5-5.5-21-2-7.3,3-7.1,11.9-12.7,16.9-7.5,4.8-9,3-9.9,12.4.3,4.2,2.5,5,4,7.8,6,12.6,1.7,20.2-6.2,30.5-.9,1.5-4,6.6-4,7.8,0,2.5,4.7,5.7,6.4,7.9,5.2,6.5,8.4,13,4.7,22.6-2,5.4-8.2,9.6-8.3,15-.1,4,4.9,4.3,7.3,5.7,11.8,7,6.5,22.8-.2,32.4-2.2,8.7,6.3,10.9,11,15.2,4.2,3.8,4.5,11.2,12,5.2,7.2-5.7,7.3-8.9,18-8.7,10,1.8,24.9,9.7,12.9-7.4-2.4-7.7,6.2-19.6,5.9-23.8-.4-4.5-8.6-6.8-9.5-12.9-2.5-15.4,23.4-23.9,29.2-8.8,11.2,23.6-6.3,28.6.5,43.4,2,3.3,4.3,3.1,4.1,8.3-.6,21-19.1,31.9-37.8,29.8-8.2-.9-11.3-5.9-20.1.7-5,3.8-7,8.2-13.7,9.9-14.2,4-27.5-3.9-27-18.2-.9-5.6-11-11.6-12.8-17.4-3.7-10.5,2-17.7,5.5-26.4,1-4.9-2.9-4.8-5.5-6.9-2.5-2-6.8-5.4-7.9-8.5-2.8-11.1,3.8-23.4,10.5-32.3ZM435.9,401.2c7.7,9.8,1.6,30.8-9,36.6-13.2,7.7-38.2,7.7-35.3-13.2.2-2.3,1.4-5.6.8-7.5-7.2-2.9-10.7-7.6-8.4-15.7.6-3.2,2.4-5.1,1.6-8.3-.6-1.9-1.3-2.3-2.8-3-11.1-4.8-7.4-17-4.7-25.9-8.3-6.6-15.4-7.8-9.9-23.3,1.5-3.9,2-5.6.3-6.7-24.3-11-1.2-31.4-9.8-29.6-4.1.6-8.2-2.4-9.1-6.5s-1.1-4.8-.2-6,2.1-2.5,3.3-2.3.6.2.2-.3c-.5-.7-1.5-.8-2.7,0-1.7,1.2-2.8,3.4-3.3,4.9-.8,2.6-1.6,5.9-7.5,9.1-1.6,1.1-1.4,3.7.3,4.5,13.7,6.3,8.4,19.8,2.1,30.3,1.3,2.9,4.5,4.8,6.3,7.2,6.9,13.5.8,19.2-2.9,30.4.1,1.7.5,2,1.7,2.9,7,5.1,7.7,17.5,2.5,25.1-8.9,13.6,10.7,12,3.8,38.1-3.6,13.6-27,15.8-26-1,.3-3.7,3.3-9.4,2.3-12.7-7.5-6.8-5.5-17.4-1.1-25.1,7.9-12.6-10.6-12.6-5.5-32.7,7-13.4-1.5-11.1-3.7-23.5-.9-20.3,11.7-15.5,2.8-24.5-11.3-10.7.7-20.9,2.2-31.7-1.1-5.7,2.3-14.2,6.4-18.6,2.7-2.3,11.4-6.1,14.8-6.6,12.5-1.6,30.8,4.3,26.7,19.3-2.2,5,3.9,4.6,6.8,7.1,5.2,4.7,5.1,15.1,1.4,21-1.6,3.7,2.3,3.2,4.6,4.8,8.3,4.8,9.6,15.9,5.8,24.2,5.4,5.6,10.7,9.2,7.7,18.5-.7,2.6-2.7,4.2-2.1,6.7,2.7,6.4,9.5,5.6,11.2,16.7.6,4-2.4,9-1.5,12.4s3.3,1.6,3.9,4.4,0,3-1.7,6.2.4,1.2,1,.9c1.4-.8,3-2.1,4.2-4.4s.6-2.3-.2-4.1-3.9-3.6-1.5-8.2,5.5-6.6,4.5-10.6c-3.4-8.2-10.6-18.4-3.5-26.8,8.5-12.7-15.3-7.5,1.6-38,0-.9-1.9-2.6-3.1-3.7-10.9-7.8-.3-19.8,1.1-28.9-.5-6.4-6.1-10.7-3.1-18.3,1.6-4.2,5.2-7.2,9.5-7.8,7.4-1.3,11.7,4.4,14.5,10.4.7,2.9.4,12-.3,15.3-1.8,6.9-8.5,13.5-1.1,18.9,7.3,5.9,4.4,17.7-.9,26.2,1.1,4.1,4.8,9.2,5.2,13.4,1.2,11.1-8.8,21.3,0,30.7,5.5,13.3-7.1,19.4-.2,29.2ZM119.7,273.8c-13.4-21.1-1-23.6-15.2-30.5-8.8-7.2-5.7-20.3-3.9-28,1.8-7.7-10.2-5.4-17.8-13.9-7.6-8.5,1.7-17.4-1.8-24.2-1.2-2.3-7-4-9.5-5.6-4.5-3.1-9.6-9.5-9.9-15.5-.4-7.4,4.4-16.6-2.8-21.6-14.4-3.8-8.8-18.7-3.3-28.2,5.3-16.3-10.6-14.8-18.5-6.3-4.6,5.9-.9,7.8-.4,12.7.8,8.3-10.7,9.6-6.4,20.1,4.1,10,11,13.2,6,26.6-1.2,5-11.3,14.9-5.7,17.6,17.3,19.7,1.9,20.4-.6,37.4.4,7.1,10.3,7.3,11.3,15.1,1.6,12.4-11.9,19-11.8,28.3,0,1.1,3.2,6.1,4.1,7.3,22.4,20.1-11.1,48.4-22.9,32.7-4-6.5,3.7-13.1,2.9-18.4-.6-4.4-4.6-5-7-7.5-10.1-9.9-.2-22.3,5.9-31.2,2.1-4.5-.6-4.4-2.5-6.2-7.8-5.4-10.2-14.6-6.8-23.8,2.8-8.3,8.6-8.8,5.1-18.1-13.3-22.3,0-23.8,3.2-41.2-.5-4.1-6.2-9.9-7.7-14.1-6.3-14.2,12.3-22.4,8.1-36.5-1-5.3-2.3-6-.8-12.6,13.7-36.7,81.5-30.8,66.9,15.1-.9,3.9-5.2,8.4-3.4,12.3.7,1.6,8.5,4.8,10.3,6.9,7.1,7.8,4.6,19.3,5.7,29.1,1.2,6.8,9.2,5.4,12.7,8.8,6.9,7.9,5.8,12.3,3.6,21.1-.5,8.3,2.4,5.6,7.7,9.1,5,3.4,8.2,6.1,9.2,13,1.3,8.9-4.5,16,0,21.1,4.5,5.1,9.3,5.2,11.8,9.3,2.5,4,4,7.5,3.5,14.3-.3,4.5-4.2,6.8-4.2,6.8,0,0,4.5,0,6.4-3.8,1.3-2.4,1.9-4.2,1.6-6.7,0-2.3,0-4.3.4-6.6,1.5-6.7,9.2-14.2,7.4-21-.8-2.9-6-5.9-7.3-8.7-2.9-6-.8-15.3,3.2-21.4,1.7-2.6,6.1-6,6-8.9,0-1.1-2.3-3.3-3-4-.9-.9-2.6-2.9-3.6-3.9-7-7.1-8.2-15.9-2.8-26.2,2-3.8,6.7-7.3,5.6-11.6-1.2-4.6-7.5-9.2-8.1-13.7-.7-5.7,1.8-13.3,5.6-18.1,1.4-1.8,3.8-2.4,3.4-5.1-.2-1.6-5.6-5.2-7-6.8-7.4-9.7-12.3-29.6-.7-38.7,3.6-2.3,14.2-4,17.4-1.6,5,3.9,1.8,9.1,2.2,14.7.5,6.2,5.3,8.9,7.8,13.9,5.1,8.7,4.2,20.3-2.6,28.7-4.5,7.9,1.4,13.7,4.3,19.6,4.9,9.1.9,18.8-4.4,26.4-3.1,8.4,8,15.6,8,24.2,1.8,18.6-10.1,15.7-5.8,28.1,3,7.3,8.6,9.9,5.8,20.4-1.1,4.3-6.4,9.2-6.8,13.7-.3,3.1,2.5,7.5,2.8,11,.4,4.2-.6,15.7-2.7,19.6-10.3,17-36.6,19.7-48.3,5.1ZM301.3,381.3c3.4,5.8,7.3,7.4,6.2,16.7h-.2c.1,5.1-8.5,12.3-3.8,16.2,10.1,11.7-.4,36.7-15.9,38.8-3.4.3-5.1-1.9-6.7,2.1-4.8,9.4-19.7,13.1-27.7,6.2-3.1-2.1-6.5-4.6-9.3-1.8-11.4,8.9-26.2-4.3-21.1-17.6,1-3.7,5.8-11.5,6.1-14.9,0-1.4-1.4-2.8-2.9-4.3-10.5-8,1.1-18.1,3-26.6-10.6-7.9-8.2-13.9-2.3-26.3-1.3-3.1-6.6-5-7-8.9-1-7,3.1-12.8,5.1-18.5-5.4-7-9.3-15.6-1.6-22.9,9-9.2-9-14.3-2.6-26.3,2.7-6.4,7.9-10.3,14.9-11.4,11.4-1.4,12.3,8.8,8.4,16.8,0,9.5,9.7,13.1,1.1,25.2-7.9,11.1,10.8,4.4-3.6,26.3,0,.8,1.2,1.8,2.4,2.8,9.8,6.5,2.5,15.6-.5,23.6.2,3.6,5.7,6,6.7,9.9,2.9,8.1-4.4,12.7-5.4,19.1,4.7,7,10.2,7.7,6.2,19-1.2,4.2-5.7,6.5-5.1,10.9.6,1.9,8,.2,10.2,1.2,3.2.9,5.6,4.5,9,3.9,3.2-1,5.2-5.5,9-7,2.2-1.1,5-1.2,7.3-1.3,3.4-1.1,4.4-4.3,1.5-7.7-6.1-7.7-.6-18.7,3-26.2-.9-2.4-4.9-5.9-5.8-8.3-3.5-9,.9-15.5,4.3-22.2-.4-1.8-3.8-3.7-4.6-5.6-2.4-4.4-2.2-13.7,1.6-17.7,5.1-8.3-13.1-11.8.5-28.7.7-3.5.8-5.7-1.9-8.7-3.2-4.8-6.4-10-2.9-19.2,3-6.8,12.3-12.4,19.2-8.3,7.5,4.9-1.8,12.1,4.5,16.8,9.3,8.9,4.1,20.2-1.9,29.1-.6,2.5,1.3,2.3,2.6,3.9,5.5,5.4,3.9,17.2-2.4,23.4.8,1.9,4.6,6.5,5.2,8.4,1.5,4.3,1,12.6-2.2,16.6-1.1,1.7-1.4,2-.6,3.5ZM204.4,448.3l.4.2c-8-5.3-2.8-13.3-6-21.1-2.2-5.5-7.8-3.9-4.9-10.6,5.6-11.5-9.6-12.4-4.1-21.2,1.1-1.8,2.6-5.3,1.8-8.2,11-2.5,18.1-20.1,12.1-29.9-1.4-2.5-4.1-4-2.2-6.9,8.5-6.3,7.6-20.7-2-25.4-6.9-3-2.3-6.5-.9-11.6,3.1-10.9-3.4-23.3-14.7-21.7-4.7,0-9.4,4.7-13.2,6-6-9.9-22.2-3.5-25.6,5.5-1.1,0-1.7-2-3.1-2.5-7.2-2.5-10.5-1.3-17.6,3.2-10.8,8-13.6,27.1-3.4,36.5-8.3,11.6-10,24.9-1.8,33.8-4.7,12-7.5,20.7,1.4,30.6-5,8.8-7.6,22.9,0,30.3.7.6.6,1.6-.1,2.8-7.3,10.4-9,18.1.9,27.8.8,5-3.2,8.5-1.1,13.9,1.3,3.5,4.6,5.4,8.8,5.1,11.9-.5,15.3-15.6,12.8-24.5-1.4-4.7-3.9-5.6-6.2-8.8-3.3-7.3,13.4-15.6,4.8-27.9-2.1-3.9-6.1-4.9-3.7-10.1,1.4-3.5,5.4-3,8.5-4.4,3.6-1.9,7-8.6,9.8-10,2.2-1.2,4.2-1.1,6.2-.7s4.2,2.9,8.2-.6,2.7-2.2,2.9-3.9c1.2,1.5.2,3.8-.9,4.8-3.4,3.1-3.4,5.8-3.2,7.3.8,6.5,8.1,7.6,5,16.2-1,9.7,3.8,9.2,5.4,15.7.4,6.8-2.4,14.4,4.6,20,1.3,1.3,2.2,2.1,2.4,4.3-2.1,11.9,15.9,13.1,21.6,4.9,3.1-6.6,3.7-14.8-2.8-18.9ZM184.9,370c-10.3-2.6-13.2,9.8-20.5,11-6.7-1.9-14.5-3.4-19.7,3.4-2,2.9-8.4,5.8-10,2.4h.4c0-7.9,8.5-14.4,7-23.7-.6-6.4-5.8-5.1-8.3-7.6,1.7-9.1,15.4-21.8,3.2-29.5-2-1.6-3-2.6-2.8-4.1,6.5,7.3,13,3.6,18.3-2.3,1.9-2,1.7-4,4.6-3.9,9.4,1.4,9.1,5.3,19.9-.5-6.6,13.6-4,20.6,8.6,23.6-5.3,5.1-10.3,9-8.4,17.3,1.1,6,5.6,6.4,9,9,1.5,1.5,1,4.4-1.3,4.9ZM206,267.4c-1.9-6.1,1.9-14.2,1.4-20.4-.6-7.7-7.3-9-5.6-19,3.4-10.1,9.6-10.1,10.5-23.8-.2-3.9-5.6-7.5-7.4-10.4-3.7-6.1-2.3-16.9,1-23.9v-.2c1-2.4,3.3-6.6,5.2-8.4,3.5-8.5-4-11-6.9-17.3-3.3-14,2.9-20.6,8-31.1-1.8-4.1-4.6-7.3-8.6-11.5-4.6-4.7-2.1-20.6,3.9-24.6,8.5-11.8-7.6-24.4,7.1-34.7,8.1-6,13.6-4.9,18.5,2.2,6.4,9.2,4.7,20.4-.3,31.5-1.5,3.3-5.1,5.9-5.2,10.1,0,4,3,4.2,5.1,6.2,4.1,3.8,6.6,15.1,5.4,21.2-.3,1.3-3.8,9.4-4.6,11.2-11.9,16.2,9.1,13.2,4.9,30.5-.5,1.8-3.7,10.3-4.3,11.5-1.3,3.2-6.1,7.9-6.5,11.9,2.9,6.9,10.1,14.6,7.2,23.8-4.9,16.5-12.4,22.8,0,38,1.9,4.9-.9,18.2-4.2,23.2-6.5,7.8-17.3,13.8-24.6,4ZM541.8,266.3c-6.3,1.3-10.2-4.8-15.5-4.7-5.9,2.7-9.9,8-16.8,6.6s-6.5-4.9-10.1-2.9c1-.2,5.9,4.1,1.4,14.1s2.5,3.7,6.3,13.9c2.3,10-1.2,13.2-3.7,21-1.5,3.4,1.9,2.6,3.4,5,3.2,4.3,4.1,13,3.1,18.6-.5,3.5-4,7.3-4.2,10.5,0,1.7,1.1,3.1,2.4,4.7,5.9,6.2,3.7,18.4.8,24.9-1.6,3-3.7,5.3-3.6,8.9,1.9,2.4,6.3,5.5,7.5,7.8,5.3,13.6-5,39.2-22.7,29.4-7-4.3-3.8-13.7.6-18.9-1.3-8.4-11-6.5-7.1-22,1.3-6.6,6.8-10.1,3.7-16.8-2.1-4.3-5.3-6.2-5.3-12.1-1.5-9.9,11.4-18.4,1.7-25.8-9.4-6.3-1.8-17.8,1.3-25.4,1.4-4.5-2.4-6.1-4.2-9.6-3.3-5.9-3.5-13.1.4-18.1,1-1.4,1.4-2.2,1-4.1-3,1.6-8.7,2-11.3.2-9.5-4.4-14.4,11-23.8,10.7-18.3-5.5,2.3-33.4,14.6-34,10.8-1.8,11.1,6.9,19.9-1.3,6.4-6.6,19.1-8.6,26.3-2.2,1.5.8,2.9,2.8,4.5,2.3,3-.4,5.7-4.6,8.4-6.4,9.7-7.4,26.1-1.1,31.3,8.4h.3c4.1,6.7-3.5,16.6-10.6,17.3ZM516.5,218.8c.3-11.8-17.2-12.8-17.7-26,0-4.3,4.2-11.5,3.9-13.5-4.6-10-16.1-2.8-12.7-19.5,6.9-16.7-1.5-9-10.6-18.9-4.7-6.5,7-23.9-6.6-21.6-5.2,1.6-2.4,7.1-7.9,10.6s-15.4-5.9-19.9,8.1-17.9,3.1-18,21.4c0,5.4,5,11,5.1,16.7-2.3,21.3-12.8,13.3,2.6,34.7,2,5.6-1.7,21.1-5.8,26.4-10,11.2-28.2,8.1-24.5-8.4.7-5.9,4.7-9.5,1.5-15.4-11.1-9.7-5.7-19.2.4-30.4,3.1-7-1.7-7.7-4-13-2.8-6.5-1.7-13,1.7-20,1.6-3.3,4.7-5.8,4.2-9.9-.4-3.3-5.7-6.7-7.4-9.6-3.5-5.9-2.8-19.6.1-26.7,2.2-5.5,5.7-7.9,4.9-14.2-1.1-8.9-7.6-14.1-6-24.5,1.5-9.8,11.7-16.3,7.7-26-8-12.2-7.1-31.3,12.2-30.3,12.9.3,13.2,9.6,11.2,19.9.3,2.5,2.8,5.6,3.3,8.1,2.4,12.2-10.9,21.4-8.2,31.5,8.6,13.8,7.9,11.5,3.7,28.3-3.5,7.5-8.5,19.7.2,20.8,3.5-.4,3.3-1.6,9.4-7.9,6.1-6.3,11.6-.4,15.1-5.9s3.7-10,7.6-15.7c3.9-5.7,12.1-9,13.1-11.8,2.1-6.1-3-11.8,3.3-19.6s14.1-4.9,12.9-13h.2c-2.1-12.8,3.3-24.3,13.9-29,14.5-11.6,26.6-13.1,22.8,8.6-.8,14.3-22.5,9.3-17,27.8.2,1.3,2.1,6.8-1,12.2-3.1,5.4-5.1,4.5-9.2,7.1-5.3,5.1-4.2,9.7-5.1,14.9s-.9,3.6-2,5.6-2,3.2-5.1,4.6-2.1.9-3,1.8c-.5.4-.9.9-1.3,1.4-.3.4-.9,1-.9,1.6.4-.4.9-.6,1.3-.9,4.1-2.7,9.2-1,11.5.1,3.9,1.9,7,5.9,8.1,10,1.3,4.3-2,10.1-1.6,14.8,19.3,12.3,13.8,13,11.7,31.8.7,5.3,4.1,4,7,6.6,6,4.7,4.3,12.9,1.4,19.3.8,12,16.7,10.8,21.4,28.5,2.5,16.8-22.6,22.8-28,8.5Z"/>
</svg>