<?xml version="1.0" encoding="UTF-8"?>
<svg id="Layer_2" xmlns="http://www.w3.org/2000/svg" version="1.1" viewBox="0 0 553.2 501.1">
  <!-- Generator: Adobe Illustrator 29.8.7, SVG Export Plug-In . SVG Version: 2.1.1 Build 1)  -->
  <defs>
    <style>
      .st0 {
        fill: #fff;
      }
    </style>
  </defs>
  <path class="st0" d="M269,151.2c1-5-7.5-8.3-8.4-14.6-5.2-13.5,3.1-25.6,10.5-37.5.3-3.1-4.5-8.7-5.4-12.4-2.3-9.5.9-27,10.8-33.3,3.2-2,9.2-3.8,11.9-6.3,5.2-4.8,10.6-13.3,15-18.9,2.7-2.5,8.4-4.5,11.7-5.3v.2c22-6.1,16.1,14,34.6,2.2,12.2-5.9,25.7,4.1,22.6,17-1.7,10.8-12,17.3-6.8,27.7,3.2,6.4,8,8.1,6.8,17.5-.8,13-25.9,28.8-28.2,8.9.2-5.1,5.3-7.8,1.1-12.7-4.4-5-9-5.1-5.7-14.5,1.7-5,10-15.2,8.1-19.3-2.6-5.8-10.6,1.9-14,3.1-9.4,3.4-12.5-5.5-21-2-7.3,3-7.1,11.9-12.7,16.9-7.5,4.8-9,3-9.9,12.4.3,4.2,2.5,5,4,7.8,6,12.6,1.7,20.2-6.2,30.5-.9,1.5-4,6.6-4,7.8,0,2.5,4.7,5.7,6.4,7.9,5.2,6.5,8.4,13,4.7,22.6-2,5.4-8.2,9.6-8.3,15-.1,4,4.9,4.3,7.3,5.7,11.8,7,6.5,22.8-.2,32.4-2.2,8.7,6.3,10.9,11,15.2,4.2,3.8,4.5,11.2,12,5.2,7.2-5.7,7.3-8.9,18-8.7,10,1.8,24.9,9.7,12.9-7.4-2.4-7.7,6.2-19.6,5.9-23.8-.4-4.5-8.6-6.8-9.5-12.9-2.5-15.4,23.4-23.9,29.2-8.8,11.2,23.6-6.3,28.6.5,43.4,2,3.3,4.3,3.1,4.1,8.3-.6,21-19.1,31.9-37.8,29.8-8.2-.9-11.3-5.9-20.1.7-5,3.8-7,8.2-13.7,9.9-14.2,4-27.5-3.9-27-18.2-.9-5.6-11-11.6-12.8-17.4-3.7-10.5,2-17.7,5.5-26.4,1-4.9-2.9-4.8-5.5-6.9-2.5-2-6.8-5.4-7.9-8.5-2.8-11.1,3.8-23.4,10.5-32.3h0ZM400.8,130.5c1.7,2.9,7,6.3,7.4,9.6.5,4.1-2.6,6.6-4.2,9.9-3.4,7-4.5,13.5-1.7,20,2.3,5.3,7.1,6,4,13-6.1,11.2-11.5,20.7-.4,30.4,3.2,5.9-.8,9.5-1.5,15.4-3.7,16.5,14.5,19.6,24.5,8.4,4.1-5.3,7.8-20.8,5.8-26.4-15.4-21.4-4.9-13.4-2.6-34.7,0-5.7-5.1-11.3-5.1-16.7,0-18.3,13.5-7.4,18-21.4s14.4-4.6,19.9-8.1,2.7-9,7.9-10.6c13.6-2.3,1.9,15.1,6.6,21.6,9.1,9.9,17.5,2.2,10.6,18.9-3.4,16.7,8.1,9.5,12.7,19.5.3,2-3.9,9.2-3.9,13.5.5,13.2,18,14.2,17.7,26h0c5.4,14.3,30.5,8.3,28-8.5-4.7-17.7-20.6-16.5-21.4-28.5,2.9-6.4,4.6-14.6-1.4-19.3-2.9-2.6-6.3-1.3-7-6.6,2.1-18.8,7.6-19.5-11.7-31.8-.4-4.7,2.9-10.5,1.6-14.8-1.1-4.1-3.1-6.5-7-8.4-2.3-1.1-6.4-2.6-10.9-.7s-5.4,4.4-6.5,4.2c-1.1-.2,2.1-5.5,5.2-6.9,3.1-1.4,9.5-3.3,10.5-12.3.6-5.2-.2-9.8,5.1-14.9,4.1-2.6,6.1-1.7,9.2-7.1,3.1-5.4,1.2-10.9,1-12.2-5.5-18.5,16.2-13.5,17-27.8,3.8-21.7-8.3-20.2-22.8-8.6-10.6,4.7-16,16.2-13.9,29h-.2c1.2,8.1-6.6,5.2-12.9,13s-1.2,13.5-3.3,19.6c-1,2.8-9.2,6.1-13.1,11.8-3.9,5.7-4.1,10.2-7.6,15.7s-9-.4-15.1,5.9c-6.1,6.3-5.9,7.5-9.4,7.9-8.7-1.1-3.7-13.3-.2-20.8,4.2-16.8,4.9-14.5-3.7-28.3-2.7-10.1,10.6-19.3,8.2-31.5-.5-2.5-3-5.6-3.3-8.1,2-10.3,1.7-19.6-11.2-19.9-19.3-1-20.2,18.1-12.2,30.3,4,9.7-6.2,16.2-7.7,26-1.6,10.4,4.9,15.6,6,24.5.8,6.3-2.7,8.7-4.9,14.2-2.9,7.1-3.6,20.8,0,26.7ZM98.7,451.3c-.9,1.1-1,2.2,0,3.3,11.1,14.1-9.4,32.4-23.6,24-5.6,13.8-19.4,22.6-31.9,11.2-6.5,4.3-8.5,9.9-18.6,11.1-11.3,2.3-17.8-9.6-12.2-18.6.3-.7.3-1-1-1.3-13.7-4-10.7-18.6-4-30.2.3-3.3-4.4-5.5-5.8-8.6-3.3-7.5,1.7-19.5,5.2-26.8-10.6-12.8-3.8-19.4,1-33.4-4.8-4.7-9.1-10.9-6.3-18.3.9-3.6,5.3-8.1,5.6-11.5-7.9-14.2,1.8-32.8,17.9-35.2,12.5-1.7,12.1,9,22.6-3.8,6.3-6,14-4.7,21.3-3.4,7.9,4.1,10.3,10.6,7.5,18.8,7.9,1.2,12.7,2.6,14.2,11.4,0,3.7.2,12.4-3.8,14.7,9.6,6.6,4.8,20.9-4.1,26.6,3.2,2,6.9,5.5,7.2,11.4,12.5-1.4,20.3,12.6,14.7,23.4-1,2.7-5.9,6.2-2.9,8.5l.6.2c10,8.1,6.4,20.5-3.5,26.5ZM26.3,356.6c-1,2.3-4.3,4.4-4,6.7.3.3,6.2,4.4,6.3,4.6,3,13.3-2.4,14.1-4.1,24.7,3.3-3.8,8.6-3.6,12.2-1.5,1.8-1,3.9-4.4,5.7-5.5,5.7-3.8,12.6.3,18.2,1,1.2-.8,1.2-2.7,1.2-4-2.6-8.6,15.8-12.8,6.8-18.6-6.1-2.9-5.3-12.1.8-16,.7-3-1.1-5.8-5.2-5.1-9,.7-9.1-4.7-10-8,0-.9-.7-2.1-1.1-2.8-.5-.9-1.2-1.8-2.2-2.2-.4-.1-1.2-.3-.9.4,0,.2.8.7,1,.9.7.9.7,1.8.3,2.8-19.4,19.6-18.9-1.1-27.2,6.1.2.8.5,1.3.8,1.7h0c5.1,2.2,3.7,10.4,1.6,14.7ZM86.7,440.2c-.9-1.4-3.9-2.4-5.1-3.7-5.2-5-3.7-13.9,2.1-19.2,1.2-1.2,1.4-2.1.7-2.9-5.9-3.4-13.6,0-15.5-9.9-5.8,5.1-12.8,1.6-19.1,0-1.2.2-1.9.9-3.2,2.5-3.3,5-11.4,7.2-16.8,5.2,0,.2-.2,2.2-.5,2.2.2.3-7.2,15.6-7.2,15.9,1.8,5.9,8.2,6.5,7.4,14.7.2,4.3-7.9,13-6.7,16.8,4.6,1.9,7,6.1,6.9,10.8,0,0,0,.2,0,.2,0,.2,0,.3,0,.5-.2,1.6-.9,2.9-1.6,4.4-.7,1.5-1.9,3.6-1.4,5.2.5,1.3,1.8,2.1,1.8,1.6,0-.5-.9-1.4-.4-3.1.9-3.2,3.3-8.3,6.5-10.8.1,0,.2-.2.3-.3,0,0,.2-.1.3-.2,3.3-2.3,7.1-3.5,11-2.9,4,.3,7,5.4,10.2,5.9,2.3-.8,3.6-3.8,4.9-5.8,2.7-6.8,11.6-11.5,19.3-6.9-.7-.9-1.7-1.7-2.2-3h.2c-2.4-8.1,4.5-13.8,8.2-17.4ZM435.9,401.1c-6.9-9.8,5.7-15.9.2-29.2-8.8-9.4,1.2-19.6,0-30.7-.4-4.2-4.1-9.3-5.2-13.4,5.3-8.5,8.2-20.3.9-26.2-7.4-5.4-.7-12,1.1-18.9.7-3.3,1-12.4.3-15.3-2.8-6-7.1-11.7-14.5-10.4-4.3.6-7.9,3.6-9.5,7.8-3,7.6,2.6,11.9,3.1,18.3-1.4,9.1-12,21.1-1.1,28.9,1.2,1.1,3.1,2.8,3.1,3.7-16.9,30.5,6.9,25.3-1.6,38-7.1,8.4,0,18.6,3.5,26.8,1,4-2.1,6-4.5,10.6-2.4,4.6.7,6.4,1.5,8.2.8,1.8,3,6.1,1.8,8.4s-3.5,2.6-4.5,2.5c-1-.1-2.6-1.2,0-1.8,2.9-.7,2.6-4,.6-6.1s-4.2-2.7-5.1-6.1c-.9-3.4,2.1-8.4,1.5-12.4-1.7-11.1-8.5-10.3-11.2-16.7-.6-2.5,1.4-4.1,2.1-6.7,3-9.3-2.3-12.9-7.7-18.5,3.8-8.3,2.5-19.4-5.8-24.2-2.3-1.6-6.2-1.1-4.6-4.8,3.7-5.9,3.8-16.3-1.4-21-2.9-2.5-9-2.1-6.8-7.1,4.1-15-14.2-20.9-26.7-19.3-3.4.5-12.1,4.3-14.8,6.6-4.1,4.4-7.5,12.9-6.4,18.6-1.5,10.8-13.5,21-2.2,31.7,8.9,9-3.7,4.2-2.8,24.5,2.2,12.4,10.7,10.1,3.7,23.5-5.1,20.1,13.4,20.1,5.5,32.7-4.4,7.7-6.4,18.3,1.1,25.1,1,3.3-2,9-2.3,12.7-1,16.8,22.4,14.6,26,1,6.9-26.1-12.7-24.5-3.8-38.1,5.2-7.6,4.5-20-2.5-25.1-1.2-.9-1.6-1.2-1.7-2.9,3.7-11.2,9.8-16.9,2.9-30.4-1.8-2.4-5-4.3-6.3-7.2,6.3-10.5,11.6-24-2.1-30.3-1.7-.8-1.9-3.4-.3-4.5,5.9-3.2,5.7-6.1,6.7-9,.6-1.7,2-4.1,4.1-5.5,1.5-.9,2.7-.8,3.3,0,.2.2.4.3.5.3-.1,0-.3,0-.8,0-4,2-4.9,5.4-3.8,9.3,1.1,3.9,5.1,6.6,9.2,6,8.6-1.8-14.5,18.6,9.8,29.6,1.7,1.1,1.2,2.8-.3,6.7-5.5,15.5,1.6,16.7,9.9,23.3-2.7,8.9-6.4,21.1,4.7,25.9,1.5.7,2.2,1.1,2.8,3,.8,3.2-1,5.1-1.6,8.3-2.3,8.1,1.2,12.8,8.4,15.7.6,1.9-.6,5.2-.8,7.5-2.9,20.9,22.1,20.9,35.3,13.2,10.6-5.8,16.7-26.8,9-36.6h0ZM552.4,249h-.3c-5.2-9.5-21.6-15.8-31.3-8.4-2.7,1.8-5.4,6-8.4,6.4-1.6.5-3-1.5-4.5-2.3-7.2-6.4-19.9-4.4-26.3,2.2-8.8,8.2-9.1-.5-19.9,1.3-12.3.6-32.9,28.5-14.6,34,9.4.3,14.3-15.1,23.8-10.7,2.4,1.7,7.2,2.4,10.3,1.2.4-.1.8.1.8.6,0,1.6-1,3-1.8,4.1-3.9,5-2.7,10.2.6,16.1,1.8,3.5,5.6,5.1,4.2,9.6-3.1,7.6-10.7,19.1-1.3,25.4,9.7,7.4-3.2,15.9-1.7,25.8,0,5.9,3.2,7.8,5.3,12.1,3.1,6.7-2.4,10.2-3.7,16.8-3.9,15.5,5.8,13.6,7.1,22-4.4,5.2-7.6,14.6-.6,18.9,17.7,9.8,28-15.8,22.7-29.4-1.2-2.3-5.6-5.4-7.5-7.8,0-3.6,2-5.9,3.6-8.9,2.9-6.5,5.1-18.7-.8-24.9-1.3-1.6-2.4-3-2.4-4.7.2-3.2,3.7-7,4.2-10.5,1-5.6.1-14.3-3.1-18.6-1.5-2.4-4.9-1.6-3.4-5,2.5-7.8,6-11,3.7-21-3.8-10.2-10.9-4-6.3-13.9,3.4-7.4.8-12.3-2.3-14.5-1.2-.9-2.8-1-4.2-1s-3.1.5-3.3.2,3.6-1.4,5.1-1.4c5.1,0,8.1,4.5,13.4,5.6,6.9,1.4,10.9-3.9,16.8-6.6,5.3,0,9.2,6,15.5,4.7h0c7.1-.7,14.7-10.6,10.6-17.3ZM301.9,377.8c3.2-4,3.7-12.3,2.2-16.6-.6-1.9-4.4-6.5-5.2-8.4,6.3-6.2,7.9-18,2.4-23.4-1.3-1.6-3.2-1.4-2.6-3.9,6-8.9,11.2-20.2,1.9-29.1-6.3-4.7,3-11.9-4.5-16.8-6.9-4.1-16.2,1.5-19.2,8.3-3.5,9.2-.3,14.4,2.9,19.2,2.7,3,2.6,5.2,1.9,8.7-13.6,16.9,4.6,20.4-.5,28.7-3.8,4-4,13.3-1.6,17.7.8,1.9,4.2,3.8,4.6,5.6-3.4,6.7-7.8,13.2-4.3,22.2.9,2.4,4.9,5.9,5.8,8.3-3.6,7.5-9.1,18.5-3,26.2,2.9,3.4,1.9,6.6-1.5,7.7-2.3,0-5.1.2-7.3,1.3-3.8,1.5-5.8,6-9,7-3.4.6-5.8-3-9-3.9-2.2-1-9.6.7-10.2-1.2-.6-4.4,3.9-6.7,5.1-10.9,4-11.3-1.5-12-6.2-19,1-6.4,8.3-11,5.4-19.1-1-3.9-6.5-6.3-6.7-9.9,3-8,10.3-17.1.5-23.6-1.2-1-2.4-2-2.4-2.8,14.4-21.9-4.3-15.2,3.6-26.3,8.6-12.1-1.1-15.7-1.1-25.2,3.9-8,3-18.2-8.4-16.8-7,1.1-12.2,5-14.9,11.4-6.4,12,11.6,17.1,2.6,26.3-7.7,7.3-3.8,15.9,1.6,22.9-2,5.7-6.1,11.5-5.1,18.5.4,3.9,5.7,5.8,7,8.9-5.9,12.4-8.3,18.4,2.3,26.3-1.9,8.5-13.5,18.6-3,26.6,1.5,1.5,2.9,2.9,2.9,4.3-.3,3.4-5.1,11.2-6.1,14.9-5.1,13.3,9.7,26.5,21.1,17.6,2.8-2.8,6.2-.3,9.3,1.8,8,6.9,22.9,3.2,27.7-6.2,1.6-4,3.3-1.8,6.7-2.1,15.5-2.1,26-27.1,15.9-38.8-4.7-3.9,3.9-11.1,3.8-16.2h.2c1.1-9.3-2.8-10.9-6.2-16.7-.8-1.5-.5-1.8.6-3.5ZM230.6,263.4c3.3-5,6.1-18.3,4.2-23.2-12.4-15.2-4.9-21.5,0-38,2.9-9.2-4.3-16.9-7.2-23.8.4-4,5.2-8.7,6.5-11.9.6-1.2,3.8-9.7,4.3-11.5,4.2-17.3-16.8-14.3-4.9-30.5.8-1.8,4.3-9.9,4.6-11.2,1.2-6.1-1.3-17.4-5.4-21.2-2.1-2-5.1-2.2-5.1-6.2.1-4.2,3.7-6.8,5.2-10.1,5-11.1,6.7-22.3.3-31.5-4.9-7.1-10.4-8.2-18.5-2.2-14.7,10.3,1.4,22.9-7.1,34.7-6,4-8.5,19.9-3.9,24.6,4,4.2,6.8,7.4,8.6,11.5-5.1,10.5-11.3,17.1-8,31.1,2.9,6.3,10.4,8.8,6.9,17.3-1.9,1.8-4.2,6-5.2,8.4v.2c-3.3,7-4.7,17.8-1,23.9,1.8,2.9,7.2,6.5,7.4,10.4-.9,13.7-7.1,13.7-10.5,23.8-1.7,10,5,11.3,5.6,19,.5,6.2-3.3,14.3-1.4,20.4,7.3,9.8,18.1,3.8,24.6-4ZM207.3,467.2c-5.7,8.2-23.7,7-21.6-4.9-.2-2.2-1.1-3-2.4-4.3-7-5.6-4.2-13.2-4.6-20-1.6-6.5-6.4-6-5.4-15.7,3.1-8.6-4.2-9.7-5-16.2-.2-1.5-.2-4.2,3.2-7.3,1.1-1,2.1-3.3.9-4.8-.2,1.7,1.1.4-2.9,3.9s-6.2,1-8.2.6c-2-.4-4-.5-6.2.7-2.8,1.4-6.2,8.1-9.8,10-3.1,1.4-7.1.9-8.5,4.4-2.4,5.2,1.6,6.2,3.7,10.1,8.6,12.3-8.1,20.6-4.8,27.9,2.3,3.2,4.8,4.1,6.2,8.8,2.5,8.9-.9,24-12.8,24.5-4.2.3-7.5-1.6-8.8-5.1-2.1-5.4,1.9-8.9,1.1-13.9-9.9-9.7-8.2-17.4-.9-27.8.7-1.2.8-2.2,0-2.8-7.6-7.4-5-21.5,0-30.3-8.9-9.9-6.1-18.6-1.4-30.6-8.2-8.9-6.5-22.2,1.8-33.8-10.2-9.4-7.4-28.5,3.4-36.5,7.1-4.5,10.4-5.7,17.6-3.2,1.4.5,2,2.5,3.1,2.5,3.4-9,19.6-15.4,25.6-5.5,3.8-1.3,8.5-6,13.2-6,11.3-1.6,17.8,10.8,14.7,21.7-1.4,5.1-6,8.6.9,11.6,9.6,4.7,10.5,19.1,2,25.4-1.9,2.9.8,4.4,2.2,6.9,6,9.8-1.1,27.4-12.1,29.9.8,2.9-.7,6.4-1.8,8.2-5.5,8.8,9.7,9.7,4.1,21.2-2.9,6.7,2.7,5.1,4.9,10.6,3.2,7.8-2,15.8,6,21.1h0c6.2,4.1,5.6,12.2,2.6,18.7ZM186.2,365.1c-3.4-2.6-7.9-3-9-9-1.9-8.3,3.1-12.2,8.4-17.3-12.6-3-15.2-10-8.6-23.6-10.8,5.8-10.5,1.9-19.9.5-2.9-.1-2.7,1.9-4.6,3.9-5.3,5.9-11.8,9.6-18.3,2.3-.2,1.5.8,2.5,2.8,4.1,12.2,7.7-1.5,20.4-3.2,29.5,2.5,2.5,7.7,1.2,8.3,7.6,1.5,9.3-7,15.8-7,23.7h-.4c1.6,3.4,8,.5,10-2.4,5.2-6.8,13-5.3,19.7-3.4,7.3-1.2,10.2-13.6,20.5-11,2.3-.5,2.8-3.4,1.3-4.9ZM174.6,224.3c2.8-10.5-2.8-13.1-5.8-20.4-4.3-12.4,7.6-9.5,5.8-28.1,0-8.6-11.1-15.8-8-24.2,5.3-7.6,9.3-17.3,4.4-26.4-2.9-5.9-8.8-11.7-4.3-19.6,6.8-8.4,7.7-20,2.6-28.7-2.5-5-7.3-7.7-7.8-13.9-.4-5.6,2.8-10.8-2.2-14.7-3.2-2.4-13.8-.7-17.4,1.6-11.6,9.1-6.7,29,.7,38.7,1.4,1.6,6.8,5.2,7,6.8.4,2.7-2,3.3-3.4,5.1-3.8,4.8-6.3,12.4-5.6,18.1.6,4.5,6.9,9.1,8.1,13.7,1.1,4.3-3.6,7.8-5.6,11.6-5.4,10.3-4.2,19.1,2.8,26.2,1,1,2.7,3,3.6,3.9.7.7,3,2.9,3,4,0,2.9-4.3,6.3-6,8.9-4,6.1-6.1,15.4-3.2,21.4,1.3,2.8,6.5,5.8,7.3,8.7,1.8,6.8-5.9,14.3-7.4,21-.4,2.3-.4,4.3-.4,6.6.3,2.5-.3,4.3-1.6,6.7-1.7,2.9-4,3.7-5.7,3.8-.7,0-1-.9-.4-1.2,1.6-1,3.7-2.9,3.9-5.6.5-6.8-1-10.3-3.5-14.3-2.5-4.1-7.3-4.2-11.8-9.3-4.5-5.1,1.3-12.2,0-21.1-1-6.9-4.2-9.6-9.2-13-5.3-3.5-8.2-.8-7.7-9.1,2.2-8.8,3.3-13.2-3.6-21.1-3.5-3.4-11.5-2-12.7-8.8-1.1-9.8,1.4-21.3-5.7-29.1-1.8-2.1-9.6-5.3-10.3-6.9-1.8-3.9,2.5-8.4,3.4-12.3,14.6-45.9-53.2-51.8-66.9-15.1-1.5,6.6-.2,7.3.8,12.6,4.2,14.1-14.4,22.3-8.1,36.5,1.5,4.2,7.2,10,7.7,14.1-3.2,17.4-16.5,18.9-3.2,41.2,3.5,9.3-2.3,9.8-5.1,18.1-3.4,9.2-1,18.4,6.8,23.8,1.9,1.8,4.6,1.7,2.5,6.2-6.1,8.9-16,21.3-5.9,31.2,2.4,2.5,6.4,3.1,7,7.5.8,5.3-6.9,11.9-2.9,18.4,11.8,15.7,45.3-12.6,22.9-32.7-.9-1.2-4.1-6.2-4.1-7.3-.1-9.3,13.4-15.9,11.8-28.3-1-7.8-10.9-8-11.3-15.1,2.5-17,17.9-17.7.6-37.4-5.6-2.7,4.5-12.6,5.7-17.6,5-13.4-1.9-16.6-6-26.6-4.3-10.5,7.2-11.8,6.4-20.1-.3-2.6-1.4-4.3-1.8-6.2-.3-.5-1.8-3.2-1.9-7.1s1-5.5,1.4-5.7c0,0,.1,0,.2,0,.2,0,.2.4.1.6-.3,1.2-.4,2.6.6,3.8s2.8,1,4.6-.3c8.7-6.3,20.6-6.5,15.6,8.6-5.5,9.5-11.1,24.4,3.3,28.2,7.2,5,2.4,14.2,2.8,21.6.3,6,5.4,12.4,9.9,15.5,2.5,1.6,8.3,3.3,9.5,5.6,3.5,6.8-5.8,15.7,1.8,24.2,7.6,8.5,19.6,6.2,17.8,13.9-1.8,7.7-4.9,20.8,3.9,28,14.2,6.9,1.8,9.4,15.2,30.5h-.1c11.7,14.5,38,11.8,48.3-5.2,2.1-3.9,3.1-15.4,2.7-19.6-.3-3.5-3.1-7.9-2.8-11,.4-4.5,5.7-9.4,6.8-13.7Z"/>
</svg>