<?xml version="1.0" encoding="UTF-8"?>
<svg id="Layer_1" xmlns="http://www.w3.org/2000/svg" xmlns:svg="http://www.w3.org/2000/svg" xmlns:sodipodi="http://sodipodi.sourceforge.net/DTD/sodipodi-0.dtd" xmlns:inkscape="http://www.inkscape.org/namespaces/inkscape" version="1.1" viewBox="0 0 1000 687.5">
  <!-- Generator: Adobe Illustrator 29.1.0, SVG Export Plug-In . SVG Version: 2.1.0 Build 142)  -->
  <defs>
    <style>
      .st0 {
        fill: #00a84f;
      }

      .st1 {
        fill: #fff;
      }

      .st2 {
        fill: #fed104;
      }
    </style>
  </defs>
  <sodipodi:namedview id="namedview4" bordercolor="#000000" borderopacity="0.25" inkscape:current-layer="Layer_1" inkscape:cx="500" inkscape:cy="343.45479" inkscape:deskcolor="#d1d1d1" inkscape:pagecheckerboard="0" inkscape:pageopacity="0.0" inkscape:showpageshadow="2" inkscape:window-height="705" inkscape:window-maximized="1" inkscape:window-width="1366" inkscape:window-x="-8" inkscape:window-y="-8" inkscape:zoom="0.741" pagecolor="#ffffff"/>
  <g id="g4">
    <path id="path1" class="st1" d="M295.2,227.9v5c0,7.3-5.9,13.2-13.2,13.2h-81.9v51.4h68.2c7.3,0,13.2,5.9,13.2,13.2v5c0,7.3-5.9,13.2-13.2,13.2h-68.2v53.1h81.9c7.3,0,13.2,5.9,13.2,13.2v5c0,7.3-5.9,13.2-13.2,13.2h-104.7c-7.3,0-13.2-5.9-13.2-13.2v-172.4c0-7.3,5.9-13.2,13.2-13.2h104.7c7.3,0,13.2,5.9,13.2,13.2M399.1,298.9l-23.8-3.4c-9-1.4-14.8-3.8-19.8-8.3-4.3-4.1-6.4-9.6-6.4-16.9,0-18.2,16.6-26.4,33.1-26.4s30.9,7.3,38.9,11.6c5.8,3.1,14.8,3,19.6-1.2l1.4-1.3c6.7-6.1,6.5-17-.7-22.5-12-9.2-37-17.5-58.1-17.5-41.7,0-68.7,23.4-68.7,59.6s4.6,29.2,13.9,38.3c8.9,8.7,21.1,13.9,38.2,16.4l24.2,3.6c9.6,1.4,15.2,3.6,19.3,7.5,4.4,4.2,6.7,10.6,6.7,18.3,0,17.2-12.1,26.6-35.8,26.6s-33.7-9.6-43.4-15.9c-4.6-3-13.2-4.5-18.2-.2l-2.4,2.1c-6.8,6.1-6.2,16.6.6,22.6,14.4,12.6,38.4,23.3,63,23.3s37.3-5.6,50.3-15.7c13.7-10.6,20.9-25.8,20.9-43.9s-5.1-32.1-15.1-41.5c-8.4-8-20.1-12.7-37.8-15.3M86.8,298.9l-23.8-3.4c-9-1.4-14.8-3.8-19.8-8.3-4.3-4.1-6.5-9.6-6.5-16.9,0-18.2,16.6-26.4,33.1-26.4s30.9,7.3,38.9,11.6c5.8,3.1,14.8,3,19.6-1.2l1.4-1.3c6.7-6.1,6.5-17-.7-22.5-12-9.2-37-17.5-58.1-17.5-41.7,0-68.7,23.4-68.7,59.6s4.6,29.2,13.9,38.3c8.9,8.7,21.1,13.9,38.2,16.4l24.2,3.6c9.6,1.4,15.2,3.6,19.3,7.5,4.4,4.2,6.7,10.6,6.7,18.3,0,17.2-12.1,26.6-35.8,26.6s-33.7-9.6-43.4-15.9c-4.6-3-13.2-4.5-18.2-.2l-2.4,2.1c-6.8,6.1-6.2,16.6.6,22.6,14.4,12.6,38.4,23.3,63,23.3s37.3-5.6,50.3-15.7c13.7-10.6,20.9-25.8,20.9-43.9s-5.1-32.1-15.1-41.5c-8.4-8-20.1-12.7-37.8-15.3M628.3,394.6c3.7,9.7-3.5,20.1-13.9,20.1h-3.7c-6.2,0-11.8-3.9-14-9.8l-9.9-27.2h-81.8l-9.9,27.2c-2.1,5.9-7.7,9.8-14,9.8h-3.7c-10.4,0-17.6-10.4-13.9-20.1l64.7-171.4c2.2-5.8,7.7-9.6,13.9-9.6h7.8c6.2,0,11.7,3.8,13.9,9.6l64.7,171.4M575.9,348.2l-30-81.1-29.9,81.1h59.9M986.8,246.1c7.3,0,13.2-5.9,13.2-13.2v-5c0-7.3-5.9-13.2-13.2-13.2h-104.7c-7.3,0-13.2,5.9-13.2,13.2v172.4c0,7.3,5.9,13.2,13.2,13.2h104.7c7.3,0,13.2-5.9,13.2-13.2v-5c0-7.3-5.9-13.2-13.2-13.2h-81.9v-53.1h68.2c7.3,0,13.2-5.9,13.2-13.2v-5c0-7.3-5.9-13.2-13.2-13.2h-68.2v-51.4h81.9M819.3,213.5h-8.2c-5.7,0-10.9,3.3-13.4,8.4l-56.1,116.6-56.1-116.6c-2.5-5.1-7.7-8.4-13.4-8.4h-8.2c-8.2,0-14.8,6.7-14.8,14.9v171.4c0,8.2,6.6,14.9,14.8,14.9h6.3c8.2,0,14.8-6.7,14.8-14.9v-109.9l37.1,79.2c2.5,5.2,7.7,8.5,13.5,8.5h12c5.8,0,11-3.3,13.4-8.5l37.1-79.2v109.9c0,8.2,6.6,14.9,14.8,14.9h6.3c8.2,0,14.9-6.7,14.9-14.9v-171.4c0-8.2-6.7-14.9-14.9-14.9M1000,508.8c0,23.1-16.6,42.3-44.8,42.3h-26.1v41.7c0,5.6-4.5,10.1-10.1,10.1h-6.5c-5.6,0-10.1-4.5-10.1-10.1v-116.2c0-5.6,4.5-10.1,10.1-10.1h42.7c28.2,0,44.8,19.2,44.8,42.3M973.3,508.8c0-11.1-7.6-18.7-19.6-18.7h-24.6v37.3h24.6c12,0,19.6-7.6,19.6-18.7M147.1,466.5h-4.7c-4.6,0-8.7,3.2-9.8,7.7l-19.3,77.8-22.6-78.2c-1.2-4.3-5.2-7.3-9.7-7.3h-4.7c-4.5,0-8.4,3-9.7,7.3l-22.6,78.2-19.4-77.8c-1.1-4.5-5.1-7.7-9.8-7.7h-4.7c-6.5,0-11.4,6.2-9.8,12.5l29.1,116.2c1.1,4.5,5.1,7.6,9.8,7.6h7.2c4.5,0,8.4-3,9.7-7.3l22.6-77.7,22.6,77.7c1.2,4.3,5.2,7.3,9.7,7.3h7.2c4.6,0,8.7-3.2,9.8-7.6l29.1-116.2c1.6-6.4-3.2-12.5-9.8-12.5M878.9,534.3c0,25.9-.5,41.2-13.9,54.7-9.1,9.2-20.7,14.3-36.4,14.3s-27.2-5-36.4-14.3c-13.4-13.4-13.9-28.8-13.9-54.7s.5-41.2,13.9-54.7c9.1-9.2,20.7-14.3,36.4-14.3s27.2,5.1,36.4,14.3c13.4,13.4,13.9,28.8,13.9,54.7M852.2,534.3c0-25.9-1.5-32.4-6.6-38.1-3.8-4.4-9.8-7.2-17-7.2s-13.2,2.9-17.1,7.2c-5,5.7-6.6,12.2-6.6,38.1s1.5,32.3,6.6,38c3.8,4.3,9.8,7.3,17.1,7.3s13.2-3,17-7.3c5-5.7,6.6-12.1,6.6-38M272.4,534.3c0,25.9-.5,41.2-13.9,54.7-9.1,9.2-20.7,14.3-36.4,14.3s-27.2-5-36.4-14.3c-13.4-13.4-13.9-28.8-13.9-54.7s.5-41.2,13.9-54.7c9.1-9.2,20.7-14.3,36.4-14.3s27.2,5.1,36.4,14.3c13.4,13.4,13.9,28.8,13.9,54.7M245.7,534.3c0-25.9-1.5-32.4-6.6-38.1-3.8-4.4-9.8-7.2-17.1-7.2s-13.2,2.9-17,7.2c-5,5.7-6.6,12.2-6.6,38.1s1.5,32.3,6.6,38c3.8,4.3,9.8,7.3,17,7.3s13.2-3,17.1-7.3c5-5.7,6.6-12.1,6.6-38M682.1,592.8v-47.5h45.9v47.5c0,5.6,4.5,10.1,10.1,10.1h6.5c5.6,0,10.1-4.5,10.1-10.1v-117c0-5.6-4.5-10.1-10.1-10.1h-6.5c-5.6,0-10.1,4.5-10.1,10.1v45.9h-45.9v-45.9c0-5.6-4.5-10.1-10.1-10.1h-6.5c-5.6,0-10.1,4.5-10.1,10.1v117c0,5.6,4.5,10.1,10.1,10.1h6.5c5.6,0,10.1-4.5,10.1-10.1M617,593.9c9.7-7.5,14.9-18.3,14.9-31.1s-3.6-22.7-10.7-29.3c-6-5.7-14.2-9-26.6-10.8l-16.3-2.4c-6-.9-9.7-2.5-13-5.4-2.7-2.5-4-6.1-4-10.8,0-11.7,10.8-17,21.6-17s20.1,4.6,25.8,7.6l.4.2c2,1,4.4,1.6,6.9,1.6s6-.9,8-2.6l1-.9c2.5-2.3,3.9-5.6,3.7-9-.1-3.3-1.7-6.3-4.3-8.3-7.9-6-25.3-12.3-40.7-12.3-29.4,0-48.4,16.5-48.4,42.1s3.3,20.7,9.9,27.2c6.3,6.1,14.9,9.8,26.9,11.6l16.6,2.4c6.4.9,10,2.3,12.6,4.8,2.8,2.7,4.2,6.7,4.2,11.8,0,14.1-12.8,17.1-23.4,17.1s-22.7-6.5-29.2-10.8c-2.1-1.4-4.9-2.2-7.5-2.2s-4.8.7-6.4,2.2l-1.6,1.5c-2.4,2.2-3.7,5.2-3.7,8.4,0,3.4,1.5,6.6,4.1,8.9,11.3,9.9,28.6,16.3,44.1,16.3,14,0,25.9-3.7,35.3-11M505.4,465.8h-6c-3,0-5.8,1.3-7.8,3.6l-45.9,55.3v-48.9c0-5.6-4.5-10.1-10.1-10.1h-6.5c-5.6,0-10.1,4.5-10.1,10.1v117c0,5.6,4.5,10.1,10.1,10.1h6.5c5.6,0,10.1-4.5,10.1-10.1v-31.5l17.3-20.9,32.8,57.4c1.8,3.1,5.1,5.1,8.7,5.1h6.8c7.7,0,12.6-8.3,8.8-15.1l-38.5-67.5,31.5-38.1c5.4-6.6.7-16.5-7.8-16.5M385.4,602.9h-6.9c-3.6,0-7-1.9-8.7-5.1l-28.5-49.7h-18.6v44.7c0,5.6-4.5,10.1-10.1,10.1h-6.5c-5.6,0-10.1-4.5-10.1-10.1v-116.2c0-5.6,4.5-10.1,10.1-10.1h43.2c27.7,0,44.1,18.8,44.1,41.4s-9,29.5-24.6,35.8l25.3,44c3.9,6.7-1,15.1-8.7,15.1M366.9,508c0-10.7-7.4-17.9-19.1-17.9h-25.1v35.7h25.1c11.6,0,19.1-7.2,19.1-17.8"/>
    <path id="path2" class="st2" d="M500,37.6c-30.6,0-59.9,11.4-82.4,32.1-22.2,20.5-36,48.2-38.7,78.2,0,0,0,.1,0,.2-.2,1.9-.4,3.7-.6,5.3-.8,7.7-7.2,13.5-14.9,13.5H15C6.7,166.9,0,160.2,0,151.9v-7.6c0-8.3,6.7-15,15-15h328.6c6.4-33.4,23.2-63.9,48.5-87.2C421.6,14.9,459.9,0,500,0s78.4,14.9,107.9,42.1c25.3,23.3,42.2,53.8,48.5,87.2h328.6c8.3,0,15,6.7,15,15v7.6c0,8.3-6.7,15-15,15h-348.4c-7.7,0-14.2-5.8-14.9-13.5-.2-1.7-.4-3.5-.6-5.3,0,0,0,0,0-.2-2.8-29.9-16.5-57.7-38.7-78.2-22.5-20.7-51.8-32.1-82.4-32.1"/>
    <path id="path3" class="st0" d="M1000,672.5v-7.6c0-8.3-6.7-15-15-15H15C6.7,649.9,0,656.6,0,664.9v7.6c0,8.3,6.7,15,15,15h970c8.3,0,15-6.7,15-15"/>
  </g>
</svg>