<?xml version="1.0" encoding="UTF-8"?>
<svg id="Layer_1" xmlns="http://www.w3.org/2000/svg" version="1.1" viewBox="0 0 564.5 1000">
  <!-- Generator: Adobe Illustrator 29.1.0, SVG Export Plug-In . SVG Version: 2.1.0 Build 142)  -->
  <defs>
    <style>
      .st0 {
        fill: #fff;
      }
    </style>
  </defs>
  <g>
    <g>
      <path class="st0" d="M96.6,696.7h12.2v30.8h-11.4c0-5.5-8-20.8-41.2-22.1-33.8-1.3-37.2,15.3-25.8,18.8,14.7,4.5,43.8,3.6,61.9,9.4,23.8,7.7,30.5,33.3,9.7,46.9-18.7,12.2-51.4,10.8-74.6,2.8-4.2-1.5-11-5.2-10.7-.3v2.9H2.8v-33.8h12.6c.2,1.9-1.5,9.4,12.5,17.2,16.3,9,46,9.4,57.9,2.9,7-3.8,8-16.2-4.7-17.9-13.6-1.8-35.3-3.1-51.5-6.8-11.5-2.6-20.3-5.9-25.5-12.7-4-5.2-10.7-25.7,12.4-36,28.6-12.9,68.3-3.9,75.3,1.9,2.8,2.4,6,1.6,4.9-4.2"/>
      <path class="st0" d="M238.3,741.4c0-23.2-16.2-36.4-37.7-36.4s-37.7,13.1-37.7,36.4c0,23.2,16.8,36.9,37.7,36.3,20.9-.6,37.6-13.3,37.7-36.3M201.2,691.7c31.8,0,65.6,15.3,64.9,50.3-.7,35.1-34.1,48.7-64.9,48.7s-67.3-13.6-67.9-48.7c-.7-35.1,36.8-50.3,67.9-50.3"/>
      <path class="st0" d="M545.9,712.1c-2.5,2.5-34.1,40-34.1,40v20.1c0,2.2.1,2.1,2.5,2.1h13.1v11.5h-59.9v-11.5s12.1.2,14.6,0c2.5-.2,2.7-.7,2.8-2.1v-20.2s-35.1-38.5-35.4-39c-1.2-1.7-4.4-4.6-10.2-4.8h-9.9v-11.6h60.6v11.6h-6.2c-1.3,0-3.2,2.8-.7,5.3,2.5,2.5,20.6,24.1,20.6,24.1l20.6-24.3c1.2-1.6.8-5.1-1.7-5.1h-7.5v-11.6h49.5v11.6h-11.5c-3.7,0-6.2,3.1-7,4"/>
      <path class="st0" d="M314.6,768.9c0,5.9,3,5.5,5.7,5.4h11.9v11.4h-52.5v-11h11.6c4.7-.3,5.4-2.8,5.6-5.5v-54.2c.1-3.6.2-6.6-6.2-6.8h-11.1v-11.9c0,0,44.3,0,44.3,0l60,55.5v-37.5c0-6.4-3.2-6.4-5.8-6.7h-11.2v-11.4h50.9v11.5h-12.2c-2.9,0-4.1,2.8-4.3,5.5v72.3h-16.7l-70-61.6v44.7h0Z"/>
      <path class="st0" d="M24.6,842.2h17.7c7.2-.2,11.4-1.9,11.4-8.3s-4.2-8.4-10.4-8.4h-18.7v16.8ZM1.5,873.1v-7.1h6.2c2.4,0,3-1,3-3v-34.2c0-2.1-.6-3.2-3.1-3.2H1.8v-7.3h46.5c15.9,0,21,3.7,21,15.2s-7.1,16.1-25,16.1h-19.6v13.5c0,2.1.6,3,3,3h6.4v7.1H1.5Z"/>
      <path class="st0" d="M99.7,863c0,2.1.6,3,3,3h6.3v7.1h-32.4v-7.1h6.2c2.4,0,3-.9,3-3v-34.3c0-2.1-.6-3.4-3-3.4h-6.2v-7.1h32.4v7.1h-6.3c-2.4,0-3,1.4-3,3.4v34.3Z"/>
      <path class="st0" d="M180.5,856.2c-1.1,8.5-10.9,19.7-28.4,19.7s-37.4-7.1-37.7-29.6c-.4-22.1,19.5-31.4,35.8-31.1,9.7.2,18.4,3.5,20.6,5.7,1.4,1.4,3.2,1.5,2.5-2.7h6.4v18.8h-6c-.6-9.9-12-16.1-24.3-14.6-13,1.6-19.4,11.5-19.3,23.7,0,13.5,11.2,22.8,22.4,22.8,7.4,0,19.1-2.2,21.5-12.7h6.4Z"/>
      <path class="st0" d="M189.5,839.1v-20.9h65.3v20.9h-6.6c.2-14.7-1.3-13.3-6.3-13.9h-12.7s0,37.9,0,37.9c0,2.1.5,3.4,3,3.4h6.2v6.7h-32.5v-6.7h6.2c2.4,0,3-1.3,3-3.4v-37.9h-12.6c-5.6.6-6.4-.4-6.4,13.9h-6.7Z"/>
      <path class="st0" d="M298.7,875.6c-13.1,0-27-3-27-19.9v-26.9c0-2.1-.6-3.4-3-3.4h-6.2v-7.2h32.4v7.1h-6.3c-2.4,0-3,1.4-3,3.5v27.8c0,1.8-.8,12.8,13,12.8s16.8-6.7,16.8-12.8v-27.7c0-2.1-.5-3.4-2.9-3.4h-6.2v-7.2h27.5v7.1h-6.3c-1.5,0-2.9,1.6-2.9,5.7v25.2c.1,16.2-12.7,19.4-26,19.4"/>
      <path class="st0" d="M364.4,842.2h17.7c6.8,0,10.5-3.2,10.5-8.3s-4.4-8.4-9.8-8.4h-18.4v16.8h0ZM394.4,846.6c5.5,1.3,9.3,2.5,9.6,9.1v7.9c0,1.6.3,3.9,2.9,3.9s2.6-3.2,2.5-6.2v-3.3h5.8v4c0,9.9-2.4,12.6-11,12.6-7.3,0-14.2-2.3-14.2-13.2v-6c0-4.1-3.4-5.9-9.6-5.9h-16v13.5c0,2.1.6,3,3,3h6.2v7.3s-32.4,0-32.4,0v-7.3h6.2c2.4,0,3-.9,3-3v-34.2c0-2.1-.6-3.6-3-3.6h-5.9v-6.8h45.5c15.9,0,21.2,5.1,21.1,15.5,0,8.9-7.4,11.7-13.8,12.9"/>
      <path class="st0" d="M445.6,866.2h29.2c5.6-.4,6.6-3.1,6.6-13.7h6.3v20.9h-65.4s0-7.1,0-7.1h6.2c2.4,0,3-1,3-3v-34.3c0-2.1-.6-3.4-3-3.4h-6.2v-7.2h65.4v20.8h-6.3c0-10.6-1-13.5-6.6-14.1h-29.2s0,16.5,0,16.5h13.6c1.8,0,2.9-.7,2.9-3.5v-5.7h6.1v25.8h-6v-5.7c0-2.9-1.2-3.5-2.9-3.5h-13.6s0,17.4,0,17.4h0Z"/>
      <path class="st0" d="M551.9,818.9h6.4v19.1h-6c0-3.3-4.3-13.8-21.7-14.3-17.8-.5-20.1,9.2-13.4,12.3,7.5,3.4,23,2.2,32.4,5.7,12.5,4.7,16,20.1,5.1,28.4-9.8,7.4-26.9,6.5-39.1,1.7-2.2-.9-5.8-3.1-5.6-.2v1.8h-7.4v-20.4h6.6c0,1.2-.8,5.7,6.6,10.4,10.9,7,21.5,7.7,30.4,2.1,4.1-2.6,5.8-9.9-2.5-11.2-7.2-1.1-18.5-1.9-27-4.1-6-1.6-10.6-3.6-13.4-7.7-2.3-3.4-6.2-15.2,6.5-21.8,15-7.8,31.7-3.2,39.5,1.2,1.8,1,3.2,1,2.5-3"/>
    </g>
    <g>
      <path class="st0" d="M173.1,575.2v-102.2c0-14.5-12.6-50.7-12.6-89.3s13.7-83.2,13.7-99v-107.4s-38.4,17.9-38.4,17.9c0,86.5,0,164.4,0,167.7.3,13.7,11.2,13.9,11,27.2-.2,15.5-11.3,23-11,31.6.2,4.7.2,85.3.1,170.7l37.1-17.2Z"/>
      <path class="st0" d="M184.1,570.1l36.1-16.8c0-25.5,0-43.5,0-46.9.6-49.2-13.4-82.8-13.5-143.8-.1-55,14.7-94.6,15.8-139.9,0-2.9.1-30.6.1-68l-38,17.7v110.1c.1,15.4,10.8,48.4,10.8,85s-11.5,89.2-11.3,101.8v100.8Z"/>
      <path class="st0" d="M231,548.2l39-18.2c-3.4-37.5-16-112.1-16-189.8s18-178.2,18-200.3v-8.4l-38.4,17.9c0,38.2,0,66.5,0,69.4.6,43.2,10.5,79.4,10.5,126.3,0,46-12.5,110.8-13.1,157.2,0,3.3,0,20.9,0,45.8"/>
      <polygon class="st0" points="35.6 241.8 2.1 257.5 2.1 654.7 35.6 639.1 35.6 241.8"/>
      <polygon class="st0" points="45.1 634.7 79.3 618.8 79.4 221.4 45.1 237.4 45.1 634.7"/>
      <path class="st0" d="M125.9,199.7l-37.2,17.3v397.3s37.1-17.3,37.1-17.3c.2-88.8.3-169.6,0-171.5-1.1-12.6-10.1-8.4-10.3-21.5-.3-15.8,10.3-24,10.3-33.7,0-3.6,0-82.9,0-170.7"/>
      <path class="st0" d="M317.8,507.8c-5.1-50.9-12.4-124.9-12.4-190.9s7.4-152.1,12.4-206.7l-35.2,16.4c0,3.5,0,5.9,0,7,0,22.1,13.5,95.7,13.8,186.9.3,86.8-11.7,164.2-14.1,203.8l35.5-16.5Z"/>
      <path class="st0" d="M354.7,292.9c.4-60.2,5.5-137,10.2-204.6l-30.8,14.4c3.9,49.9,11.9,120.6,11.9,194.6,0,66.4-4.5,145.5-7.7,201.1l27.3-12.7c-5.3-60.9-11.2-133.6-10.8-192.7"/>
      <path class="st0" d="M414.9,462.6c-5.4-68.5-10.7-145.1-10.5-192.5.2-57.6,5.5-137,10.2-205l-28.2,13.1c4.2,60.1,10.3,132.8,10.6,195.6.3,56.2-4.4,132.2-7.8,200.8l25.8-12Z"/>
      <path class="st0" d="M440,451l22.4-10.4c-4.4-60.7-9.8-132-9.7-192.4,0-70,5-130.1,9.2-205.1l-26.4,12.3c5,64.7,10.9,132.1,10.8,195.3,0,59.3-2.9,135-6.3,200.3"/>
      <path class="st0" d="M510,48.1c.4-9.4.6-18.7.6-27.9l-26.1,12.1c.9,9.8,1.6,18.7,2,27.2,3.2,87.3,9.1,88.9,8.9,168.2-.2,79.6-3,129.1-6.8,200.6l19-8.8c-2.7-73.5-6.7-112.4-6.8-193.6,0-67.2,5.3-91.6,9.2-177.7"/>
      <path class="st0" d="M542.3,205.8c.2,26.3-4.8,120.6-9.4,201.9l20.3-9.5c-2.8-82.9-6.8-166.4-7.1-194.5-.3-27.2,3.4-105.1,7.7-187.8,0-5.2.1-10.5.1-16l-20.8,9.7c4.4,86.1,9.7,162.5,9.1,196.1"/>
    </g>
  </g>
  <g>
    <rect class="st0" x="1.8" y="905" width="562.1" height="11.1"/>
    <path class="st0" d="M121.8,998.5v-5.6h5.5c2.4,0,4-.7,4-3.3v-32.1c0-2.2-1.1-3.2-4.6-3.2h-4.9v-5.6h31.5v5.6h-4.8c-3.8,0-5.1.7-5.1,3.3v35.2h14c8.8,0,11-4.3,11.8-15.9h6.3v21.3h-53.7"/>
    <path class="st0" d="M304.9,954.4h-2c-4.1,0-5.9,1-7.4,4.7l-16.9,39.4h-11.7l-16.8-40.1c-1.4-3.4-3.2-4-6.5-4h-2.4v-5.5h30.5v5.5h-5.3c-2.6,0-3.7.6-3.7,1.7s.5,2.1.9,3l10.7,27.3h.2l11.6-27.3c.6-1.3.8-2,.8-2.9,0-1.3-1.6-1.9-4.1-1.9h-5.2v-5.5h27.6v5.5"/>
    <path class="st0" d="M461.4,953.2c13.9,0,17.6,9.8,17.6,20.5s-3.7,20.4-17.2,20.4-17.9-9.7-17.9-20.4,3.9-20.5,17.6-20.5M461.4,947.4c-18.7,0-31.1,11.5-31.1,26.3s12.4,26.3,31.1,26.3,31.2-11.3,31.2-26.3c0-14.9-12.5-26.3-31.2-26.3"/>
    <path class="st0" d="M513.6,958.3h-.2v31.7c0,1.8,1.3,2.9,3.5,2.9h6.5v5.6h-28.5v-5.6h6c2.6,0,3.5-1.1,3.5-2.9v-32.9c0-1.9-.9-2.7-3.5-2.7h-6v-5.5h25.4l25,35.7h.2v-26.7c0-2.2-1.3-3.5-4.5-3.5h-5.2v-5.5h28v5.5h-5.1c-3.1,0-4.3,1.2-4.3,2.6v41.5h-12.8l-28.1-40.2"/>
    <path class="st0" d="M79.7,992h24.4c4.7-.4,5.6-2.8,5.6-12.4h5.2v18.8h-54.7c0,0,0-6.4,0-6.4h5.3c2,0,2.5-.8,2.5-2.7v-30.9c0-1.9-.5-3.1-2.5-3.1h-5.3v-6.5h54.7v18.7h-5.2c0-9.6-.8-12.2-5.6-12.7h-24.4s0,14.9,0,14.9h11.3c1.5,0,2.5-.7,2.5-3.2v-5.2h5v23.3h-5v-5.2c0-2.6-1-3.2-2.4-3.2h-11.4s0,15.6,0,15.6"/>
    <path class="st0" d="M200.8,991.9l24.5.2c4.7-.5,5.6-3,5.6-12.4h5.2v18.8h-54.7v-6.4h5.2c2,0,2.5-.9,2.5-2.8v-30.8c0-1.9-.5-3.1-2.5-3.1h-5.2v-6.5h54.7v18.8h-5.2c0-9.6-.9-12.2-5.6-12.7h-24.5v14.9h11.4c1.4,0,2.4-.6,2.4-3.2v-5.1h5.1v23.2h-5.1v-5.2c0-2.6-1-3.2-2.4-3.2h-11.4v15.6"/>
    <path class="st0" d="M328.9,989.2c0,1.8.6,2.7,2.5,2.7h5.2v6.4h-27.1v-6.4h5.2c2,0,2.5-.9,2.5-2.7v-30.8c0-1.9-.5-3.1-2.5-3.1h-5.2v-6.4h27.1v6.4h-5.2c-2,0-2.5,1.2-2.5,3.1v30.9"/>
    <path class="st0" d="M419.1,989.2c0,1.9.5,2.8,2.5,2.8h5.2v6.4h-27.1v-6.4h5.2c2.1,0,2.5-.8,2.5-2.7v-30.9c0-1.9-.4-3.1-2.5-3.1h-5.2v-6.4h27.1v6.4h-5.2c-2,0-2.5,1.2-2.5,3.1v30.9"/>
    <path class="st0" d="M386.3,949h5.4v17.2h-5c0-3-3.6-12.4-18.2-12.8-14.9-.5-16.8,8.3-11.2,11,6.2,3.1,19.2,2,27.1,5.2,10.4,4.2,13.3,18.1,4.2,25.6-8.1,6.7-22.5,5.9-32.6,1.6-1.9-.9-4.8-2.8-4.7-.2v1.6h-6.2v-18.4h5.5c0,1-.6,5.1,5.5,9.4,9.1,6.3,18,6.9,25.4,1.9,3.3-2.3,4.9-8.9-2.1-10-6-1-15.5-1.7-22.5-3.7-5-1.4-8.9-3.2-11.2-6.9-2-3-5.2-13.8,5.4-19.6,12.5-7,26.4-2.9,33,1.1,1.5.9,2.7.9,2.1-2.7"/>
    <path class="st0" d="M1.8,967.6v-18.8h54.6v18.8h-5.5c0-13.3-1.1-12-5.4-12.5h-10.6v34.1c0,1.9.5,3.1,2.5,3.1h5.2v6H15.5v-6h5.3c2,0,2.5-1.2,2.5-3.1v-34.1h-10.6c-4.7.5-5.3-.4-5.3,12.5H1.8"/>
  </g>
</svg>